<svg version="1.1" id="Layer_1" xmlns="http://www.w3.org/2000/svg" xmlns:xlink="http://www.w3.org/1999/xlink" x="0px" y="0px"
	 width="100%" viewBox="0 0 200 200" enable-background="new 0 0 200 200" xml:space="preserve">
<path fill="#FFFFFF" opacity="1.000000" stroke="none" 
	d="
M1.376517,117.046257 
	C1.000000,79.538086 1.025624,42.076126 0.945514,4.614385 
	C0.939841,1.961481 1.063847,0.885372 4.378861,0.892806 
	C68.813026,1.037298 133.247696,1.043274 197.681793,0.881584 
	C201.172485,0.872824 201.041504,2.186392 201.037796,4.675025 
	C200.982986,41.470848 201.000000,78.266777 201.000000,115.531342 
	C198.376785,115.831100 198.636612,113.500153 198.234161,111.950623 
	C195.387299,100.989708 189.858322,92.064857 179.574615,86.613213 
	C176.973877,85.234497 176.049362,82.732887 175.214157,80.177353 
	C172.977921,73.335052 168.823196,67.785194 163.590012,62.983261 
	C157.911682,57.772861 151.017822,55.099987 143.491547,55.621376 
	C139.132278,55.923363 136.734589,54.568226 134.330505,51.354401 
	C126.991638,41.543602 117.183037,36.161495 104.797836,36.330090 
	C94.094002,36.475796 85.061493,40.681896 78.046021,48.827003 
	C75.849564,51.377136 73.800873,53.292370 70.014847,52.340088 
	C51.239784,47.617680 34.441456,59.058601 28.921648,77.507942 
	C27.084911,83.647026 24.646172,87.972198 18.867937,91.207878 
	C11.020949,95.602005 6.337392,102.935188 4.115041,111.741318 
	C3.638396,113.630035 3.542571,115.754982 1.376517,117.046257 
z"/>
<path fill="#FFFFFF" opacity="1.000000" stroke="none" 
	d="
M200.559357,134.014633 
	C201.000000,155.305359 200.967239,176.610840 201.047577,197.915894 
	C201.056198,200.200516 200.806259,201.082504 198.091675,201.078278 
	C133.343506,200.977585 68.595116,200.973587 3.846993,201.087555 
	C0.977488,201.092606 0.960862,199.993561 0.966523,197.854614 
	C1.022032,176.882309 1.000000,155.909775 1.000000,134.468658 
	C3.680856,134.359467 3.669193,136.740601 4.076732,138.508545 
	C7.246882,152.260971 19.358648,165.005630 38.867619,164.729355 
	C81.652916,164.123444 124.452705,164.542007 167.246582,164.541351 
	C181.633499,164.541138 190.383377,158.518494 196.013596,145.155106 
	C197.556030,141.494095 197.451920,137.249496 200.559357,134.014633 
z"/>
<path fill="#575757" opacity="1.000000" stroke="none" 
	d="
M201.000000,133.532059 
	C198.678085,141.122665 197.218475,148.492630 192.199402,154.607666 
	C186.660858,161.355621 180.645660,166.115540 171.289490,166.079498 
	C126.983894,165.908737 82.670723,165.555054 38.373966,166.203491 
	C18.028500,166.501328 4.262903,152.473862 1.362106,134.154510 
	C1.000000,128.645065 1.000000,123.290138 1.000000,117.467606 
	C3.621761,109.809853 5.271548,102.326805 10.750237,96.271751 
	C14.135979,92.529823 18.045725,89.825089 22.229961,87.517952 
	C24.464832,86.285675 25.509726,85.187332 26.078823,82.720009 
	C29.440273,68.146423 36.625023,56.639961 51.729340,51.668480 
	C57.800362,49.670242 63.989700,48.919327 69.979881,51.134014 
	C73.318108,52.368221 74.917175,50.961460 76.546570,48.873989 
	C91.265945,30.016636 119.538193,30.375679 134.615341,49.385998 
	C137.202148,52.647636 138.879410,54.575565 143.861877,54.293236 
	C154.676727,53.680408 163.264587,59.191654 169.878433,67.612068 
	C173.205734,71.848221 175.864456,76.493690 177.016998,81.837433 
	C177.862595,85.757935 181.736862,85.855545 184.208633,87.722511 
	C193.531723,94.764481 198.430969,104.351273 200.637833,115.845558 
	C201.000000,121.688042 201.000000,127.376076 201.000000,133.532059 
z"/>
<path fill="#D9D9D9" opacity="1.000000" stroke="none" 
	d="
M135.311066,68.168594 
	C145.170685,63.657345 153.606186,65.722900 160.056168,73.843842 
	C164.081696,78.912247 166.111679,84.858498 167.861786,90.942284 
	C168.253601,92.304314 167.917206,93.824791 170.027191,94.328644 
	C182.582733,97.326813 187.649231,107.018814 189.484390,118.299095 
	C191.543457,130.955795 189.107285,142.839767 178.728226,151.818726 
	C175.438980,154.664246 171.546463,155.881821 167.227417,155.845825 
	C123.424545,155.480698 79.621193,155.163010 35.819061,154.723648 
	C24.645540,154.611572 18.131287,147.772598 14.332958,138.184280 
	C10.333493,128.088226 11.143656,117.957825 16.206209,108.334465 
	C19.566368,101.947174 24.819191,97.712151 32.090538,96.755173 
	C35.339840,96.327545 35.796623,94.877846 36.085506,91.975868 
	C37.192593,80.854721 40.705868,70.854568 50.910072,64.596336 
	C58.454880,59.969109 66.218895,60.062107 73.348419,64.975029 
	C77.872261,68.092384 79.227020,66.239098 81.212044,62.413792 
	C85.160240,54.805302 90.943237,49.134964 99.615013,46.941044 
	C111.801155,43.858017 120.076630,49.810814 126.974808,58.748550 
	C128.881058,61.218403 130.333282,64.079308 131.715332,66.897362 
	C132.503433,68.504318 133.103683,69.581062 135.311066,68.168594 
z"/>
<path fill="#D6504D" opacity="1.000000" stroke="none" 
	d="
M71.191528,135.609055 
	C70.336182,129.775940 69.784737,124.311035 68.710663,118.950859 
	C68.014648,115.477371 69.515121,115.769981 71.825035,116.387146 
	C79.313438,118.387924 86.814140,120.342697 94.298195,122.312057 
	C94.243477,122.800354 94.327347,123.221512 94.154846,123.421310 
	C89.083382,129.295227 89.315811,130.082626 96.946877,132.715424 
	C104.830544,135.435364 114.162079,132.357819 118.504166,124.766121 
	C120.993263,120.414177 123.393639,119.329102 128.246902,120.788750 
	C135.749817,123.045296 135.338257,123.002045 131.966537,129.777283 
	C122.786415,148.224136 99.409386,152.944778 81.602547,140.152878 
	C79.824959,138.875900 78.635536,137.545242 76.773613,139.890701 
	C75.877975,141.018936 74.744766,142.805313 73.291733,142.350662 
	C71.450279,141.774490 72.038040,139.536423 71.741371,137.957230 
	C71.618988,137.305771 71.431587,136.666504 71.191528,135.609055 
z"/>
<path fill="#D6504D" opacity="1.000000" stroke="none" 
	d="
M104.888885,94.849670 
	C95.831795,92.886078 87.272758,96.160454 83.269073,103.866547 
	C81.245941,107.760551 79.310020,108.119720 75.541008,107.070091 
	C67.432053,104.811836 67.033508,104.110245 71.573563,96.572792 
	C81.290482,80.440651 100.763466,75.695908 117.439583,85.793449 
	C121.863914,88.472420 125.516281,91.118675 129.386627,84.562004 
	C131.970978,93.262535 132.387817,101.348328 133.925812,109.220383 
	C134.311295,111.193443 133.866745,112.284889 131.204315,111.469025 
	C124.581223,109.439461 117.845383,107.772346 111.133415,106.042747 
	C109.748657,105.685913 108.403839,105.636574 109.157730,103.609108 
	C111.469383,97.392265 111.454102,97.386581 104.888885,94.849670 
z"/>
</svg>