<?xml version="1.0" encoding="UTF-8"?>
<svg id="Layer_2" data-name="Layer 2" xmlns="http://www.w3.org/2000/svg" viewBox="0 0 458.83 688.37">
  <defs>
    <style>
      .cls-1 {
        fill: #f24e1e;
      }

      .cls-1, .cls-2, .cls-3, .cls-4, .cls-5, .cls-6 {
        stroke-width: 0px;
      }

      .cls-2 {
        fill: none;
      }

      .cls-3 {
        fill: #ff7262;
      }

      .cls-4 {
        fill: #a259ff;
      }

      .cls-5 {
        fill: #1abcfe;
      }

      .cls-6 {
        fill: #0acf83;
      }
    </style>
  </defs>
  <g id="Layer_1-2" data-name="Layer 1">
    <path class="cls-2" d="M0,.26h458.83v688.11H0V.26Z"/>
    <path class="cls-5" d="M229.28,344.32c0-63.24,51.27-114.77,114.77-114.77s114.77,51.27,114.77,114.77-51.27,114.77-114.77,114.77-114.77-51.53-114.77-114.77h0Z"/>
    <path class="cls-6" d="M0,573.6c0-63.24,51.27-114.77,114.77-114.77h114.77v114.77c0,63.24-51.27,114.77-114.77,114.77S0,637.1,0,573.6h0Z"/>
    <path class="cls-3" d="M229.28.26v229.28h114.77c63.24,0,114.77-51.27,114.77-114.77S407.56,0,344.06,0h-114.77v.26Z"/>
    <path class="cls-1" d="M0,115.03c0,63.24,51.27,114.77,114.77,114.77h114.77V.26h-114.77C51.27.26,0,51.53,0,115.03Z"/>
    <path class="cls-4" d="M0,344.32c0,63.24,51.27,114.77,114.77,114.77h114.77v-229.54h-114.77C51.27,229.54,0,281.07,0,344.32Z"/>
  </g>
</svg>