<?xml version="1.0" encoding="UTF-8"?>
<svg id="Layer_2" data-name="Layer 2" xmlns="http://www.w3.org/2000/svg" xmlns:xlink="http://www.w3.org/1999/xlink" viewBox="0 0 45.36 60">
  <defs>
    <style>
      .cls-1 {
        fill: none;
      }

      .cls-1, .cls-2 {
        stroke-width: 0px;
      }

      .cls-2 {
        fill: url(#linear-gradient);
      }
    </style>
    <linearGradient id="linear-gradient" x1="14.84" y1="37.35" x2="27.47" y2="15.24" gradientTransform="translate(0 59.89) scale(1 -1)" gradientUnits="userSpaceOnUse">
      <stop offset="0" stop-color="#909cf7"/>
      <stop offset="1" stop-color="#4b38d8"/>
    </linearGradient>
  </defs>
  <g id="Layer_2-2" data-name="Layer 2">
    <g id="Symbol_-_Purple_Gradient" data-name="Symbol - Purple Gradient">
      <path class="cls-2" d="M45.25,22.6c-1.09,10.46-10.23,18.23-20.75,18.23h-4.05v9.57c0,5.3-4.3,9.6-9.6,9.6H3.36c-1.86,0-3.36-1.5-3.36-3.36v-19.7l5.04-7.07c.91-1.28,2.59-1.76,4.04-1.15l2.87,1.2c1.44.61,3.12.13,4.02-1.15l6.72-9.42c.91-1.27,2.57-1.75,4.01-1.14l5.52,2.32c1.44.61,3.11.13,4.02-1.14l6.46-9.06c2.02,3.56,3.01,7.79,2.55,12.27Z"/>
      <path class="cls-1" d="M3.29,28.87c.82-1.16,2.02-2.04,3.41-2.31,1.09-.21,2.16-.1,3.15.32l2.86,1.2c.17.07.34.1.52.1.44,0,.85-.21,1.1-.57l6.59-9.24c.82-1.15,2.02-2.04,3.41-2.31,1.08-.21,2.15-.1,3.13.31l5.52,2.32c.17.07.34.11.52.11.44,0,.85-.21,1.1-.57l6.92-9.71C37.83,3.36,31.78,0,24.95,0H3.36C1.5,0,0,1.5,0,3.36v30.13l3.29-4.62Z"/>
    </g>
  </g>
</svg>