<?xml version="1.0" encoding="UTF-8"?>
<svg id="Layer_2" data-name="Layer 2" xmlns="http://www.w3.org/2000/svg" viewBox="0 0 145.91 127.72">
  <defs>
    <style>
      .cls-1 {
        fill: #2a87d5;
        stroke-width: 0px;
      }
    </style>
  </defs>
  <g id="Vector_layer" data-name="Vector layer">
    <path class="cls-1" d="M88.03,96.77c-.64-.44-.86-1.4-.38-2.04,3.86-4.85,8.93-8.94,14.63-11.41,1.95-.59,4.37-1.54,6.3-.56.8.69.29,2.11-.77,2.12-5.76,1.22-10.8,5.14-15.25,8.88-1.15.8-2.25,3.25-3.73,3.25-.25,0-.52-.07-.8-.24Z"/>
    <path class="cls-1" d="M107.66,85.09c-7.17-16.62-14.83-33.06-21.56-49.87-.84-2.14,2.36-3.47,3.28-1.34,2.24,5.24,4.7,10.39,6.81,15.68,4.45,10.52,8.4,21.25,12,32.07.29.95.55,1.91.85,2.85.26.35.13.89-.25,1.11-.12.07-.25.1-.37.1-.35,0-.7-.23-.77-.61Z"/>
    <path class="cls-1" d="M86.89,97.79c-11.23-13-23.22-25.18-34.78-37.85-1.07-1.31.77-3.2,2.1-2.12,3.62,3.55,6.93,7.42,10.52,11.01,1.06.87,27.36,29.21,23.12,29.22-.23,0-.55-.08-.96-.26Z"/>
    <path class="cls-1" d="M52.13,58.51c-2.13-1.65,4.67-7.75,5.97-9.11,7.46-6.73,15.68-12.41,25.29-15.29,1.69-.3,4.47-1.55,5.79-.07.39.5.17,1.32-.42,1.57-.95.14-1.93.41-2.8.74-2.24.88-4.41,1.95-6.5,3.04-7.22,3.89-14.2,9.01-20.16,14.55-1.69,1.61-3.38,3.2-5.24,4.61-.29.22-.63.33-.97.33s-.7-.12-.98-.38Z"/>
    <path class="cls-1" d="M115.66,81.52c-1.02-8.8-3.94-17.22-6.16-25.75-3.44-12.25-7.37-24.45-11.47-36.45-.28-1.63-3.03-6.3-1.25-7.18.41-.16.95-.04,1.2.34,6.12,15.75,10.87,32.15,15.3,48.5,1.62,5.83,3.32,11.65,4.27,17.64.11,1.33,1.17,4.11-.96,4.14-.59-.09-.99-.65-.93-1.22Z"/>
    <path class="cls-1" d="M116.5,82.96c-.97-.77-.33-1.88.11-2.73.89-1.6,1.73-3.24,2.54-4.88,4.12-9,8.27-17.98,12.3-27.01,3.88-8.8,7.1-17.86,10.62-26.8.61-1.15.84-3.49,2.55-3.26,2.46.57-1.17,8.17-1.5,9.96-3.22,9.25-6.95,18.33-10.88,27.3-2.73,6.07-5.46,12.12-8.4,18.09-1.08,1.67-4.16,9.57-6.63,9.57-.24,0-.48-.07-.71-.24Z"/>
    <path class="cls-1" d="M144.56,19.56c-11.27-6.28-24.46-8.46-37.24-8.35-3.12.09-6.21.61-9.3,1.02-.59.08-1.17-.36-1.3-.93-.46-2.5,5.5-1.79,7.07-2.07,14.26-.95,29.35,1.29,41.63,8.92.77.67.58,1.6-.21,1.6-.18,0-.41-.05-.66-.18Z"/>
    <path class="cls-1" d="M82.72,103.95c-13.85-9.86-27.88-19.49-41.61-29.53-9.66-7.47-19.7-14.3-29.34-21.64-.83-.8.1-2.34,1.21-1.93,4.95,2.16,9.04,5.91,13.41,9,4.33,3.29,8.66,6.59,13.05,9.79,14.21,10.26,28.82,19.9,42.4,30.99.71.61,1.5,1.14,2.12,1.83.55.61.05,1.55-.65,1.63-.03,0-.06,0-.09,0-.16,0-.33-.04-.5-.15Z"/>
    <path class="cls-1" d="M79.47,114.81c-2.44-.82.6-5.04,1.05-6.66.66-1.5,1.38-2.98,2.09-4.45.12-.58.73-1.01,1.37-.82.67.21.9.95.64,1.5-.43,1.57-1.06,3.07-1.59,4.62-.7,1.38-1.18,5.64-3.01,5.86-.05,0-.1,0-.14,0-.13,0-.26-.02-.4-.06Z"/>
    <path class="cls-1" d="M79.39,115.81c-3.79-1.35-7.53-3.68-11-5.51-9.77-5.09-19.4-10.44-28.97-15.89-12.86-6.86-25.33-14.59-38.11-21.54-.92-.54-.15-2.07.85-1.58,4.65,2.14,9.27,4.33,13.86,6.6,14.8,7.08,28.76,15.82,43.16,23.67,6.21,3.41,12.26,7.1,18.2,10.95,1,.79,3.06,1.29,2.97,2.79-.09.31-.36.49-.65.53-.03,0-.06,0-.1,0-.07,0-.14-.01-.21-.03Z"/>
    <path class="cls-1" d="M0,71c.39-2.12,1.89-3.91,2.92-5.79,2.29-3.62,4.64-7.21,7.3-10.57,1.01-1.28,3.06.12,2.2,1.52-2.33,3.54-4.46,7.2-6.8,10.73-.66.85-3.04,4.91-4.57,5.09-.04,0-.07,0-.1,0-.4,0-.73-.29-.95-.98Z"/>
    <path class="cls-1" d="M76.22,123.61c-13.71-4.37-27.91-6.98-41.6-11.42-1.27-.34-.82-2.26.48-1.97,9.1,2.45,18.31,4.39,27.43,6.78,1.96.66,15.67,4.09,14.9,5.99-.07.31-.32.55-.61.64-.04.01-.07.02-.11.03-.06.01-.12.02-.18.02-.1,0-.21-.02-.31-.06Z"/>
    <path class="cls-1" d="M32.08,126.62c-.07-.57.32-1.2.9-1.31,2.52-.38,5.05-.62,7.58-.89,5.57-.59,11.18-.95,16.77-1.2,6.05-.23,12.06-1.15,18.12-1.23,1.82-.15,2.48,1.4,1.08,1.86-.07.02-.15.04-.23.06-.14.03-.3.05-.48.05-6.96.75-13.9,1.77-20.88,2.36-5.93.54-12.16.82-18,1.13-.44-.05-1.04.04-1.65.12-.5.07-1.01.14-1.48.14-.85,0-1.55-.23-1.73-1.1Z"/>
    <path class="cls-1" d="M31.09,125.23c0-2.12.17-4.23.5-6.32.35-1.42,1.22-9.59,3.26-8.65.32.17.49.54.42.89-1.29,4.55-2.56,9.21-2.18,13.97.03.46-.28.87-.7,1-.04.02-.07.02-.11.03-.04.01-.09.02-.14.02-.02,0-.04,0-.05,0-.5,0-.99-.42-.99-.95Z"/>
    <path class="cls-1" d="M96.54,88.13c1.19-4.57,2.86-9.15,4.14-13.75.5-.99.25-3.27,1.82-3.06.5.14.77.66.65,1.15-.47,1.36-3.73,16.11-5.98,16.11-.22,0-.43-.14-.63-.45Z"/>
    <path class="cls-1" d="M89.39,95.54c-.61-.26-.73-1.02-.34-1.51,1.93-4.84,3.01-9.95,4.46-14.94,1.17-4.33,2.48-8.61,3.74-12.91.5-1.08.26-3.3,1.87-3.27,1.93.45.21,3.48.11,4.78-.83,3.28-1.68,6.55-2.6,9.8-1.67,5.89-3.52,11.61-5.91,17.2-.06.52-.49.92-.97.92-.12,0-.24-.02-.36-.08Z"/>
    <path class="cls-1" d="M83.91,92.76c-.43-.18-.57-.7-.35-1.08.39-1.04.62-2.12.89-3.19,2.72-11.55,5.43-23.09,8.69-34.5.24-.84.4-2.15,1.56-2,.6.08,1.02.65.95,1.25-.33,2.12-.8,4.21-1.34,6.28-2.39,8.32-4.61,16.68-6.85,25.04-.75,2.57-1.57,5.13-2.51,7.63-.04.38-.4.64-.76.64-.1,0-.19-.02-.28-.06Z"/>
    <path class="cls-1" d="M77.95,86.71c-.91-.72.21-1.75.34-2.5,1.64-4.78,2.77-9.7,3.82-14.64,1.88-7.91,4.1-15.73,5.91-23.66.54-1.31.37-4.16,2.38-3.85.69.19,1.04.88.89,1.56-.6,2.47-1.29,4.92-1.85,7.41-2.76,10.73-4.28,21.87-8.6,32.14-.59.91-1.06,3.73-2.3,3.73-.18,0-.37-.06-.58-.19Z"/>
    <path class="cls-1" d="M72.13,80.26c-.42-.18-.63-.73-.38-1.13,1.77-4.61,2.4-9.62,4.02-14.3,1.41-4.47,2.77-8.96,3.82-13.53,1.38-4.89,2.12-9.98,3.81-14.77.56-1.41,2.83-.81,2.58.71-2.66,8.93-5.5,17.82-7.7,26.89-1.2,4.58-2.53,9.13-4.22,13.55-.51.78-.57,2.62-1.65,2.62-.09,0-.18-.01-.28-.04Z"/>
    <path class="cls-1" d="M66.75,74.5c-.86-.4-.43-1.25-.14-1.87,1.99-6.78,3.57-13.69,5.48-20.5,1.12-4.38,1.98-8.83,3.51-13.09.2-.56.88-.84,1.43-.69.56.15.98.74.87,1.32-.89,4.73-2.38,9.32-3.48,14-1.54,5.79-3.32,11.51-5.34,17.14-.39,1.07-.8,2.14-1.19,3.21-.12.33-.46.53-.81.53-.11,0-.22-.02-.33-.06Z"/>
    <path class="cls-1" d="M61.14,67.75c-.46-.2-.6-.74-.38-1.15,1.19-4.88,1.9-9.89,3.13-14.77.57-2.35,1.08-4.72,1.74-7.05.17-.59.74-.97,1.35-.89.65.09,1.16.72,1.05,1.38-1.31,6.7-3.26,13.26-5.06,19.84-.43.77-.47,2.68-1.53,2.68-.09,0-.19-.01-.3-.05Z"/>
    <path class="cls-1" d="M55.69,62.4c-1.07-.4-.07-1.73-.07-2.53.45-2.37.95-4.73,1.71-7.02.13-.41.55-.68.98-.56.43.12.65.56.55.98-.31,1.48-.68,2.93-1.1,4.38-.38,1.39-.83,2.77-1.2,4.16-.05.36-.37.61-.7.61-.06,0-.12,0-.18-.02Z"/>
    <path class="cls-1" d="M101.76,26.8c.8-.23,1.66-.27,2.47-.54,6.68-2.09,11.47-7.95,13.46-14.46.25-.52,0-1.68.78-1.69.24.05.38.27.35.5-.16,1.25-.38,2.49-.61,3.72-1.32,7.58-8.16,13.95-15.81,14.71-.04,0-.09,0-.13,0-1.14,0-1.64-1.71-.52-2.25Z"/>
    <path class="cls-1" d="M118.93,32.22c7.25,0,6.33,9.95-.57,10.05-6.8-.55-5.5-9.5.57-10.05ZM116.72,38.89c.51.77,1.59.95,2.39,1.33.04.02.07.03.11.05,2.7-.39,4.18-4.32,1.31-5.56-.25-.07-.5-.11-.75-.11-2.05,0-4.06,2.27-3.06,4.29Z"/>
    <path class="cls-1" d="M112.36,64.28c-.08-.5.33-.98.84-.97,3.79-1.02,4.95-5.83,2.74-8.86-1.12-1.53-2.89-2.56-4.82-2.51-1.4-.09-1.48-2.27-.08-2.45,6.94-.77,11.01,9.73,5.39,13.9-.59.45-2.13,1.56-3.16,1.56-.42,0-.75-.18-.9-.67Z"/>
    <path class="cls-1" d="M134.03,13.97c-.01-.23.18-.45.41-.45s.44.17.45.41c.01.23-.18.45-.41.45s-.44-.17-.45-.41Z"/>
    <path class="cls-1" d="M133.09,40.08c-4.94-5.86-6.57-15.07-2.82-21.93,1.16-1.82,2.68-4.18,4.94-4.59,1.12.12,1.31,1.57.32,2.03-5.76,6.17-6.34,16.44-.18,22.52.93,1.12-.06,2.48-1.17,2.48-.37,0-.76-.15-1.09-.52Z"/>
    <path class="cls-1" d="M128.83,56.77c-4.79.05-6.27-3.02-5.67-6.1.82-4.21,5.57-8.43,11.12-4.58.79.44.87,1.59.24,2.19-.61.58-1.53.44-2.04-.16-1.03-.55-2.3-.71-3.43-.42-2.44.65-4.46,4.63-1.95,6.27.65.31,1.36.45,2.05.62,1.21.3.94,2.18-.27,2.18-.02,0-.04,0-.06,0Z"/>
    <path class="cls-1" d="M121.03,72.29c-1.14-.87-2.48-1.73-3.96-1.73-.98.08-2.39.39-2.7-.88-.18-2.92,4.57-1.54,5.77-.23.64.59,3.28,2.92,1.37,3.28-.24-.04-.41-.23-.47-.44Z"/>
    <path class="cls-1" d="M80.47,107.88c-24.75-13.79-47.49-30.91-71.74-45.49-1.43-.54-.83-2.77.73-2.32.53.2,1.07.37,1.59.61,7.46,3.3,13.93,8.37,20.74,12.79,12.91,8.27,25.62,16.85,38.51,25.14,4.19,2.65,8.64,5.03,12.63,7.94.44.58.14,1.5-.55,1.73-.16.06-.32.09-.48.09-.5,0-.99-.25-1.43-.48Z"/>
    <path class="cls-1" d="M80.45,107.87s.01,0,.02.01c0,0,0,0,0,0h-.02Z"/>
    <path class="cls-1" d="M80.37,107.82l.09.05s-.06-.03-.09-.05Z"/>
    <path class="cls-1" d="M37.26,125.87c-.66-3.61-.29-7.41.9-10.88.37-.99.62-3.12,2.11-2.59,1.04.52.36,1.56-.01,2.29-.8,2.16-1.41,4.57-1.39,6.86.02,1.31.12,2.61.21,3.93,0,.47-.27.89-.75.99-.06.01-.12.02-.19.02-.39,0-.77-.24-.9-.62Z"/>
    <path class="cls-1" d="M42.82,125.22c-.43-2.55-.15-10.61,2.09-12.06,1.32-.4,1.89,1.11.96,1.96-.54,1.57-.59,3.16-.73,4.79-.1,1.66-.12,3.32.05,4.98.05.59-.38,1.14-.95,1.26-.08.02-.16.03-.24.03-.55,0-1.05-.39-1.18-.95Z"/>
    <path class="cls-1" d="M48.6,123.62c-.52-2.15-.08-4.41.26-6.56.23-.95.37-2,1.07-2.73,1.27-1.17,3.01.8,1.73,1.93-.55,2.31-.77,4.75-.62,7.01.04.84-.6,1.31-1.25,1.31-.52,0-1.03-.3-1.19-.96Z"/>
    <path class="cls-1" d="M54.96,123.89c-.41-1.2-.38-10.29,2.18-7.52.12.35,0,.7-.27.91-.53,1.95-.44,4.1.24,6,.29.88-.41,1.47-1.1,1.47-.46,0-.9-.26-1.04-.87Z"/>
    <path class="cls-1" d="M60.14,123.35c-.12-1.69-1-7.29,2.02-6.39.72.34.96,1.22.6,1.87-.16,1.43.11,2.88.05,4.32-.02.81-.69,1.24-1.36,1.24-.59,0-1.17-.33-1.3-1.04Z"/>
    <path class="cls-1" d="M67.09,121.21c.17-.66.17-1.79,1.05-1.84.78.09.47,1.02.48,1.55-.12.77.05,2.24-1.01,2.32-.96-.11-.66-1.37-.53-2.02Z"/>
    <path class="cls-1" d="M112.69,83.01c-.93-.16-.8-1.09-.92-1.8-1.58-7.5-3.42-15.09-5.58-22.4-1.81-6.05-3.94-12-5.9-18.01-.14-.41.06-.87.47-1.02.41-.15.87.07,1.02.47.81,2.19,1.64,4.38,2.45,6.57,2.38,6.24,4.25,12.65,5.91,19.11,1.09,4.17,2.18,8.34,3.13,12.55.12,1.29,1.66,4.52-.55,4.52,0,0-.01,0-.02,0Z"/>
    <path class="cls-1" d="M127.67,72.61c1.05-4.2,3.17-8.09,4.69-12.15,2.1-5.43,4.42-10.75,6.86-16.03.36-.87,1.72-.85,2.02.06.23.64-.24,1.27-.39,1.85-3.46,9.11-7.31,18.21-12.15,26.65h0c-.11.14-.27.21-.43.21-.3,0-.61-.23-.6-.59Z"/>
    <path class="cls-1" d="M77.71,119.73c-12.09-5.2-25.15-7.45-37.84-10.68-.83-.18-.56-1.5.29-1.3,10.71,2.18,21.44,4.49,31.81,7.99,2.16.87,4.7,1.28,6.59,2.62.38.57-.09,1.38-.75,1.38-.03,0-.07,0-.1,0Z"/>
    <path class="cls-1" d="M84.97,100.42c-12.32-10.14-24.49-20.5-37.29-30.05-.75-.58.13-1.82.93-1.28,10.82,7.3,20.76,15.8,30.85,24.05,2.29,1.95,4.59,3.89,6.64,6.09.43.27.52.86.2,1.25-.17.2-.4.3-.63.3-.26,0-.53-.12-.71-.35Z"/>
    <path class="cls-1" d="M133.88,71.1c-.26-.14-.38-.48-.23-.75.37-.66.68-1.36.99-2.04,2.05-4.41,3.85-8.97,5.59-13.52.16-.42.64-.65,1.07-.48.41.16.66.65.48,1.07-.86,2.06-1.73,4.14-2.63,6.19-.91,2.05-1.9,4.05-2.87,6.07-.53,1.09-1.03,2.2-1.65,3.25-.11.18-.3.29-.5.29-.09,0-.17-.02-.25-.06Z"/>
    <path class="cls-1" d="M138.75,11.11c-10.25-3.23-21.12-4.68-31.79-4.25-1.56.1-1.75-2.29-.17-2.41,7.75-.37,15.57.09,23.14,1.82,3.43.79,6.61,2.31,9.8,3.71.27.09.45.36.43.64-.05.46-.38.59-.74.59-.23,0-.48-.05-.68-.11Z"/>
    <path class="cls-1" d="M139.4,11.29c-.38-.13-.62-.53-.57-.93.21-1.67.28-3.36.46-5.04.14-1.82,2.89-1.63,2.78.18-.28,1.56-.32,5.8-2.47,5.8-.07,0-.13,0-.21-.01Z"/>
    <path class="cls-1" d="M140.76,5.62c-5.29-2.02-10.93-2.78-16.49-3.61-5.73-.85-11.54-1.27-17.3-.45-.72.06-.82-1.08-.08-1.13,8.49-.93,17.08-.24,25.52.9,3.11.5,6.25,1.04,9.18,2.22.69.08,1.15.85.91,1.5-.15.48-.63.77-1.1.77-.22,0-.44-.06-.63-.2Z"/>
    <path class="cls-1" d="M105.94,6.07c-.49-1.3-2.51-4.41-.6-5.19.71-.25,1.5.2,1.66.94.23,1.24.4,2.5.45,3.77.12.36-.04.79-.39.96-.11.05-.22.08-.34.08-.34,0-.68-.22-.77-.56Z"/>
    <path class="cls-1" d="M52.58,48.49c-2.25-2.71-4.75-5.15-6.94-7.91-.31-.39-.23-1,.12-1.33,1.43-1.29,4.45,3.12,5.32,4.16.56,1.03,4.13,4.68,2.46,5.45-.09.03-.18.05-.27.05-.28,0-.56-.15-.69-.41Z"/>
    <path class="cls-1" d="M52.57,48.28c-.23-.29-.13-.77.19-.94,2.25-2.14,4.35-4.45,6.73-6.45,2.57-2.08,5.07-4.27,7.83-6.11.37-.25.88-.2,1.15.17.27.38.18.87-.18,1.15-.96.77-1.91,1.55-2.77,2.27-4.12,3.23-7.63,7.28-12.07,10.06-.11.07-.24.11-.37.11-.19,0-.38-.08-.51-.26Z"/>
    <path class="cls-1" d="M45.88,40.95c-3.3-2.06,13.23-11.23,15.11-12.48.38-.21.88-.05,1.09.32.59,1.28-2.14,1.86-2.8,2.52-4.18,2.77-7.86,6.21-11.91,9.16-.17.38-.57.61-.98.61-.18,0-.35-.04-.51-.14Z"/>
    <path class="cls-1" d="M67.49,36.13c-1.2-.93-1.94-2.62-3.04-3.64-1.04-1.14-2.07-2.3-3.05-3.48-.24-.28-.2-.72.05-.98.9-1.05,3.84,2.69,4.68,3.34.96,1.21,2.57,2.34,2.75,3.96-.04.51-.53.88-1.02.88-.12,0-.24-.02-.36-.07Z"/>
    <path class="cls-1" d="M50.11,44.56c-.65-.11-1.07-.88-.8-1.47.19-1.17.39-2.34.57-3.51.39-1.29.23-4.84,1.8-4.8,1.83.18.46,3.82.41,5.04-.23,1.2-.5,2.4-.71,3.61.04.61-.48,1.16-1.09,1.16-.07,0-.13,0-.2-.02Z"/>
    <path class="cls-1" d="M56.86,44.48c-.15-.11-.27-.27-.28-.46.02-1.24.35-2.48.52-3.71.69-3.21.36-6.7,1.76-9.72.16-.32.52-.5.88-.44,1.64.47-.16,5.63-.34,6.96-.52,2.24-.9,4.52-1.54,6.73-.05.36-.34.74-.68.74-.1,0-.2-.03-.31-.1Z"/>
    <path class="cls-1" d="M64.64,38.26c-.41-.08-.64-.46-.6-.86.29-1.54-.05-3.36.65-4.75.52-.48,1.43-.05,1.37.66-.05.77-.12,1.54-.23,2.3-.26.83.11,2.65-1.11,2.65-.02,0-.05,0-.07,0Z"/>
    <path class="cls-1" d="M64.05,37.39s0,.01,0,.02c0,0,0,0,0,.01,0-.04,0-.03,0-.03Z"/>
  </g>
</svg>