<?xml version="1.0" encoding="UTF-8"?>
<svg id="Layer_2" data-name="Layer 2" xmlns="http://www.w3.org/2000/svg" viewBox="0 0 444.97 112.74">
  <defs>
    <style>
      .cls-1 {
        <!-- fill: #2a87d5; -->
        fill: #ffffff;
        stroke-width: 0px;
      }
    </style>
  </defs>
  <g id="Vector_layer" data-name="Vector layer">
    <path class="cls-1" d="M135.6,47.64c-27.78-5.99-55.32-13.27-82.25-22.38-13.54-4.7-27.04-9.64-39.9-15.98C8.95,6.86,3.88,4.91.14,1.38-.2.89.12.19.66.04c.36-.1.65.03.89.24,21.24,9.94,43.58,17.23,66.01,23.98,33.75,10.21,68.21,17.92,102.96,23.84,34.04,6.3,68.48,9.67,102.97,10.82,45.4,2.07,91.2,3.57,136.48-.49,11.01-.88,21.95-2.46,32.87-4.06,1.01-.15,1.97.59,2.11,1.6.14,1.02-.59,1.96-1.59,2.11-8.82,1.31-17.66,2.41-26.49,3.62-18.14,3.04-36.49,4.57-54.87,5.19-47,1.23-94.15-.28-140.93-5.05-28.69-3.38-57.21-8.23-85.47-14.19Z"/>
    <path class="cls-1" d="M24.4,65.58c-.39-.57-.08-1.48.16-2.05.44-2.16.79-4.25,1.06-6.42,1.15-14.06,2.53-28.17,1.98-42.29-.02-.54.43-1.02.96-1.09.58-.08,1.18.36,1.24.95.25,2.59.47,5.18.6,7.78.74,3.11-.98,47.83-6.01,43.13Z"/>
    <path class="cls-1" d="M25.32,66.21c-.68-.52-.5-1.59.23-1.93,1.17-1.15,2.37-2.25,3.52-3.42,10.13-10.53,18.64-22.59,25.67-35.34,1.13-1.53,3.7-.23,3.15,1.6-.99,3.28-3.03,6.14-4.72,9.09-3.67,5.9-7.38,11.82-11.89,17.13-1.84,2.12-13.78,14.73-15.95,12.88Z"/>
    <path class="cls-1" d="M53.5,75.63c-.87-.24-1.31-1.21-1.01-2.01.21-3.55.4-6.67.73-10.13,1.35-11.74,3.38-23.53,3.74-35.31.25-2.1,3.45-2.12,3.7,0,.43,8.11-.08,16.3-1.19,24.34-1.01,6.65-2.26,13.25-3.61,19.82-.31,1.33-.4,3.73-2.35,3.28Z"/>
    <path class="cls-1" d="M54.12,75.51c-.34-.45-.29-1.11.12-1.5.17-.16.38-.27.6-.3,10.38-11.36,17.41-25.18,24.98-38.44.41-.65,1.22-.93,1.93-.62,1.77.87.46,2.98.02,4.32-1.52,3.87-3.23,7.67-5.34,11.26-1.66,3.52-18.75,29.03-22.32,25.28Z"/>
    <path class="cls-1" d="M78.55,80.65c.52-10.76,1.19-21.65,1.31-32.48.05-3.27.11-6.54.32-9.81.03-.82.6-1.52,1.44-1.63,2.29-.17,1.88,2.61,2.09,4.15.39,6.07.25,12.16.06,18.24-.09,2.35-.35,26.66-5.21,21.53Z"/>
    <path class="cls-1" d="M82.81,83.19c-.65-.18-1.01-.98-.64-1.55.79-1.56,1.74-3.04,2.65-4.53,6.06-9.5,11.77-19.2,17.27-29.03,1.88-2.98,3.5-6.16,5.21-9.21,1.07-1.8,3.99-.59,3.38,1.45-.56,1.62-1.37,3.13-2.08,4.68-5.88,13.97-14.71,26.47-24.66,37.81.02-.04.06-.07.07-.12-.23.41-.73.64-1.21.51Z"/>
    <path class="cls-1" d="M112.33,88.69c-1.79-10.32-2.2-20.84-3.13-31.26-.38-4.97-1.03-9.93-1.07-14.93,0-1.7,2.5-2.05,2.94-.38,2.22,8.94,2.74,18.22,3.54,27.36.26,6.34.72,12.75.14,19.07-.01,1.46-2.22,1.62-2.42.14Z"/>
    <path class="cls-1" d="M113.2,90.26c-.38-.65-.12-1.54.56-1.87,5.09-7.15,9.61-14.66,13.63-22.47,2.05-4.1,3.92-8.28,5.83-12.44,1.06-1.67,1.43-5.78,4.04-5.26.93.26,1.56,1.29,1.26,2.23-1.1,3.31-2.56,6.5-3.94,9.7-2.87,6.42-6.06,12.72-9.93,18.61-2.74,4.11-5.59,8.27-9.2,11.67-.54.75-1.81.66-2.25-.17Z"/>
    <path class="cls-1" d="M142.19,94.19c-.71-1.45-.4-3.22-.59-4.8-.22-4.87-.4-9.74-.67-14.61-.65-8.82-.79-17.78-2.82-26.41-.42-1.6,2.04-2.27,2.47-.66,1.4,6.32,3.1,12.6,3.73,19.07.68,6.56.93,13.15.89,19.74-.08,1.76.34,10.15-3,7.66Z"/>
    <path class="cls-1" d="M144.31,95.91c-.65-.39-.87-1.25-.48-1.9,1.42-3.22,2.98-6.39,4.72-9.46,5.94-10.67,11.71-21.53,15.95-33,.34-.78,1.27-1.15,2.06-.82,2.38,1.17-.71,4.69-1.06,6.48-3.8,10.37-8.27,20.54-13.82,30.04-1.26,1.72-5.02,10.1-7.36,8.66Z"/>
    <path class="cls-1" d="M171.86,98.39c1.28-9.78-1.59-19.69-2.57-29.46-.44-5-1.67-9.84-2.7-14.7-.14-.67.32-1.36.95-1.55,3.3-1.83,6.07,20.05,6.38,22.67,1,7.25.43,14.78,1.19,21.96.78,2.15-2.55,3.26-3.25,1.08Z"/>
    <path class="cls-1" d="M174.17,99.23c-.72-.49-.76-1.63-.09-2.16,1.78-2.96,3.86-5.78,5.69-8.69,5.94-9.02,10.4-18.88,14.98-28.64.26-.56.99-.77,1.53-.56,2,.94-.61,4.01-.91,5.49-3.16,8.59-8.09,16.67-12.83,24.41-1.79,2.81-3.47,5.63-5.39,8.35-.75.95-1.53,2.79-2.99,1.81Z"/>
    <path class="cls-1" d="M200.52,100.22c-.34-14.18-3.14-28.18-6.33-41.95-.33-1.69,2.26-2.33,2.75-.66,1.82,6.48,3.49,12.98,4.66,19.6,1.01,7.64,2.97,15.61,1.52,23.26-.61,1.08-2.22.91-2.6-.26Z"/>
    <path class="cls-1" d="M202.36,100.36c-.17-.37-.1-.81.14-1.13,1.56-2.8,3.24-5.53,4.76-8.36,3.18-5.75,5.67-11.38,8.16-17.35,1.23-2.91,2.44-5.83,3.59-8.78.8-1.49.92-4.54,3.21-4.16,2.8.86.12,4.94-.23,6.81-1.56,4.51-3.39,8.93-5.51,13.21-2.53,5.11-5.28,10.09-8.25,14.78-1.04,1.32-3.98,7.51-5.87,4.97Z"/>
    <path class="cls-1" d="M232.6,103.28c-2.15-13.25-6.25-26.07-9.86-38.98-.17-.55.1-1.16.63-1.4.58-.26,1.29,0,1.55.57,1.29,2.78,2.41,5.62,3.37,8.53,2.99,8.82,5.35,17.9,6.51,27.15.13,1.33.38,2.73.14,4.06-.36,1.02-1.91,1.08-2.34.07Z"/>
    <path class="cls-1" d="M234.64,105.27c-.4-.64,0-1.49.24-2.11,1.8-4.17,4.17-8.06,6.13-12.16,4.11-8.76,6.9-18.07,10.14-27.16.62-1.59,3.07-.85,2.68.83-1.89,7.48-3.84,15.03-7.13,22.03-2.7,5.53-5.61,10.99-8.96,16.16-.7.77-1.92,3.73-3.09,2.41Z"/>
    <path class="cls-1" d="M265.9,103.37c-2.22-13.34-5.85-26.51-11.91-38.61-.62-1.24,1.21-2.4,2.07-1.29,5.14,6.62,8.01,14.71,10.11,22.75,1,4.01,1.77,8.09,2.15,12.14-.04,1.63,1.22,6.32-1.47,6.06-.51-.09-.89-.56-.95-1.06Z"/>
    <path class="cls-1" d="M267.2,104.31c7.59-11.85,14.48-24.42,18.29-38.02.43-1.25,2.45-.65,2.1.65-2.68,9.76-6.32,19.16-11,28.12-1.54,2.46-5.72,11.62-8.72,11.28-.9-.17-1.36-1.31-.68-2.04Z"/>
    <path class="cls-1" d="M295.6,106.45c-1.73-14-4.26-28.21-10.1-41.18-.65-1.54,1.59-2.6,2.34-1.07,3.86,7.63,7.09,15.93,9,24.23,1.25,5.29,1.94,10.21,1.99,15.5-.08,1.39.13,3.75-1.87,3.62-.62-.06-1.17-.5-1.35-1.1Z"/>
    <path class="cls-1" d="M297.34,109.11c-.52-.32-.6-1.16-.01-1.52.05-.03.1-.05.15-.07,8.53-12.69,13.06-27.6,16.81-42.29.36-1.49,2.68-1.13,2.5.42-2.03,12.83-5.8,25.77-12.6,36.91-1.22,1.75-4.45,7.47-6.85,6.56Z"/>
    <path class="cls-1" d="M327.22,108.88c-.95-7.73-4.18-15.07-6.28-22.56-2.07-6.6-4.36-13.1-7.08-19.45-.3-.81-.97-1.88-.13-2.57.99-.77,1.95.36,2.46,1.16,4.93,9.27,8.49,19.28,11.36,29.36,1.26,4.58,2.29,9.24,2.53,13.99.11.85-.49,1.66-1.38,1.69-.91.05-1.6-.79-1.48-1.7,0,0-.01.07-.01.07Z"/>
    <path class="cls-1" d="M328.74,111.5c-.43-.41-.61-1.02-.47-1.6.14-.77.9-.97,1.22-1.6,1.66-2.68,3.05-5.51,4.29-8.13,4.01-8.75,7.27-17.76,10.33-26.87.69-2.18,1.26-4.39,1.64-6.65.11-.62.81-1,1.4-.86.65.15.96.78.86,1.4-.57,3.14-1.1,6.28-1.78,9.4-2.2,9.98-5.78,19.65-10.89,28.51-1.17,2.01-2.46,3.94-3.89,5.77-.39,1.1-1.88,1.41-2.7.63Z"/>
    <path class="cls-1" d="M361.87,111.4c-1.67-.59-1.07-2.91-1.54-4.29-2.47-12.31-5.18-24.87-10.64-36.1-.63-1.79-4.06-4.7-2.18-6.33.68-.56,1.77-.48,2.32.23,2.11,2.79,3.73,5.92,5.29,9.04,3.69,8.3,6.57,17.05,8.15,26.01.2,2.21,2.27,11.93-1.4,11.44Z"/>
    <path class="cls-1" d="M363.13,111.56c-.25-.53-.12-1.1.2-1.49,1.34-3.24,2.71-6.47,4.01-9.73,4.38-10.9,7.68-22.23,11.16-33.3.28-.8,1.19-1.24,1.99-1.04,2.37.77.81,3.77.65,5.52-.82,3.51-1.71,7.05-2.77,10.48-.92,2.99-11.2,35.74-15.25,29.57Z"/>
    <path class="cls-1" d="M396.96,110.81c-2.9-14.65-9.02-28.24-16.13-41.21-.73-1.58,1.59-2.86,2.52-1.36,5.36,9.47,10.39,19.09,13.95,29.38,1.36,4.23,2.57,8.59,2.73,13.05.32.94-.43,2.04-1.46,2.08-1.01.05-1.83-.98-1.61-1.93Z"/>
    <path class="cls-1" d="M399.52,112.1c-.87-.48-1.03-1.61-.52-2.35,2.54-11.05,4.12-22.32,5.96-33.51.62-4.04,1.16-8.09,1.99-12.1.16-.79.97-1.32,1.75-1.24.81.08,1.43.76,1.47,1.56.21,4.22-.15,8.44-.6,12.64-1.08,9.91-2.89,19.77-5.87,29.3-.74,1.68-1.59,6.93-4.18,5.7Z"/>
    <path class="cls-1" d="M28.68,54.11c-.17-.52.25-.99.76-1.04,3.78-1.4,7.66-2.61,11.62-3.36.46-.07.91.19,1.05.64.32,1.63-2.68,1.74-3.75,2.25-2.85.95-5.76,1.51-8.7,2.02-.4.15-.86-.12-.98-.51Z"/>
    <path class="cls-1" d="M28.1,48.3c-.19-.95,1.11-1.07,1.73-1.4,4.02-1.51,8.13-2.79,12.3-3.79,1.68-.31,2.29,2.19.67,2.71-1.79.54-14.2,4.14-14.69,2.48Z"/>
    <path class="cls-1" d="M28.22,41.2c-.1-.6.33-1.11.86-1.2.72-.34,1.47-.67,2.21-.95,4.1-1.63,8.29-3.09,12.61-4.04,1.86-.43,3.73-.85,5.6-1.23.55-.12,1.12.26,1.29.78.17.53-.09,1.16-.6,1.38-2.16,1-21.83,8.38-21.97,5.25Z"/>
    <path class="cls-1" d="M29.95,33.92c-.16-.5.13-1.06.63-1.21,4.54-1.47,8.89-3.48,13.47-4.81,3.02-.9,6.09-1.61,9.11-2.49,1.3-.36,1.91,1.51.63,1.97-7.46,2.65-15.11,4.71-22.63,7.18-.49.18-1.06-.14-1.21-.63Z"/>
    <path class="cls-1" d="M29.4,27.62c-.27-.83.35-1.69,1.21-1.74,2.21-.67,4.31-1.66,6.52-2.35,2.93-1.02,5.86-1.79,8.82-2.47.99-.21,2.48-.97,2.96.38.38,1.31-1.14,1.61-2.04,1.96-2.79,1.14-5.55,2.15-8.43,3-2.38.76-4.82,1.28-7.19,2.03-.71.37-1.61-.06-1.85-.8Z"/>
    <path class="cls-1" d="M28.09,20.8c-.3-1.43,1.86-1.32,2.73-1.87,2.28-.86,4.67-1.34,7.07-1.75.42-.09.85.19.97.59.14.45-.12.93-.56,1.08-2.67,1.02-5.51,1.74-8.29,2.31-.67.2-1.62.56-1.93-.35Z"/>
    <path class="cls-1" d="M81.05,73.74c-.22-.46.06-1.09.6-1.15,2.58-.96,5.09-2.12,7.64-3.15.9-.36,2.25-1.07,2.84.12.29.59,0,1.32-.57,1.6-2.87,1.31-5.98,2.08-9.04,2.85-.51.19-1.18.36-1.47-.26Z"/>
    <path class="cls-1" d="M82.41,67.64c-1.46-.28-1.24-2.55.23-2.57,2.14-.79,4.21-1.8,6.37-2.57,1.96-.71,3.99-1.19,6-1.72.61-.16,1.25.08,1.52.66.29.62.02,1.38-.6,1.68-4.27,2.07-8.91,3.6-13.52,4.51Z"/>
    <path class="cls-1" d="M83.12,58c-.15-.47.17-.95.63-1.03,5.84-1.68,11.62-3.56,17.44-5.31.66-.14,1.33.3,1.53.92.46,1.89-2.05,1.99-3.29,2.42-3.18.86-6.33,1.52-9.4,2.26-1.3.32-2.48.62-3.77.89-.95.01-2.61.97-3.14-.16Z"/>
    <path class="cls-1" d="M81.98,50.89c-.11-.59.41-1.23,1.04-1.15,2.43-.56,4.81-1.29,7.23-1.92,3.21-.89,6.43-1.8,9.64-2.7,1.43-.21,3.81-1.87,4.65,0,.43,1.87-2.13,1.89-3.34,2.33-2.48.67-4.93,1.45-7.43,2.06-3.18.77-6.32,1.51-9.55,2.01-.81.09-2.02.5-2.25-.63Z"/>
    <path class="cls-1" d="M81.12,45.36c-.21-.59.25-1.3.85-1.35,1.18-.36,2.34-.82,3.52-1.19,5.22-1.65,10.55-2.94,15.76-4.62.66-.19,1.36.16,1.57.82.42,1.57-1.55,1.77-2.6,2.17-1.74.58-3.49,1.15-5.25,1.67-3.73,1.09-7.48,2.11-11.28,2.92-.88.11-2.16.78-2.57-.41Z"/>
    <path class="cls-1" d="M80.53,38.13c-.35-.77.21-1.56.98-1.7,2.59-1.48,5.56-2,8.5-2.1,1.12-.09,1.54,1.58.5,2.02-2.57,1.35-5.4,2.06-8.28,2.27-.61.28-1.39.17-1.7-.5Z"/>
    <path class="cls-1" d="M142.43,84.95c-.36-1.34.99-1.58,1.94-1.85,2.52-.62,4.97-1.31,7.48-1.85.59-.07,1.16.23,1.34.81.45,2.18-3.37,1.89-4.71,2.47-1.46.37-2.9.79-4.37,1.13-.65.3-1.45.01-1.68-.72Z"/>
    <path class="cls-1" d="M143.23,78.89c-1.12-.51-.74-2.35.51-2.35,3.73-.51,7.34-1.79,11.06-2.42,1.48-.27,2.02,1.93.59,2.38-3.64,1.15-7.41,1.74-11.15,2.45-.34.1-.69.1-1.01-.06Z"/>
    <path class="cls-1" d="M142.2,72.68c-.15-.48.16-1.05.67-1.12,1.05-.28,2.08-.67,3.12-.97,4.09-1.14,8.13-2.44,12.23-3.52.52-.13,1.06.07,1.3.57.57,1.3-1.12,1.68-1.97,2.04-1.68.66-3.43,1.11-5.18,1.54-2.97.74-5.99,1.28-8.97,1.99-.46.24-1.05-.03-1.21-.52Z"/>
    <path class="cls-1" d="M141.74,66.48c-.03-1.01,1.01-1.07,1.73-1.25,5.85-1.5,11.57-3.44,17.43-4.93.62-.18,1.29.14,1.49.77.54,1.84-3.23,2.17-4.43,2.82-4.31,1.34-8.71,2.37-13.14,3.24-1.03.13-2.87.92-3.09-.66Z"/>
    <path class="cls-1" d="M141.6,60.32c-.15-.87.64-1.65,1.48-1.52,2.75-.67,5.43-1.57,8.15-2.35,2.64-.79,5.28-1.6,7.93-2.33,1.48-.4,2.95-.85,4.42-1.28.53-.15,1.11.08,1.35.59.26.54.03,1.25-.53,1.49-4.97,2.24-10.2,3.79-15.49,5.09-1.8.45-3.6.89-5.43,1.22-.74.44-1.75-.1-1.9-.93Z"/>
    <path class="cls-1" d="M140.13,55.11c-.25-.73.32-1.57,1.09-1.6.96-.37,1.93-.73,2.89-1.1,3.47-1.38,7.04-2.49,10.72-3.11.52-.12,1.05.24,1.2.73.22.66-.25,1.23-.86,1.41-2.2.98-4.42,1.92-6.71,2.65-2.16.71-4.37,1.28-6.6,1.75-.65.35-1.52-.01-1.74-.73Z"/>
    <path class="cls-1" d="M202.35,90.17c-.24-.74.37-1.51,1.1-1.51,1.13-.49,2.32-.87,3.51-1.16,1.46-.35,2.93-.63,4.39-.99.48-.14,1,.12,1.16.6.16.5-.13.99-.6,1.16-1.17.44-2.32.95-3.51,1.32-1.39.56-2.85.95-4.32,1.22-.61.39-1.5.04-1.72-.65Z"/>
    <path class="cls-1" d="M200.72,84.34c.26-1.44,2.2-1.35,3.31-1.76,2.7-.63,5.39-1.29,8.12-1.72,1.45-.28,2.15,1.87.79,2.47-.91.39-1.8.72-2.76.96-1.7.24-9.63,2.99-9.46.05Z"/>
    <path class="cls-1" d="M199.84,78.36c-.17-.94.62-1.75,1.55-1.7,1.51-.18,2.94-.79,4.43-1.1,3.45-.87,6.97-1.46,10.44-2.27.61-.19,1.49-.43,1.75.38.14.45-.12.92-.55,1.07-2.22.79-4.39,1.71-6.64,2.41-2.97,1.05-6.07,1.59-9.11,2.33-.8.32-1.72-.32-1.86-1.13Z"/>
    <path class="cls-1" d="M199.11,71.95c-.5-1.18,2.4-1.43,3.17-1.85,5.23-1.46,10.51-2.79,15.63-4.6.54-.19,1.14.15,1.31.68.35,1.46-1.6,1.52-2.54,1.93-1.8.63-3.67,1.24-5.52,1.67-3.75.83-7.39,2.23-11.24,2.52-.31.1-.67-.04-.81-.34Z"/>
    <path class="cls-1" d="M196.22,66.68c-.15-.82.29-1.65,1.04-2.01.55-.26,1.17-.22,1.68.05,6.75-1.29,13.18-3.55,19.98-4.42,1.06-.19,1.45,1.39.42,1.72-6.44,2.69-13.25,3.77-19.9,5.57-.97,1.15-3,.57-3.22-.92Z"/>
    <path class="cls-1" d="M196.18,61.26c-.32-1.04.62-1.71,1.56-1.73,1.48-.2,6.65-2.87,7.23-.96.66,1.95-5.41,2.67-6.76,3.32-.71.5-1.75.22-2.02-.64Z"/>
    <path class="cls-1" d="M266.72,96.62c-.27-.64.1-1.38.78-1.57,2.26-.69,4.42-1.67,6.64-2.47,1.31-.51,2.12,1.43.83,1.99-2.16,1.09-4.44,1.91-6.72,2.68-.59.21-1.26-.01-1.52-.63Z"/>
    <path class="cls-1" d="M265.78,89.96c-.2-.73.36-1.42,1.1-1.46,2.32-.65,4.4-1.51,6.66-2.24,2.2-.74,4.48-1.24,6.61-2.18.47-.2,1.02.04,1.22.5.4,1.03-.88,1.37-1.55,1.73-2.92,1.52-6.01,2.65-9.21,3.47-1.09.31-2.22.54-3.28.96-.62.28-1.38-.11-1.56-.77Z"/>
    <path class="cls-1" d="M263.99,84.42c-.2-.73.31-1.46,1.05-1.57,2.39-.73,4.68-1.8,7.09-2.49,3.07-1.01,6.24-1.85,9.29-2.88.7-.25,1.73-.76,2.14.18.2.48-.04,1.01-.5,1.22-4.32,1.98-8.76,3.68-13.3,5.08-1.34.5-2.74.79-4.07,1.29-.67.31-1.51-.13-1.69-.83Z"/>
    <path class="cls-1" d="M261.93,79.12c-.34-.81.12-1.89,1.02-2.08,2.76-.86,5.39-2.15,8.15-3.01,4.22-1.5,8.65-2.38,12.79-4.1.5-.21,1.1.03,1.3.54.46,1.4-1.5,1.61-2.38,2.12-1.8.72-3.57,1.5-5.35,2.26-3.81,1.69-7.77,2.98-11.71,4.34-1.25.41-3.03,1.67-3.83-.08Z"/>
    <path class="cls-1" d="M260.13,73.91c-.46-1.37,1.4-1.49,2.22-2.05,3.92-1.95,7.96-3.67,12.12-5.04,2.06-.71,4.06-1.58,6.16-2.16.5-.15,1.04.14,1.24.61.23.54-.05,1.14-.56,1.38-2.24,1.03-4.52,1.98-6.78,2.97-3.55,1.59-7.2,3-10.91,4.16-1.09.12-2.79,1.47-3.49.14Z"/>
    <path class="cls-1" d="M258.79,67.97c-.29-.69.44-1.03.96-1.23,1.36-.57,7.56-4.33,8.33-2.59.77,1.69-6.18,3.34-7.44,3.89-.6.2-1.47.76-1.84-.07Z"/>
    <path class="cls-1" d="M327.2,100.26c-.15-.36.02-.84.4-.98,1.53-.63,3.03-1.37,4.57-1.99,1.62-.66,3.21-1.4,4.79-2.14.34-.16.77,0,.95.32.6,1.26-2.06,1.81-2.74,2.36-1.24.51-7.33,3.95-7.97,2.43Z"/>
    <path class="cls-1" d="M325.22,94.23c-.32-.92.9-1.15,1.5-1.47,5.13-2.09,10.4-3.85,15.36-6.33,1.1-.51,1.98,1.22.9,1.8-4.54,2.58-9.45,4.43-14.46,5.88-.9.24-1.83.51-2.75.55-.23-.04-.45-.22-.54-.43Z"/>
    <path class="cls-1" d="M323.16,87.96c-.2-.5.12-1.05.61-1.15,5.89-2.35,11.8-4.64,17.76-6.8.61-.24,1.31.04,1.57.65.64,1.84-2.81,2.32-3.97,3.09-4.8,1.98-9.76,3.57-14.84,4.65-.42.19-.95,0-1.14-.44Z"/>
    <path class="cls-1" d="M321.02,80.44c-.16-.62.27-1.34.93-1.4,2.7-.62,5.59-1.79,8.17-2.57,3.27-1.12,6.49-2.38,9.74-3.57,1.29-.47,2.48-.81,3.67-1.24.47-.17,1,.02,1.2.5.23.54-.13,1.09-.64,1.27-4.15,2.23-8.56,3.94-13.04,5.39-2.75.92-5.57,1.59-8.37,2.3-.63.35-1.47.05-1.66-.67Z"/>
    <path class="cls-1" d="M317.66,74.96c-.19-.7.32-1.35,1.01-1.44,5.59-1.76,10.83-4.5,16.25-6.72,1.98-.86,4.03-1.56,6.09-2.21.73-.35,1.72-.4,2.09.49.25.61-.04,1.35-.66,1.6-5.72,2.7-11.5,5.09-17.49,7.13-1.87.64-3.75,1.24-5.62,1.87-.65.3-1.47.03-1.67-.71Z"/>
    <path class="cls-1" d="M340.61,73.83c-.47-1.04,1.64-1.69,2.32-2.16.93-.29,2.31-1.62,3.12-.58.23.39.09.92-.3,1.15-1.36.79-2.8,1.47-4.33,1.86.03-.02.05-.02.08-.04-.31.16-.71.09-.89-.23Z"/>
    <path class="cls-1" d="M396.02,99.56c-1.07-.25-1.28-1.8-.32-2.32.81-.34,1.56-.81,2.35-1.2,1.37-.61,3.76-2.24,4.73-.32,1.01,2.45-5.08,3.83-6.76,3.84Z"/>
    <path class="cls-1" d="M392.31,91.92c-.05-.31.13-.63.39-.77,3.83-1.82,7.77-3.65,11.66-5.28.67-.39,1.59-.17,1.98.52.85,1.55-1.04,2.26-2.11,2.88-1.49,1.22-11.13,5.23-11.92,2.66Z"/>
    <path class="cls-1" d="M390.16,85.06c-.23-.83.39-1.63,1.22-1.72,2.16-.58,4.18-1.57,6.27-2.34,3.12-1.22,6.29-2.14,9.36-3.43,1.24-.49,2.03,1.36.79,1.9-4.69,2.1-9.3,4.44-14.23,5.95-1.23.41-2.85,1.3-3.42-.37Z"/>
    <path class="cls-1" d="M386.42,77.83c-.11-1.66,1.36-1.44,2.45-1.83,4.52-1.65,8.94-3.57,13.38-5.4,1.39-.58,2.81-1.08,4.19-1.68.78-.47,1.88-.65,2.4.28.37.62.18,1.55-.49,1.89-1.43.74-2.8,1.56-4.24,2.28-4.35,2.12-8.95,3.73-13.61,5.04-1.36.24-3.64,1.49-4.09-.58Z"/>
    <path class="cls-1" d="M383.38,72.15c-.21-.8.42-1.59,1.24-1.58,3.14-.93,6.1-2.37,9.13-3.61,4.2-1.68,8.4-3.38,12.7-4.76,1.28-.38,2.08,1.52.9,2.16-5.53,3.12-11.61,5.15-17.58,7.23-1.54.56-3.13.95-4.69,1.39-.68.31-1.51-.13-1.7-.84Z"/>
    <path class="cls-1" d="M379.89,67.8c-.23-.54.09-1.16.61-1.34,2.42-1.43,5.02-2.54,7.66-3.54,1.32-.23,3.44-2.18,4.36-.49.44,1.06-.67,1.59-1.47,1.93-1.69.86-10.05,5.58-11.16,3.44Z"/>
    <path class="cls-1" d="M59.32,38.18c-1.85-.49-3.03-3.31-.75-4.08,1.35-.43,2.83.23,4.22-.09,2.41-.51,5.22-1.63,6.19-4.07.21-.85,1.16-1.35,1.98-1.07,2.69,1.34-.51,5.1-1.81,6.44-2.4,2.52-6.42,3.94-9.82,2.88Z"/>
    <path class="cls-1" d="M64.18,56.02c-2.69-4.84.12-12.25,5.81-13.17,1.94-.44,4.84-.74,5.66,1.57,1.04,1.35-.74,3.2-2.13,2.23-.91-.21-1.56-1.1-2.53-1.06-4.84.68-6.45,6.84-2.23,9.57,1.15,1.19.1,3.31-1.53,3.18-1.39-.02-2.42-1.17-3.04-2.32Z"/>
    <path class="cls-1" d="M110.84,53.88c-.43-.8.02-1.79.84-2.1.97-.23,2.01.03,2.98-.34,3.01-1,5.55-3.36,7.35-5.92.62-.82.4-2.51,1.69-2.55,1.15.1,1,1.48.75,2.28-2.07,4.18-5.25,8.73-10.19,9.5-1.16.21-2.75.38-3.43-.87Z"/>
    <path class="cls-1" d="M112.92,73.82c-.72-.19-1.11-1.07-.69-1.71.21-.36.63-.48,1-.56,1.11-.24,2.49-.73,3.41-1.29,3.41-1.55,3.41-6.79-.62-7.42-.95-.24-1.92-.24-2.89-.37-1.19-.18-1.32-1.98-.18-2.34,3.02-.94,7.26.05,8.5,3.23,1.69,5.35-2.54,11.97-8.54,10.47Z"/>
    <path class="cls-1" d="M127.98,63.17c-2.75-2.55-1.86-8.9,1.09-11.08,1.61-1.33,4.19-2.12,6.1-.98.56.35.88,1.08.57,1.71-.33.67-1.05.82-1.73.91-2.17,0-4.42,1.23-4.72,3.55-.11,1.26.09,2.65.95,3.62,1.02,1.42-.83,3.28-2.26,2.28Z"/>
    <path class="cls-1" d="M170.9,64.62c-1.08-.54-1.05-2.23.03-2.73.4-.23.86-.32,1.3-.49,1.2-.59,2.17-1.21,3.13-2.09.83-.87,1.6-1.69,1.89-2.86.06-.99.49-2.49,1.75-2.27,1.88.56.53,2.65.17,3.85-.78,2.13-5.83,7.84-8.26,6.59Z"/>
    <path class="cls-1" d="M181.27,86.19c-1.35-1.37-3.07-2.05-4.91-2.51-.62-.27-1.27-.44-1.94-.58-1.1-.28-1-1.95.12-2.1,2.14-.23,4.07.04,5.99.94,1.11.5,2.36.88,3.07,1.96,1.19,1.68-.69,3.48-2.34,2.28Z"/>
    <path class="cls-1" d="M186.29,76.49c-4.14-3.48-3.84-10.5,1.08-13.14,2.18-1.28,6.85-1,6.92,2.2-.12,1.05-1.5,1.74-2.23.84-1.96-.54-4.12.15-5.35,1.78-1.09,2-.16,4.68,1.47,6.12,1.28,1.23-.47,3.28-1.88,2.2Z"/>
    <path class="cls-1" d="M245.87,73.42c-3.92-1.71-6.87-6.71-4.74-10.79.51-.92,1.89-2.7,2.8-1.23.23.5-.03.99-.44,1.27-.28.47-.51,1.09-.49,1.62.19,3.01,2.16,6.96,5.59,6.86,1.58-.06,1.83,2.31.26,2.58-1,.15-2.05.11-2.99-.3Z"/>
    <path class="cls-1" d="M228.32,82.22c-.44-.91.01-2.19,1.04-2.47.48-.07.89-.28,1.27-.58,1.78-1.71.93-4.83-.76-6.26-.62-.65-1.56-.48-2.37-.57-1.04-.07-1.87-.96-1.93-1.99.07-3.22,4.69-2.5,6.46-1.11,4.05,3.02,4.6,10.19,0,12.95-1.1.93-2.86,1.68-3.72.03Z"/>
    <path class="cls-1" d="M238.79,94.79c-3.04-2.89-2.34-9.82,1.92-11.28,1.42-.64,3.7-1.05,4.57.6.34,1.17-1.19,1.82-1.86.84-1.33-.1-2.81,1.03-3.59,2.03-.66,1.59-1.04,4.02.27,5.36,2.1.9.5,3.84-1.32,2.46Z"/>
    <path class="cls-1" d="M298.62,81.06c-2.16-1.02-3.56-3.82-3.12-6.17.73-3.99,6.38-6.57,9.47-3.54,3.83,4-.28,11.58-5.65,9.68-.22.1-.47.12-.7.03ZM299.17,79.27c.76-.97,1.91.04,2.89-.43,3.22-.82,2.8-5.68-.22-6.46-2.7-.84-4.11,1.28-4.12,3.73.09,1.13.1,2.84,1.45,3.16Z"/>
    <path class="cls-1" d="M303.3,98.26c-2.35-5.08-6.13-1.72-6.69-4.27.19-2.82,4.92-.79,6.23.2,1.13,1.06,2.84,2.37,2.68,4.07-.23,1.15-1.99,1.16-2.22,0Z"/>
    <path class="cls-1" d="M312.04,75.18c-3-1.9-5.85-5.32-5.18-9.08.04-.62.39-1.51,1.16-1.18.73.34.23,1.2.4,1.8.53,2.79,1.74,5.71,3.96,7.54.73.22.35,1.28-.34.92Z"/>
    <path class="cls-1" d="M369.14,96.41c-2.25-2.44-5.74-2.82-8.87-2.44-.36.06-.73-.08-.85-.45-.25-.98,1.08-1.04,1.73-1.25,3.45-1.11,8.78.21,10.12,3.81-.05,1.13-1.72,1.39-2.12.32Z"/>
    <path class="cls-1" d="M374.16,77.56c-4.05-1.8-7.16-6.96-5.59-11.34.21-.51.68-1.38,1.37-1.02.65.37.57,1.21.72,1.85.55,2.86,1.43,5.45,3.43,7.58.41.39.85.75,1.29,1.1.99.8-.1,2.42-1.22,1.84Z"/>
    <path class="cls-1" d="M374.39,77.81c-.63-.18-1.16-.5-1.62-.96-.81-.83.06-2.33,1.18-2.05.93.21,1.72.81,2.61,1.1,1.01.16,2.67.97,1.64,2.1-1.02.6-2.66-.07-3.81-.19Z"/>
    <path class="cls-1" d="M358.83,87.81c-.13-.42.17-.9.6-.97.98-.3,2.01-.52,2.93-1,4.33-3.02.72-9.87-4.18-9.07-.92.09-2.15.8-2.72-.32-.29-.59-.04-1.28.53-1.59,2.7-1.51,6.46-1.32,8.69.94,2.89,3.03,3.1,8.88-.29,11.62-1.22.98-4.68,2.24-5.55.4Z"/>
    <path class="cls-1" d="M237.12,49.07c-1.07-.43-3.03-.6-2.54-2.21.26-.64.96-.86,1.52-.67,11.29-.13,22.53,1.01,33.8,1.31,19.39.74,38.77,1.89,58.17,1.7,17.4.55,34.76-1.14,52.16-1.01,2.13.03,2.28,3.29.01,3.37-11.68.11-23.25,1.53-34.92,1.91-7.79.29-15.57-.16-23.36-.26-15.5.29-31.03.27-46.51-.52-12.79-.83-25.75-1.02-38.34-3.62Z"/>
    <path class="cls-1" d="M268.88,42.29c-.19-.77.58-1.16,1.24-1.14,2.4-.23,4.82-.27,7.23-.31,11.62-.06,23.16,1.21,34.74,1.42,12.9.17,25.81.43,38.71.62,1.93,0,2.01,2.99.01,3.01-27.05.24-54.22-.56-81.12-3,0,0,.01,0,.02,0,.03,0,.06,0,.09,0-.41.03-.81-.18-.93-.6Z"/>
    <path class="cls-1" d="M148.9,37.43c-9.29-1.84-18.08-3.57-27.22-5.36-10.74-2.24-21.18-5.71-31.72-8.72-4.95-1.64-10-3.33-14.5-6-.6-.12-1.12-.67-1.03-1.37.47-3.19,10.45,1.73,12.48,2.25,8.16,2.92,16.49,5.35,24.84,7.64,9.34,2.5,18.46,3.74,27.85,5.59,15.34,3,30.78,5.61,46.39,6.7,1.97.15,3.9.29,5.81.41.54.03,1.04.19,1.44.58,1.3,1.17.38,3.63-1.42,3.53-14.43-.63-28.77-2.4-42.93-5.26Z"/>
    <path class="cls-1" d="M306.02,106.55c-.48-.37-.49-1.12-.02-1.5,3.2-5.37,5.99-10.9,8.1-16.74.16-.43.67-.66,1.09-.54,1.91.47-1.21,6.61-1.59,7.97-1.41,3.75-3.47,7.41-6.09,10.4-.27.55-.98.8-1.49.42Z"/>
    <path class="cls-1" d="M289.84,101.84c-.58-6.96-1.9-13.89-3.29-20.73-.39-1.51,1.87-2.16,2.32-.65,1.73,5.22,2.12,10.67,2.29,16.07.08,1.77.08,3.54.2,5.31.03.41-.36.76-.75.76-.41,0-.76-.34-.76-.76Z"/>
    <path class="cls-1" d="M211.24,98c-.46-.35-.43-1.04,0-1.39,2.62-4.09,4.83-8.41,7.17-12.65.62-1.16,2.5-.26,1.96.95-1.69,3.98-3.85,7.75-6.54,11.14-.76.66-1.36,2.67-2.6,1.95Z"/>
    <path class="cls-1" d="M227.06,99.99c-1.33-7.1-2.33-14.31-4.54-21.16-.38-1.23,1.53-1.92,2.01-.71,2.22,6.97,3.66,14.15,4.38,21.43.32,1.23-1.57,1.74-1.84.44Z"/>
  </g>
</svg>