<?xml version="1.0" encoding="UTF-8"?>
<svg id="Layer_2" xmlns="http://www.w3.org/2000/svg" version="1.1" viewBox="0 0 117.3 131.5">
  <!-- Generator: Adobe Illustrator 29.6.1, SVG Export Plug-In . SVG Version: 2.1.1 Build 9)  -->
  <defs>
    <style>
      .st0 {
        fill: #fff;
      }
    </style>
  </defs>
  <path class="st0" d="M104.7,68c-4-3.9-6.6-9-10-13.5-6.7-9.1-12.9-18-17.7-28.1-2.6-5.2-5.1-10.6-7-16.1-.3-.9-.7-1.9-.2-2.8,1.7-2,3.1,1.2,3.8,2.6,3.6,7.5,7.2,15,11.3,22.3,3.9,6.7,8.3,13.1,12.6,19.5,2.5,3.7,4.8,7.5,7.5,11.2.8,1.4,3.2,3.3,1.8,4.9-.5.5-1.4.6-2,.1h0Z"/>
  <path class="st0" d="M103.6,69.3c-1.4-.2-1.5-2.3-.1-2.6,2.6-1.9,5.5-3.6,8.2-5.5,1.4-.6,3.3-3.4,4.7-1.7.4.6.2,1.4-.3,1.8-2.9,2.1-5.7,4.4-8.7,6.4-1.1.6-2.3,1.6-3.7,1.6Z"/>
  <path class="st0" d="M69.7,8.7c-1.2-.9,0-2.2.8-2.9,0-.4.3-.9.8-.8,1.3-1.2,2.7-2.2,4.1-3.2,1.1-.8,2.4-2,3.9-1.8,2,.3,2.7,3,1.2,4.2-1.7,1.4-8.7,5.5-10.7,4.4Z"/>
  <path class="st0" d="M80.2,114.2c-2.9-1.1,6.8-8,7.9-9.1,1-.8,1.9-1.6,2.8-2.4,1.7-1.5,4.1,1.1,2.3,2.6-3,2.5-6,5.3-9.3,7.4-1.1.6-2.3,1.7-3.7,1.5h0Z"/>
  <path class="st0" d="M90.6,105.1c0-10.5-.3-20.8,0-31.3.3-2-.9-7.1,1.8-7.4.8,0,1.6.4,1.8,1.2,1.1,9.6,1.6,19.3,1.2,29-.3,2.7-.2,8-2.9,9.4-.8.2-1.7-.1-2-.9h0Z"/>
  <path class="st0" d="M116,61.6c-12.6-17.5-24.3-35.9-34.9-54.7-.7-1.3-1.7-2.4-2-3.9-.3-1.5,1.7-2.5,2.7-1.3,4.7,7.3,9.2,14.7,13.9,22,4.7,7.5,9.4,15,14.1,22.5,1,1.9,10.8,15.5,6.2,15.3h0Z"/>
  <path class="st0" d="M101,59.9c-.4-.3-.6-.8-.3-1.2.2-.5.8-.5,1.2-.8,1.5-.8,3-1.8,4.4-2.8,1.2-.9,2.3-1.8,3.5-2.6.3-.2.8-.2,1.1.1.3.3.3.9,0,1.2-2.1,1.7-4.4,3.1-6.6,4.7-.9.5-1.9,2-3.1,1.4h0Z"/>
  <path class="st0" d="M96.1,53.8c-.2-.3,0-.9.3-1,3.1-2.1,6-4.3,9.1-6.4.3-.2.8-.2,1,.1,1.2,1.2-3.7,3.8-4.6,4.5-1.6,1-3.3,2-5,2.9-.3.2-.8.2-1-.1h0Z"/>
  <path class="st0" d="M92.7,46.9c.3-.7,1.5-1,2.1-1.6,3-1.9,5.7-3.9,8.4-6.1.4-.2.9,0,1.2.2.7.8-.2,1.6-.8,2-1.1.8-2.2,1.7-3.3,2.4-2.1,1.4-4.3,2.4-6.4,3.8-.5.3-1.2-.2-1.1-.7h0Z"/>
  <path class="st0" d="M89.2,41.8c-1.6-1.4,7.9-6.5,9.2-7.5.4-.2.8-.2,1.1.1,1.2,1.5-3.7,3.7-4.7,4.5-1.5,1-2.9,2.1-4.5,2.9-.3.2-.8.2-1.1-.1h0Z"/>
  <path class="st0" d="M85.2,34.8c-1.7-1.2,4.5-4.3,5.4-5.1,1.2-.8,2.4-1.7,3.5-2.6.2-.2.6-.2.8,0,.7.7-.4,1.3-.9,1.7-2.4,2.1-5.2,3.8-7.7,5.7-.2.4-.7.5-1,.3Z"/>
  <path class="st0" d="M81.3,28.1c-.5-.4-.3-1.2.3-1.3,1.3-1.1,2.8-2,4.2-3,1.6-1,3-2.2,4.6-3.2.3-.2.6-.1.9.1,1.2,1.3-7.6,6-8.8,7.1-.2.5-.8.7-1.2.3h0Z"/>
  <path class="st0" d="M77.9,22.1c-.6-.2-.9-1-.4-1.5,1.2-1.1,2.6-2,3.9-2.9,1.3-.9,2.8-1.7,4.1-2.7.4-.3,1-.2,1.3.2.4.4.3,1,0,1.4-2.1,2.1-4.6,3.8-7.3,5.2-.5.2-1,.6-1.5.4h0Z"/>
  <path class="st0" d="M74.1,14.8c-.6-.1-.5-1.1.1-1.1.9-.5,1.7-1.1,2.6-1.7,1.8-1.3,3.7-2.5,5.6-3.6.6-.3,1.6-.9,2.1,0,.5,1.1-1,1.4-1.6,1.9-2.2,1.9-5,3.1-7.6,4.4-.3.1-.8.4-1.1.2h0Z"/>
  <path class="st0" d="M82.1,102.9c-.2-.3,0-.7.3-.8,2.6-1.5,4.9-3.6,7.3-5.3.9-.5,2.1-2.1,3.1-.9.3.4.1,1-.3,1.3-2.4,1.5-4.8,3.1-7.2,4.6-.7.5-1.5.9-2.3,1.3-.2.2-.7,0-.8-.2Z"/>
  <path class="st0" d="M82.2,94.3c-.2-.6.3-.9.7-1.1,1-.6,2-1.2,3-1.8,1.6-1,3-2,4.5-3.1,1-.6,2.4-2.3,3.5-1.1.4.5.3,1.3-.2,1.6-1.8,1.3-3.8,2.3-5.7,3.3-1.6.8-3.2,1.6-4.8,2.3-.3.2-.9.1-1-.3h0Z"/>
  <path class="st0" d="M82.2,85.9c-.2-.3,0-.7.3-.8,3.6-2.1,6.8-4.7,10.3-6.9.4-.3,1-.2,1.3.2,1.3,1.7-4.7,4.2-5.8,5-1.7.9-3.4,1.8-5.2,2.6-.2.2-.7.2-.8-.1h0Z"/>
  <path class="st0" d="M114.7,47.8c-1.7-4.6-4.6-8.7-7.3-12.7-4.8-7.3-9.6-14.7-13.5-22.6-.4-.7.7-1.3,1.1-.6,3.7,6.6,8.1,12.9,12,19.3,0,0,0,0,0,0h0c1.1,2,10.9,16.2,8.7,17.1-.4.1-.8,0-.9-.4h0Z"/>
  <path class="st0" d="M1,83.4c-2.8-1,1.1-4,1.9-5.3,3.1-3.8,6.3-7.5,9.3-11.3,10.9-14.2,20.7-29.1,30-44.4,1.5-2.3,4.9-.2,3.5,2.2-3.5,5.7-7.1,11.3-10.8,16.9-6.7,10-13.3,19.6-20.8,29-2.9,3.7-5.9,7.2-9.2,10.5-1.2,1-2.3,2.6-4,2.6h0Z"/>
  <path class="st0" d="M78.6,83.4c-4-3.9-6.6-9.1-10-13.5-6.7-9.1-12.9-18-17.7-28.1-2.6-5.2-5.1-10.6-7-16.1-.3-.9-.7-1.9-.2-2.8,1.7-2,3.1,1.2,3.8,2.6,3.6,7.5,7.2,15,11.3,22.3,3.9,6.7,8.3,13.1,12.6,19.5,2.5,3.7,4.8,7.5,7.5,11.2.8,1.4,3.2,3.3,1.8,4.9-.5.5-1.4.6-2,.1h0Z"/>
  <path class="st0" d="M56.5,84.6c-1.7-.3-5.2.9-5.5-1.4,0-.8.5-1.6,1.4-1.6,6,0,11.9-.9,17.8-1,2.7,0,7.7-.6,9.2,2,.4,2.5-3.3,1.7-4.8,1.8-6,0-12,0-18.1.1h0Z"/>
  <path class="st0" d="M28,84.8c-5.6-.3-11.2-.8-16.8-.6-2.6,0-5.2,0-7.8-.1-1.1,0-2.5-.3-2.5-1.6,0-2.5,3.2-1.7,4.9-2,4.2-.2,8.3,0,12.5,0,4.2,0,8.4-.2,12.6.2,1.6,0,7.5.9,5.5,3.4-2.6.9-5.6.6-8.3.6Z"/>
  <path class="st0" d="M31.8,130.2c-.8-.2-1.2-1.2-.9-1.9.3-7.1.3-14.2.4-21.3.3-6.6,0-13.3.4-19.9,0-.5.4-1,.9-1.1,2.7-.6,2.2,9.3,2.6,11.2.4,9,1,18.1-.5,27-.3,1.6-.6,3.1-1.2,4.6,0,.9-1,1.7-1.9,1.4h0Z"/>
  <path class="st0" d="M52.5,130.7c-.4-5.4.4-10.9.2-16.3,0-10.3,1-20.7.7-30.9,0-.9.8-1.6,1.6-1.7,3-.3,2.3,6.7,2.7,8.8.7,2.8.7,47.1-5.2,40.1h0Z"/>
  <path class="st0" d="M32.8,131c-.4,0-.7,0-1.1,0-1.8.4-2.8-2.2-1.1-3,6.4-1,13-.5,19.4-.9,1.2,0,2.9-.1,3,1.5,0,.9-.6,1.7-1.5,1.8-6.3.6-12.5.8-18.8.8Z"/>
  <path class="st0" d="M77.5,84.6c-1.4-.2-1.5-2.3-.1-2.6,2.6-1.9,5.5-3.6,8.2-5.5,1.4-.6,3.3-3.4,4.7-1.7.4.6.2,1.4-.3,1.8-2.9,2.1-5.7,4.4-8.7,6.4-1.1.6-2.3,1.6-3.7,1.6Z"/>
  <path class="st0" d="M43.6,24c-1.2-.9,0-2.2.8-2.9,0-.4.3-.9.8-.8,1.3-1.2,2.7-2.2,4-3.2,1.1-.8,2.4-2,3.9-1.8,2,.3,2.7,3,1.2,4.2-1.7,1.4-8.7,5.5-10.7,4.4Z"/>
  <path class="st0" d="M54.1,129.6c-2.9-1.1,6.8-8,7.9-9.1,1-.8,1.9-1.6,2.8-2.4,1.7-1.5,4.1,1.1,2.3,2.6-3,2.5-6,5.3-9.3,7.4-1.1.6-2.3,1.7-3.7,1.5h0Z"/>
  <path class="st0" d="M64.5,120.4c0-10.5-.3-20.8,0-31.3.3-2-.9-7.1,1.8-7.4.8,0,1.6.4,1.8,1.2,1.1,9.6,1.6,19.3,1.2,29-.3,2.7-.2,8-2.9,9.4-.8.2-1.7-.1-2-.9h0Z"/>
  <path class="st0" d="M89.9,76.9c-12.6-17.5-24.3-35.9-34.9-54.7-.7-1.3-1.7-2.4-2-3.9-.3-1.5,1.7-2.4,2.7-1.3,4.7,7.3,9.2,14.7,13.9,22,4.7,7.5,9.4,15,14.1,22.5,1,1.9,10.8,15.5,6.2,15.3h0Z"/>
  <path class="st0" d="M74.9,75.2c-.4-.3-.6-.8-.3-1.2.2-.5.8-.5,1.2-.8,1.5-.8,3-1.8,4.4-2.8,1.2-.9,2.3-1.8,3.5-2.6.3-.2.8-.2,1.1.1.3.3.3.9,0,1.2-2.1,1.7-4.4,3.1-6.6,4.7-.9.5-1.9,2-3.1,1.4h0Z"/>
  <path class="st0" d="M70,69.2c-.2-.3,0-.9.3-1,3.1-2.1,6-4.3,9.1-6.4.3-.2.8-.2,1,.1,1.2,1.2-3.7,3.8-4.6,4.5-1.6,1-3.3,2-5,2.9-.3.2-.8.2-1-.1h0Z"/>
  <path class="st0" d="M66.6,62.3c.3-.7,1.5-1,2.1-1.6,3-1.9,5.7-3.9,8.4-6.1.4-.2.9,0,1.2.2.7.8-.2,1.6-.8,2-1.1.8-2.2,1.7-3.3,2.4-2.1,1.4-4.3,2.4-6.4,3.8-.5.3-1.2-.2-1.1-.7h0Z"/>
  <path class="st0" d="M63.1,57.1c-1.6-1.4,7.9-6.5,9.2-7.5.4-.2.8-.2,1.1.1,1.2,1.5-3.7,3.7-4.7,4.5-1.5,1-2.9,2.1-4.5,2.9-.3.2-.8.2-1.1-.1h0Z"/>
  <path class="st0" d="M59,50.1c-1.7-1.2,4.5-4.3,5.4-5.1,1.2-.8,2.4-1.7,3.5-2.7.2-.2.6-.2.8,0,.7.7-.4,1.3-.9,1.7-2.4,2.2-5.2,3.8-7.7,5.7-.2.4-.7.5-1,.3Z"/>
  <path class="st0" d="M55.2,43.4c-.5-.4-.3-1.2.3-1.3,1.3-1.2,2.8-2,4.2-3,1.5-1,3-2.2,4.6-3.2.3-.2.6-.1.9.1,1.2,1.3-7.6,6-8.8,7.1-.2.5-.8.7-1.2.3h0Z"/>
  <path class="st0" d="M51.8,37.4c-.6-.2-.9-1-.4-1.5,1.2-1.1,2.6-2,3.9-2.9,1.3-.9,2.8-1.7,4.1-2.7.4-.3,1-.2,1.3.2.4.4.3,1,0,1.4-2.1,2.1-4.6,3.8-7.3,5.2-.5.2-1,.6-1.5.4h0Z"/>
  <path class="st0" d="M48,30.2c-.6-.1-.5-1.1.1-1.1.9-.5,1.7-1.1,2.6-1.7,1.8-1.3,3.7-2.5,5.6-3.6.6-.3,1.6-.9,2.1,0,.5,1-1,1.4-1.6,1.9-2.2,2-5,3.1-7.6,4.4-.3.1-.8.4-1.1.2h0Z"/>
  <path class="st0" d="M55.9,118.3c-.2-.3,0-.7.3-.8,2.6-1.5,4.9-3.6,7.3-5.3.9-.5,2.1-2.1,3-.9.3.4.1,1-.3,1.3-2.5,1.5-4.8,3.1-7.2,4.6-.7.5-1.5.9-2.3,1.3-.2.2-.7,0-.8-.2Z"/>
  <path class="st0" d="M56.1,109.7c-.2-.6.3-.9.7-1.1,1-.6,2-1.2,3-1.8,1.6-1,3-2,4.5-3.1,1-.6,2.4-2.3,3.5-1.1.4.5.3,1.3-.2,1.6-1.8,1.3-3.8,2.3-5.7,3.3-1.6.8-3.2,1.6-4.8,2.3-.3.2-.9.1-1-.3h0Z"/>
  <path class="st0" d="M56.1,101.3c-.2-.3,0-.7.3-.8,3.6-2.1,6.8-4.7,10.3-6.9.4-.3,1-.2,1.3.2,1.3,1.7-4.7,4.2-5.8,5-1.7.9-3.4,1.8-5.2,2.6-.2.2-.7.2-.8-.1h0Z"/>
  <path class="st0" d="M55.3,93.1c-.2-.3,0-.7.3-.9,3.6-1.8,6.8-4.3,10.2-6.4.3-.2.7,0,.9.2.6,1-2.1,1.9-2.8,2.5-2.5,1.7-5.1,3.3-7.8,4.7-.3.2-.7,0-.8-.2Z"/>
  <path class="st0" d="M88.5,63.2c-1.7-4.6-4.6-8.7-7.3-12.7-4.8-7.3-9.6-14.7-13.5-22.6-.4-.7.7-1.3,1.1-.6,3.7,6.6,8.1,12.9,12,19.3,0,0,0,0,0,0h0c1.1,2,10.9,16.2,8.7,17.1-.4.1-.8,0-.9-.4h0Z"/>
  <path class="st0" d="M3.9,70.7c-.8-.5.2-1.4.5-2,3.1-4.9,6.4-9.7,10.2-14.1,2-2.3,3.7-4.7,5.7-6.9.3-.3.8-.4,1.1-.1.3.3.4.8.1,1.1-2.6,3.3-5.2,6.6-7.9,9.9-2.9,3.6-5.6,7.4-8.5,11.1-.4.4-.7,1.2-1.3,1h0Z"/>
  <path class="st0" d="M23.4,43.7c0-1,.7-1.8,1.1-2.7,1.7-2.7,3.6-5.3,5.6-7.8.2-.3.6-.3.9-.2,1.1.7-1,2.7-1.4,3.5-1.5,2-3,3.9-4.5,5.9-.4.4-1.1,2.1-1.7,1.2Z"/>
  <path class="st0" d="M76.1,111.6c-2.8.2-5.6.2-8.4.2v3.6c3.3-.1,6.6-.3,10-.6.9,0,1.6-.9,1.5-1.8-.1-1.6-1.8-1.6-3-1.5Z"/>
  <path class="st0" d="M68.3,7c-3.4,5.7-6.9,11.3-10.5,16.8.9,1.1,1.8,2.2,2.5,3.4.3-.4.5-.8.8-1.1,3.7-5.6,7.3-11.2,10.8-16.8,1.4-2.4-2.1-4.4-3.5-2.2Z"/>
  <path class="st0" d="M56.6,20.1c.6-.9,1.3-1.9.6-2.4-.3-.2-.7,0-.9.2-.3.3-.5.7-.8,1,.4.4.7.8,1.1,1.2Z"/>
  <path class="st0" d="M79.3,82.1c-.2,5.7-.5,11.3-.5,17,.2,5.4-.6,10.9-.2,16.3h0c5.1,6,5.8-26,5.4-36.8l-4.7,3.5Z"/>
  <path class="st0" d="M105.5,67.3c-1.5-2.7-6.5-2-9.2-2-4.4,0-8.8.5-13.1.8l2.4,3.2c5,0,10.1,0,15.1-.1,1.5-.2,5.2.7,4.8-1.8Z"/>
  <path class="st0" d="M92.8,70.7c-.2-.3-.6-.4-.9-.2-1.1.7-2.1,1.3-3.2,2l.8,1c.2-.1.3-.2.5-.3.6-.6,3.3-1.5,2.8-2.5Z"/>
</svg>