<?xml version="1.0" encoding="UTF-8"?>
<svg id="Layer_2" data-name="Layer 2" xmlns="http://www.w3.org/2000/svg" viewBox="0 0 117.26 131.46">
  <defs>
    <style>
      .cls-1 {
        <!-- fill: #2a87d5; -->
        fill: #ffffff;
      }

      .cls-1, .cls-2 {
        stroke-width: 0px;
      }

      .cls-2 {
        <!-- fill: #fff; -->
        fill: #2f80ed;
      }
    </style>
  </defs>
  <g id="Vector_layer" data-name="Vector layer">
    <path class="cls-1" d="M27.11,68.04c-2.81-1.01,1.1-4.03,1.9-5.34,3.14-3.75,6.33-7.47,9.33-11.34,10.91-14.22,20.67-29.11,29.97-44.4,1.45-2.26,4.91-.21,3.54,2.17-3.47,5.69-7.09,11.29-10.77,16.85-6.73,10.02-13.34,19.56-20.76,28.96-2.91,3.65-5.94,7.21-9.24,10.51-1.18.97-2.3,2.62-3.96,2.59Z"/>
    <path class="cls-1" d="M104.66,68.02c-4.04-3.88-6.63-9.05-10.04-13.46-6.66-9.14-12.94-17.97-17.7-28.14-2.61-5.25-5.07-10.61-7.02-16.14-.27-.9-.68-1.93-.23-2.83,1.66-2.03,3.14,1.24,3.77,2.59,3.62,7.51,7.23,15.03,11.29,22.31,3.9,6.66,8.35,13.09,12.61,19.49,2.52,3.71,4.83,7.54,7.46,11.16.75,1.43,3.15,3.27,1.82,4.9-.51.51-1.39.59-1.96.13Z"/>
    <path class="cls-1" d="M82.65,69.25c-1.66-.3-5.19.87-5.55-1.43-.07-.79.55-1.59,1.38-1.63,5.95-.1,11.88-.86,17.84-.97,2.66.06,7.7-.61,9.21,2.04.4,2.54-3.26,1.67-4.8,1.85-6.02.1-12.05.07-18.07.14Z"/>
    <path class="cls-1" d="M54.06,69.49c-5.59-.34-11.18-.79-16.79-.59-2.61.02-5.21-.05-7.82-.11-1.08.08-2.46-.3-2.55-1.58,0-2.54,3.22-1.72,4.9-1.98,4.16-.25,8.32.03,12.48.02,4.19,0,8.4-.23,12.57.23,1.57.09,7.55.95,5.54,3.43-2.6.95-5.59.55-8.33.58Z"/>
    <path class="cls-1" d="M57.94,114.83c-.78-.23-1.22-1.18-.88-1.92.28-7.1.3-14.21.38-21.31.3-6.61.04-13.26.44-19.86.05-.52.4-.97.93-1.09,2.69-.61,2.25,9.33,2.62,11.24.44,8.97.98,18.06-.45,26.96-.29,1.56-.61,3.12-1.15,4.62,0,.94-1,1.66-1.89,1.35Z"/>
    <path class="cls-1" d="M78.56,115.38c-.39-5.37.41-10.86.18-16.28.02-10.34.99-20.67.66-30.93.01-.88.78-1.62,1.63-1.69,3.01-.29,2.31,6.73,2.71,8.77.67,2.78.73,47.1-5.19,40.13Z"/>
    <path class="cls-1" d="M58.89,115.64c-.37,0-.74,0-1.11-.04-1.77.38-2.75-2.2-1.06-3.03,6.36-1,12.98-.49,19.41-.93,1.21-.1,2.9-.12,3.03,1.46.07.89-.61,1.68-1.49,1.75-6.26.6-12.52.8-18.78.79Z"/>
    <path class="cls-1" d="M103.59,69.26c-1.41-.24-1.46-2.26-.14-2.63,2.64-1.94,5.49-3.58,8.16-5.49,1.38-.63,3.26-3.39,4.7-1.71.41.61.21,1.36-.35,1.78-2.91,2.11-5.7,4.38-8.68,6.4-1.14.64-2.34,1.64-3.69,1.65Z"/>
    <path class="cls-1" d="M69.66,8.67c-1.2-.88-.02-2.21.77-2.91-.04-.43.31-.94.83-.78,1.28-1.16,2.65-2.2,4.05-3.21,1.13-.81,2.36-1.98,3.86-1.75,1.96.3,2.68,2.95,1.17,4.22-1.74,1.39-8.72,5.53-10.68,4.43Z"/>
    <path class="cls-1" d="M80.18,114.22c-2.88-1.05,6.78-8.02,7.86-9.05.97-.79,1.91-1.61,2.84-2.44,1.74-1.5,4.06,1.11,2.33,2.64-3.04,2.54-5.96,5.27-9.35,7.36-1.14.6-2.34,1.68-3.69,1.5Z"/>
    <path class="cls-1" d="M90.57,105.05c-.07-10.46-.3-20.83-.07-31.29.28-2.01-.89-7.08,1.85-7.37.79-.06,1.61.43,1.85,1.21,1.13,9.57,1.59,19.34,1.18,29-.35,2.7-.23,7.96-2.86,9.39-.77.25-1.7-.13-1.96-.94Z"/>
    <path class="cls-1" d="M116.04,61.6c-12.56-17.48-24.27-35.9-34.94-54.68-.68-1.27-1.68-2.42-1.96-3.86-.3-1.49,1.73-2.45,2.7-1.27,4.66,7.27,9.23,14.69,13.9,21.98,4.66,7.52,9.39,15.01,14.11,22.49.97,1.86,10.77,15.54,6.19,15.33Z"/>
    <path class="cls-1" d="M101.03,59.89c-.4-.27-.55-.8-.34-1.24.23-.51.79-.51,1.19-.81,1.53-.85,2.97-1.78,4.38-2.83,1.16-.86,2.29-1.75,3.48-2.58.33-.23.8-.16,1.07.14.28.32.27.87-.07,1.15-2.13,1.69-4.45,3.11-6.63,4.74-.94.49-1.91,2.02-3.06,1.43Z"/>
    <path class="cls-1" d="M96.12,53.82c-.23-.35-.04-.87.35-.97,3.09-2.07,6.04-4.34,9.14-6.41.33-.22.79-.16,1.04.14,1.16,1.17-3.74,3.76-4.61,4.48-1.62,1.01-3.26,2.01-4.96,2.88-.28.25-.75.22-.96-.11Z"/>
    <path class="cls-1" d="M92.7,46.94c.29-.72,1.47-1.05,2.05-1.59,2.98-1.86,5.73-3.91,8.39-6.12.38-.2.88-.09,1.16.23.66.79-.18,1.59-.85,2-1.1.81-2.17,1.66-3.3,2.42-2.09,1.41-4.33,2.43-6.39,3.79-.48.33-1.16-.15-1.05-.72Z"/>
    <path class="cls-1" d="M89.18,41.77c-1.57-1.43,7.92-6.45,9.17-7.49.36-.23.83-.18,1.11.14,1.15,1.45-3.74,3.65-4.71,4.53-1.5.96-2.89,2.13-4.48,2.94-.34.24-.82.19-1.1-.13Z"/>
    <path class="cls-1" d="M85.15,34.8c-1.65-1.2,4.5-4.31,5.39-5.08,1.22-.81,2.36-1.72,3.48-2.65.23-.19.56-.2.8,0,.66.69-.45,1.28-.89,1.72-2.39,2.15-5.19,3.78-7.74,5.72-.17.37-.7.52-1.04.29Z"/>
    <path class="cls-1" d="M81.33,28.05c-.46-.38-.26-1.2.33-1.33,1.27-1.15,2.78-2.03,4.19-2.99,1.55-1.03,3.04-2.17,4.62-3.16.28-.17.64-.14.86.11,1.23,1.34-7.56,5.99-8.77,7.07-.17.49-.85.66-1.23.31Z"/>
    <path class="cls-1" d="M77.88,22.09c-.64-.21-.88-1.03-.43-1.55,1.23-1.07,2.6-1.98,3.91-2.94,1.32-.94,2.77-1.71,4.07-2.68.39-.3,1-.19,1.31.17.36.41.32,1.05-.09,1.41-2.12,2.12-4.63,3.75-7.26,5.17-.46.25-.98.6-1.52.42Z"/>
    <path class="cls-1" d="M74.06,14.82c-.62-.13-.54-1.14.12-1.12.9-.51,1.73-1.15,2.59-1.72,1.81-1.28,3.68-2.48,5.58-3.61.63-.34,1.6-.94,2.06-.07.46,1.05-.99,1.37-1.57,1.93-2.24,1.95-5.02,3.06-7.64,4.38-.33.13-.76.35-1.14.22Z"/>
    <path class="cls-1" d="M82.05,102.94c-.19-.3-.03-.74.31-.84,2.58-1.54,4.89-3.62,7.27-5.27.89-.46,2.14-2.12,3.05-.91.27.45.11.98-.31,1.27-2.45,1.49-4.83,3.07-7.25,4.62-.74.46-1.5.89-2.27,1.31-.25.18-.65.09-.8-.18Z"/>
    <path class="cls-1" d="M82.16,94.33c-.25-.56.27-.94.73-1.08,1.01-.55,1.99-1.16,2.97-1.77,1.63-1.01,2.99-1.96,4.46-3.05,1.01-.59,2.38-2.33,3.52-1.12.39.48.34,1.26-.17,1.64-1.77,1.26-3.81,2.34-5.68,3.33-1.6.83-3.15,1.62-4.8,2.34-.35.23-.86.11-1.04-.3Z"/>
    <path class="cls-1" d="M82.18,85.93c-.18-.28-.05-.69.26-.8,3.58-2.1,6.84-4.66,10.28-6.93.43-.26.99-.16,1.3.23,1.34,1.7-4.66,4.23-5.83,5.02-1.73.9-3.44,1.77-5.18,2.63-.25.22-.67.15-.83-.14Z"/>
    <path class="cls-1" d="M81.4,77.75c-.19-.31-.05-.7.27-.86,3.61-1.8,6.8-4.3,10.24-6.38.29-.18.68-.08.86.21.55.98-2.14,1.9-2.76,2.53-2.5,1.73-5.1,3.29-7.79,4.7-.28.16-.65.08-.82-.2Z"/>
    <path class="cls-1" d="M114.65,47.82c-1.7-4.62-4.6-8.67-7.32-12.73-4.85-7.34-9.62-14.69-13.48-22.59-.38-.7.71-1.31,1.1-.59,3.71,6.62,8.12,12.88,12.01,19.28,0,0-.01-.02-.02-.03,0,0,0,0,0,0,1.05,2,10.92,16.25,8.67,17.1-.37.14-.82-.05-.95-.43Z"/>
    <path class="cls-1" d="M29.99,55.39c-.78-.5.24-1.39.48-1.96,3.11-4.89,6.41-9.68,10.19-14.09,1.95-2.28,3.73-4.68,5.73-6.92.28-.33.76-.41,1.11-.14.34.26.41.78.14,1.11-2.57,3.35-5.25,6.6-7.86,9.91-2.9,3.63-5.58,7.42-8.46,11.06-.4.37-.68,1.21-1.34,1.02Z"/>
    <path class="cls-1" d="M49.53,28.34c-.08-.96.73-1.83,1.13-2.67,1.71-2.7,3.61-5.29,5.57-7.8.21-.27.61-.35.91-.18,1.07.69-.96,2.73-1.37,3.53-1.49,1.96-2.99,3.92-4.49,5.87-.41.41-1.1,2.09-1.75,1.25Z"/>
    <path class="cls-2" d="M89.14,73.75v.04s0,.02,0,.02v.02s0,.02,0,.02v.02s0,.02,0,.02v.02s0,.02,0,.02v.02s-.01.02-.01.02v.02s0,.02,0,.02v.02s-.01.02-.01.02v.02s-.02.02-.02.02v.02s-.01.02-.01.02v.02s-.02.02-.02.02v.02s-.01.02-.01.02v.02s-.02.02-.02.02v.02s-.02.02-.02.02v.02s-.02.02-.02.02v.02s-.02.02-.02.02v.02s-.02.02-.02.02v.02s-.02.02-.02.02v.02s-.02.02-.02.02v.02s-.02.02-.02.02v.02s-.02.02-.02.02v.02s-.02.02-.02.02v.02s-.02.02-.02.02v.02s-.02.02-.02.02v.02s-.02.02-.02.02v.02s-.01.02-.01.02v.02s-.02.02-.02.02v.02s-.01.02-.01.02v.02s-.01.02-.01.02v.02s0,.02,0,.02v.02s-.01.02-.01.02v.02s-.01.02-.01.02v.02s0,.02,0,.02v.02s-.01.02-.01.02v.02s-.01.02-.01.02v.02s-.02.02-.02.02v.02s-.02.02-.02.02v.02s-.02.02-.02.02v.02s-.02.02-.02.02v.02s-.02.02-.02.02v.02s-.02.02-.02.02v.02s-.02.02-.02.02v.02s-.02.02-.02.02v.02s-.02.02-.02.02v.02s-.02.02-.02.02v.02s-.02.02-.02.02v.02s-.02.02-.02.02v.02s-.02.02-.02.02v.02s-.03.02-.03.02v.02s-.02.02-.02.02l-.02.02v.02s-.03.02-.03.02l-.02.02v.02s-.03.02-.03.02h-.02s-.02.03-.02.03l-.02.02h-.02s-.02.03-.02.03h-.02s-.02.02-.02.02h-.02s-.02.03-.02.03h-.02s-.02.02-.02.02h-.02s-.02.02-.02.02h-.02s-.02.02-.02.02h-.02s-.02.02-.02.02h-.02s-.02.02-.02.02h-.02s-.02.02-.02.02h-.02s-.02.02-.02.02h-.02s-.02.02-.02.02h-.02s-.02.02-.02.02h-.02s-.02.02-.02.02h-.02s-.02.02-.02.02h-.02s-.02.02-.02.02h-.02s-.02.02-.02.02h-.02s-.02.02-.02.02l-.02.02-.02.02h-.02s-.02.03-.02.03l-.02.02-.02.02-.02.02-.02.02-.03.02-.02.02-.03.02-.03.02-.03.02-.03.02-.03.02-.03.02-.03.02-.03.03-.04.02-.03.03-.04.03-.03.03-.04.03-.03.03-.03.03-.04.03-.03.03-.03.02-.03.03-.03.02-.03.02-.03.02-.03.02-.03.02-.03.02-.03.02-.02.02-.03.02-.02.02-.02.02-.02.02-.02.02-.02.02-.02.02-.02.02-.02.02-.02.02-.02.02-.02.02-.02.02-.02.02-.02.02-.02.02-.02.02-.02.02-.02.02-.02.02-.02.02-.02.02-.02.02-.02.02-.02.02-.02.02-.02.02-.02.02-.02.02-.02.02-.02.02-.02.02-.02.02-.02.02-.02.02-.02.02-.02.02-.02.02-.02.02-.02.02-.02.02-.02.02-.02.02-.02.02-.02.02-.02.02-.02.02-.02.02-.02.02-.02.02-.02.02-.02.02-.03.02-.02.02-.02.02-.03.02-.02.02-.02.02-.03.02-.02.02-.03.02-.02.02-.03.02-.03.02-.03.02-.03.02-.03.02-.03.03-.03.02-.03.02-.03.02-.03.03-.03.03-.03.03-.03.03-.03.03-.03.03-.03.04-.04.04-.03.04-.04.04-.03.04-.03.04-.03.04-.03.04-.03.04-.03.04-.03.03-.03.04-.02.03-.02.03-.02.03-.02.03-.02.03-.02.03-.02.03-.02.03-.02.02-.02.02-.02.02-.02.02-.02.02-.02.02-.02.02-.02.02-.02.02-.02.02-.02.02-.02.02-.02.02-.02.02-.02.02-.02.02-.02.02-.02.02-.02.02-.02.02-.02.02-.02.02-.02.02-.02.02-.02.02-.02.02-.02.02-.02.02-.02.02-.02.02-.02.02-.02.02-.02.02-.02.02-.02.02-.03.02-.03.02-.03.02-.03.02-.04.02-.04.02-.04.02-.04.02-.04.03-.04.02-.05.03-.05.03-.05.03-.05.03-.05.03-.05.03-.05.03-.05.03-.05.03-.05.03-.05.03-.05.03-.05.03-.05.03-.05.03-.05.03-.05.02-.05.03-.05.02-.05.02-.05.02-.05.02-.05.02-.04.02-.05.02-.05.02-.05.02-.05.02-.05.02-.05.02-.05.02-.05.02-.05.02-.06.02-.05.02-.05.03-.06.02-.05.02-.05.02-.05.02-.05.02-.05.02-.05.02-.05.02-.05.02-.04.02-.04.02-.04.02-.04.02-.04.02-.04.02h-.04s-.04.03-.04.03h-.04s-.04.02-.04.02h-.04s-.04.02-.04.02h-.04s-.04.02-.04.02h-.04s-.04.02-.04.02h-.04s-.04.02-.04.02h-.04s-.04.02-.04.02h-.04s-.04.02-.04.02h-.04s-.04.01-.04.01h-.04s-.04,0-.04,0h-.04s-.04.01-.04.01h-.04s-.04,0-.04,0h-.04s-.04,0-.04,0h-.04s-.04,0-.04,0h-.08s-.04,0-.04,0h-.12s-.04,0-.04,0h-.08s-.04,0-.04,0h-.08s-.04,0-.04,0h-.04s-.04,0-.04,0h-.04s-.04-.01-.04-.01h-.04s-.04,0-.04,0h-.04s-.04-.01-.04-.01h-.04s-.04,0-.04,0h-.04s-.03-.01-.03-.01h-.04s-.03-.01-.03-.01h-.03s-.03-.01-.03-.01h-.03s-.03,0-.03,0h-.03s-.03-.01-.03-.01h-.03s-.03-.01-.03-.01h-.03s-.03-.01-.03-.01h-.03s-.03,0-.03,0h-.03s-.03-.01-.03-.01h-.03s-.03,0-.03,0h-.03s-.03,0-.03,0h-.03s-.03,0-.03,0h-.03s-.03,0-.03,0h-.03s-.03,0-.03,0h-.03s-.02,0-.02,0h-.03s-.02,0-.02,0h-.05s-.03,0-.03,0h-.02s-.03,0-.03,0h-.03s-.03,0-.03,0h-.05s-.03,0-.03,0h-.03s-.03,0-.03,0h-.07s-.04,0-.04,0h-.21s-.05,0-.05,0h-.09s-.05,0-.05,0h-.1s-.05,0-.05,0h-.1s-.05,0-.05,0h-.05s-.05,0-.05,0h-.1s-.05,0-.05,0h-.05s-.05,0-.05,0h-.1s-.05,0-.05,0h-.05s-.05,0-.05,0h-.05s-.05,0-.05,0h-.05s-.05,0-.05,0h-.05s-.05,0-.05,0h-.05s-.05,0-.05,0h-.05s-.06,0-.06,0h-.05s-.05.01-.05.01h-.05s-.05.02-.05.02h-.05s-.05.01-.05.01h-.05s-.05.01-.05.01h-.05s-.05.02-.05.02h-.04s-.04.01-.04.01h-.04s-.04.01-.04.01h-.04s-.04.01-.04.01h-.04s-.04.01-.04.01h-.04s-.04.01-.04.01h-.04s-.04,0-.04,0h-.04s-.04.01-.04.01h-.04s-.04.01-.04.01h-.04s-.04.01-.04.01h-.04s-.04.01-.04.01h-.04s-.04.01-.04.01h-.04s-.04,0-.04,0h-.04s-.04,0-.04,0h-.04s-.04,0-.04,0h-.04s-.04,0-.04,0h-.04s-.03,0-.03,0h-.04s-.04,0-.04,0h-.04s-.04,0-.04,0h-.07s-.04,0-.04,0h-.08s-.04,0-.04,0h-.09s-.05,0-.05,0h-.05s-.05.01-.05.01h-.05s-.05.01-.05.01h-.05s-.05.02-.05.02h-.05s-.05.02-.05.02h-.04s-.05.02-.05.02h-.04s-.04.02-.04.02h-.04s-.04.02-.04.02h-.04s-.04.02-.04.02h-.04s-.04.02-.04.02h-.03s-.03.02-.03.02h-.03s-.03.02-.03.02h-.03s-.03.02-.03.02h-.03s-.03.02-.03.02h-.03s-.02.02-.02.02h-.03s-.02.02-.02.02h-.03s-.02.02-.02.02h-.02s-.02.02-.02.02h-.02s-.02.02-.02.02h-.02s-.02.02-.02.02h-.02s-.02.02-.02.02h-.02s-.02.01-.02.01h-.02s-.02.01-.02.01h-.02s-.02.01-.02.01h-.02s-.02,0-.02,0h-.02s-.02,0-.02,0h-.02s-.02,0-.02,0h-.04s-.02,0-.02,0h-.19s-.02,0-.02,0h-.02s-.02,0-.02,0h-.02s-.02,0-.02,0h-.02s-.02,0-.02,0h-.02s-.03,0-.03,0h-.03s-.03,0-.03,0h-.04s-.04-.01-.04-.01h-.04s-.04-.02-.04-.02h-.04s-.04-.02-.04-.02h-.04s-.04-.02-.04-.02h-.05s-.04-.02-.04-.02h-.05s-.05-.02-.05-.02h-.05s-.05-.02-.05-.02h-.05s-.05-.02-.05-.02h-.05s-.05-.02-.05-.02h-.05s-.05-.02-.05-.02h-.05s-.05-.02-.05-.02h-.05s-.05-.02-.05-.02h-.05s-.05-.02-.05-.02h-.05s-.04-.02-.04-.02h-.04s-.05-.01-.05-.01h-.04s-.04-.01-.04-.01h-.04s-.04-.01-.04-.01h-.04s-.04,0-.04,0h-.04s-.04-.01-.04-.01h-.04s-.04,0-.04,0h-.04s-.04,0-.04,0h-.14s-.05,0-.05,0h-.05s-.05,0-.05,0h-.05s-.05,0-.05,0h-.05s-.05,0-.05,0h-.05s-.04.01-.04.01h-.04s-.04.01-.04.01h-.04s-.04.02-.04.02h-.04s-.04.02-.04.02h-.04s-.04.02-.04.02h-.04s-.04.02-.04.02l-.04.02h-.04s-.04.03-.04.03l-.04.02h-.04s-.04.03-.04.03h-.04s-.03.03-.03.03l-.04.02h-.03s-.03.02-.03.02l-.03.02h-.03s-.03.02-.03.02h-.03s-.03.03-.03.03h-.03s-.02.02-.02.02h-.02s-.03.02-.03.02h-.02s-.02.02-.02.02h-.02s-.02.03-.02.03h-.02s-.02.03-.02.03h-.02s-.02.03-.02.03h-.02s-.02.03-.02.03l-.02.02-.02.02-.02.02-.02.02-.02.02-.02.02-.02.02-.02.02-.02.02-.02.02-.02.02-.02.02-.02.03-.02.03-.02.03-.02.03-.02.03-.02.04-.02.03-.02.04-.02.04-.02.04-.02.04-.02.04-.02.04-.02.05-.02.05-.02.05-.02.05-.02.06-.02.06-.02.06-.02.07-.02.06-.02.07-.02.07v.07s-.03.07-.03.07v.07s-.03.07-.03.07v.07s-.02.07-.02.07v.07s-.02.07-.02.07v.07s-.02.07-.02.07v.07s-.02.07-.02.07v.07s-.01.07-.01.07v.07s0,.07,0,.07v.07s0,.07,0,.07v.41s0,.07,0,.07v.07s0,.07,0,.07v.07s0,.07,0,.07v.07s0,.07,0,.07v.07s0,.07,0,.07v.07s0,.06,0,.06v.07s0,.06,0,.06v.07s0,.06,0,.06v.12s0,.06,0,.06v.12s0,.06,0,.06v.06s0,.06,0,.06v.06s0,.06,0,.06v.06s-.02.07-.02.07v.07s-.02.07-.02.07v.07s-.02.08-.02.08v.08s-.02.08-.02.08v.08s-.02.08-.02.08v.08s-.02.08-.02.08v.08s-.02.07-.02.07v.07s-.02.07-.02.07v.07s-.01.07-.01.07v.07s-.01.06-.01.06v.06s-.01.06-.01.06v.06s-.01.06-.01.06v.06s-.01.06-.01.06v.06s-.01.06-.01.06v.07s-.01.07-.01.07v.07s-.02.07-.02.07v.07s-.02.08-.02.08v.08s-.02.08-.02.08l-.02.09v.09s-.02.09-.02.09v.09s-.02.09-.02.09v.09s-.02.09-.02.09v.09s-.02.09-.02.09v.09s-.02.1-.02.1v.1s-.02.1-.02.1v.11s-.02.11-.02.11v.11s-.02.11-.02.11v.11s-.02.11-.02.11v.11s-.02.11-.02.11v.11s-.02.11-.02.11v.1s-.02.11-.02.11v.1s-.02.1-.02.1v.09s-.01.09-.01.09v.09s-.01.09-.01.09v.09s-.01.09-.01.09v.09s-.01.09-.01.09v.09s-.01.09-.01.09v.09s-.01.09-.01.09v.09s0,.09,0,.09v.09s0,.08,0,.08v.08s-.01.07-.01.07v.07s0,.07,0,.07v.07s0,.07,0,.07v.07s0,.06,0,.06v.06s0,.06,0,.06v.06s-.01.05-.01.05v.05s0,.05,0,.05v.05s0,.05,0,.05v.05s0,.05,0,.05v.05s-.01.05-.01.05v.05s0,.05,0,.05v.05s-.01.06-.01.06v.06s0,.06,0,.06v.07s-.01.07-.01.07v.07s0,.08,0,.08v.08s0,.09,0,.09v.09s0,.09,0,.09v.09s0,.09,0,.09v.38s0,.09,0,.09v.09s.01.09.01.09v.09s.01.09.01.09v.08s.01.08.01.08v.08s.02.08.02.08v.08s.02.07.02.07v.08s.02.07.02.07v.07s.02.07.02.07v.07s.02.07.02.07v.07s.02.07.02.07v.07s.02.07.02.07v.07s.02.07.02.07v.07s.02.07.02.07v.07s.02.07.02.07v.07s.02.07.02.07v.07s.02.08.02.08v.08s.02.08.02.08v.08s.02.08.02.08v.08s.02.08.02.08v.09s.01.08.01.08v.08s.01.08.01.08v.08s0,.09,0,.09v.08s0,.08,0,.08v.08s0,.07,0,.07v.08s0,.08,0,.08v.07s0,.07,0,.07v.07s0,.07,0,.07v.07s0,.07,0,.07v.07s0,.07,0,.07v.21s0,.07,0,.07v.3s0,.07,0,.07v.68s0,.09,0,.09v.1s0,.09,0,.09v.09s-.01.1-.01.1v.09s-.02.09-.02.09v.09s-.02.09-.02.09v.09s-.02.08-.02.08v.08s-.02.08-.02.08v.07s-.02.07-.02.07v.07s-.02.07-.02.07v.07s-.01.06-.01.06v.06s-.01.06-.01.06v.06s-.01.06-.01.06v.06s-.02.05-.02.05v.05s-.01.05-.01.05v.05s-.01.05-.01.05v.05s-.01.05-.01.05v.04s-.01.04-.01.04v.04s-.01.04-.01.04v.04s-.01.04-.01.04v.04s-.01.04-.01.04v.05s-.02.05-.02.05v.06s-.02.07-.02.07l-.02.07v.08s-.03.09-.03.09l-.02.09-.02.09-.02.1-.02.09-.02.09-.02.09-.02.09-.02.09-.02.09-.02.09-.02.09v.08s-.02.08-.02.08v.08s-.02.08-.02.08v.07s-.02.07-.02.07v.07s-.02.07-.02.07v.07s-.01.07-.01.07v.08s0,.08,0,.08v.17s0,.08,0,.08v.18s0,.09,0,.09v.09s0,.08,0,.08v.08s0,.08,0,.08v.08s.01.08.01.08v.07s0,.07,0,.07v.07s.01.07.01.07v.07s0,.06,0,.06v.06s.01.06.01.06v.06s0,.06,0,.06v.06s.01.06.01.06v.05s0,.06,0,.06v.05s0,.05,0,.05v.05s0,.05,0,.05v.05s0,.05,0,.05v.05s0,.05,0,.05v.05s0,.05,0,.05v.05s0,.05,0,.05v.04s0,.05,0,.05v.04s.01.05.01.05v.04s.01.05.01.05v.05s.01.05.01.05v.05s.01.05.01.05v.05s.02.05.02.05v.06s.02.06.02.06v.07s.02.06.02.06v.07s.01.06.01.06v.07s.02.07.02.07v.07s.02.07.02.07v.07s.01.07.01.07v.07s.02.07.02.07v.07s.02.07.02.07v.07s.02.07.02.07v.07s.02.07.02.07v.07s.02.07.02.07v.07s.02.07.02.07v.07s.02.06.02.06v.06s.02.06.02.06l.02.06v.05s.02.05.02.05v.05s.02.05.02.05v.05s.02.05.02.05v.05s.02.05.02.05v.05s.02.05.02.05v.05s.02.05.02.05v.05s.02.05.02.05v.05s.02.05.02.05v.05s.02.05.02.05v.05s.02.05.02.05v.05s.01.05.01.05v.05s.01.05.01.05v.05s.01.05.01.05v.06s0,.05,0,.05v.05s0,.05,0,.05v.05s.01.05.01.05v.05s0,.05,0,.05v.05s.01.05.01.05v.05s0,.05,0,.05v.05s.01.05.01.05v.05s0,.04,0,.04v.05s0,.04,0,.04v.04s0,.04,0,.04v.04s0,.04,0,.04v.04s0,.04,0,.04v.08s0,.04,0,.04v.29s0,.04,0,.04v.04s0,.04,0,.04v.04s-.01.04-.01.04v.05s0,.04,0,.04v.05s-.02.05-.02.05v.05s-.01.05-.01.05v.05s-.02.05-.02.05v.05s-.01.05-.01.05v.04s-.02.05-.02.05v.05s-.02.05-.02.05v.05s-.02.05-.02.05l-.02.06-.02.07-.02.08-.03.08-.04.09-.04.09-.04.08-.04.08-.04.08-.04.07-.04.07-.04.07-.04.06-.04.06-.03.05-.04.05-.03.05-.03.05-.03.05-.03.04-.03.05-.03.04-.03.05-.03.04-.03.05-.04.05-.04.05-.04.05-.03.05-.04.05-.04.04-.04.05-.03.04-.03.04-.03.04-.03.04-.03.04-.03.04-.02.04-.03.04-.03.04-.02.04-.02.04-.02.04-.02.03-.02.03-.02.03-.02.03-.02.03-.02.03-.02.03-.02.03-.02.03-.02.03-.02.03-.02.03-.02.03-.02.03-.02.03-.02.03-.02.03-.02.03-.02.03-.02.04-.02.03-.02.04-.02.04-.02.04-.02.04-.02.04-.02.04-.02.04-.02.04-.02.04-.02.04-.02.04-.03.04-.03.04-.02.04-.03.04-.03.04-.03.04-.03.04-.03.04-.04.05-.04.05-.04.05-.04.05-.04.05-.04.05-.04.05-.04.05-.05.05-.04.05-.05.05-.05.05-.05.05-.05.04-.05.04-.05.04-.05.04-.04.04-.05.04-.04.04-.04.04-.04.03-.04.03-.04.03-.04.03-.04.03-.04.03-.04.02-.04.03-.04.02-.04.03-.04.02-.04.03-.04.02-.04.03-.04.03-.04.03-.04.03-.04.03-.04.03-.04.03-.04.03-.04.03-.04.03-.04.03-.04.03-.04.03-.04.03-.04.03-.04.03-.04.03-.04.03-.04.03-.04.03-.04.03-.04.03-.04.04-.04.03-.04.03-.04.04-.04.03-.04.04-.04.03-.04.03-.04.03-.04.03-.03.03-.03.03-.03.03-.03.03-.03.03-.03.02-.03.03-.03.02-.02.02-.03.03-.02.02-.02.02-.02.02-.02.02-.02.02-.02.02-.02.02-.02.02-.02.02-.02.02-.02.02-.02.03-.02.02-.03.03-.02.02-.02.03-.03.03-.02.03-.03.03-.02.03-.02.02-.03.03-.02.03-.02.03-.03.03-.03.03-.03.03-.03.04-.03.04-.03.04-.03.04-.03.04-.03.04-.03.04-.03.04-.03.04-.03.04-.03.04-.03.04-.03.04-.03.04-.03.04-.03.04-.03.04-.04.04-.03.04-.04.04-.04.04-.04.04-.04.04-.04.04-.04.04-.04.04-.04.04-.04.04-.04.04-.04.04-.04.04-.04.04-.04.04-.04.04-.04.04-.05.04-.04.05-.05.05-.05.05-.05.05-.05.06-.05.06-.05.06-.05.07-.05.07-.05.07-.05.07-.05.07-.05.07-.05.07-.05.07-.05.07-.05.06-.05.06-.05.06-.05.06-.05.05-.05.05-.05.05-.04.05-.05.05-.04.04-.05.04-.04.04-.04.04-.04.04-.04.04-.04.03-.04.03-.04.03-.04.03-.04.02-.04.02-.04.03-.03.02-.04.02-.03.02-.04.02-.03.02-.03.02-.03.02-.03.02-.04.02-.04.02-.03.02-.04.02-.04.02-.04.02-.04.02-.04.02-.05.02-.05.02-.05.02-.05.02-.05.02-.05.02-.05.02-.05.02h-.05s-.05.03-.05.03h-.05s-.05.02-.05.02l-.05.02h-.05s-.05.02-.05.02h-.05s-.05.02-.05.02h-.05s-.05.02-.05.02h-.05s-.05.02-.05.02h-.05s-.05.02-.05.02h-.05s-.05.02-.05.02h-.05s-.05.02-.05.02h-.05s-.05.02-.05.02h-.05s-.05.02-.05.02h-.05s-.05.02-.05.02h-.05s-.05.02-.05.02h-.05s-.05.02-.05.02h-.05s-.05.02-.05.02h-.05s-.05.02-.05.02h-.05s-.05.02-.05.02h-.05s-.05.02-.05.02h-.05s-.05.02-.05.02h-.05s-.05.02-.05.02h-.05s-.05.02-.05.02h-.05s-.05.02-.05.02h-.05s-.05.02-.05.02h-.05s-.05.02-.05.02h-.05s-.05.02-.05.02h-.05s-.05.02-.05.02h-.05s-.05.02-.05.02h-.06s-.05.02-.05.02h-.06s-.06.02-.06.02h-.06s-.06.02-.06.02h-.06s-.06.02-.06.02h-.06s-.07.02-.07.02h-.07s-.07.02-.07.02h-.07s-.07.02-.07.02h-.07s-.07.01-.07.01h-.08s-.08.01-.08.01h-.08s-.08.01-.08.01h-.08s-.08.02-.08.02h-.08s-.08.02-.08.02h-.08s-.08.02-.08.02h-.08s-.08.02-.08.02h-.08s-.07.01-.07.01h-.07s-.07.02-.07.02h-.08s-.07.01-.07.01h-.07s-.07.01-.07.01h-.08s-.08,0-.08,0h-.07s-.08,0-.08,0h-.07s-.07,0-.07,0h-.08s-.08,0-.08,0h-.08s-.08,0-.08,0h-.08s-.08,0-.08,0h-.33s-.08,0-.08,0h-.24s-.08,0-.08,0h-.09s-.09,0-.09,0h-.17s-.09,0-.09,0h-.09s-.09,0-.09,0h-.27s-.09,0-.09,0h-.09s-.09-.01-.09-.01h-.09s-.09-.02-.09-.02h-.09s-.09-.02-.09-.02h-.09s-.09-.02-.09-.02h-.09s-.09-.02-.09-.02h-.09s-.09-.02-.09-.02h-.09s-.09-.02-.09-.02h-.09s-.09-.02-.09-.02h-.09s-.09-.02-.09-.02h-.09s-.09-.02-.09-.02h-.09s-.09-.01-.09-.01h-.09s-.09-.02-.09-.02h-.09s-.09-.01-.09-.01h-.09s-.09,0-.09,0h-.09s-.09-.01-.09-.01h-.09s-.09,0-.09,0h-.09s-.09,0-.09,0h-.09s-.09,0-.09,0h-.17s-.08,0-.08,0h-.08s-.08,0-.08,0h-.16s-.08,0-.08,0h-.07s-.07,0-.07,0h-.07s-.07,0-.07,0h-.07s-.07,0-.07,0h-.15s-.08,0-.08,0h-.08s-.08,0-.08,0h-.07s-.08,0-.08,0h-.07s-.07,0-.07,0h-.07s-.07.02-.07.02h-.07s-.07.02-.07.02h-.07s-.06.02-.06.02h-.07s-.07.02-.07.02h-.06s-.06.02-.06.02h-.06s-.06.02-.06.02l-.06.02h-.06s-.07.03-.07.03h-.07s-.07.03-.07.03l-.07.02h-.07s-.07.03-.07.03h-.07s-.07.03-.07.03l-.07.02h-.07s-.07.03-.07.03h-.08s-.07.03-.07.03h-.08s-.07.02-.07.02l-.07.02h-.07s-.07.02-.07.02h-.07s-.07.02-.07.02h-.07s-.07.02-.07.02h-.07s-.07.02-.07.02h-.07s-.07.02-.07.02h-.07s-.06.01-.06.01h-.07s-.06.01-.06.01h-.06s-.06.02-.06.02h-.06s-.06.01-.06.01h-.06s-.06.01-.06.01h-.06s-.06.02-.06.02h-.06s-.06.02-.06.02h-.06s-.06.02-.06.02h-.06s-.06.02-.06.02h-.06s-.06.02-.06.02l-.07.02h-.06s-.07.03-.07.03l-.07.02-.07.02-.07.02-.07.02-.07.02-.07.02-.07.02-.07.02h-.07s-.07.02-.07.02l-.07.02h-.07s-.07.02-.07.02h-.07s-.07.02-.07.02h-.07s-.07.02-.07.02h-.07s-.07.02-.07.02h-.07s-.07.02-.07.02h-.07s-.08.01-.08.01h-.08s-.09,0-.09,0h-.09s-.09.01-.09.01h-.1s-.1,0-.1,0h-.21s-.1,0-.1,0h-.1s-.1,0-.1,0h-.1s-.09,0-.09,0h-.54s-.08,0-.08,0h-.08s-.07,0-.07,0h-.07s-.07-.01-.07-.01h-.07s-.07-.01-.07-.01h-.06s-.06-.01-.06-.01h-.06s-.06-.01-.06-.01h-.05s-.05-.01-.05-.01h-.05s-.05-.01-.05-.01h-.05s-.05,0-.05,0l-2.25.29h0s0-.05,0-.05l-.02-.1-.03-.12-.02-.13-.02-.14-.03-.14-.02-.14-.02-.14-.02-.14-.02-.14-.02-.13-.02-.13-.02-.12-.02-.12-.02-.12-.02-.12v-.12s-.03-.12-.03-.12l-.02-.12v-.12s-.02-.12-.02-.12l-.02-.12v-.13s-.02-.13-.02-.13v-.13s-.02-.14-.02-.14v-.14s-.02-.15-.02-.15v-.15s-.01-.16-.01-.16v-.16s0-.16,0-.16v-.49s0-.16,0-.16v-.16s.01-.15.01-.15v-.15s.02-.15.02-.15v-.14s.02-.13.02-.13v-.13s.01-.12.01-.12v-.12s.02-.11.02-.11v-.11s.01-.1.01-.1v-.1s0-.1,0-.1v-.1s.01-.09.01-.09v-.1s0-.1,0-.1v-.1s0-.1,0-.1v-.11s0-.11,0-.11v-.11s.01-.11.01-.11v-.11s.02-.12.02-.12v-.12s.02-.12.02-.12v-.12s.03-.12.03-.12v-.12s.03-.12.03-.12l.02-.11.02-.11.02-.11.02-.11.02-.1v-.09s.03-.09.03-.09v-.09s.02-.09.02-.09v-.08s.02-.08.02-.08v-.08s.02-.08.02-.08v-.08s.02-.08.02-.08v-.09s.02-.08.02-.08v-.09s.02-.09.02-.09v-.09s.01-.09.01-.09v-.09s0-.09,0-.09v-.09s0-.09,0-.09v-.09s0-.09,0-.09v-.08s0-.08,0-.08v-.16s0-.07,0-.07v-.07s0-.07,0-.07v-.14s0-.07,0-.07v-.13s0-.07,0-.07v-.14s0-.08,0-.08v-.17s0-.09,0-.09v-.19s0-.1,0-.1v-.1s0-.11,0-.11v-.11s0-.11,0-.11v-.32s0-.11,0-.11v-.11s0-.1,0-.1v-.21s0-.1,0-.1v-.1s0-.1,0-.1v-.09s0-.09,0-.09v-.09s0-.09,0-.09v-.08s0-.09,0-.09v-.09s0-.08,0-.08v-.09s0-.08,0-.08v-.17s0-.09,0-.09v-.18s0-.09,0-.09v-.18s0-.1,0-.1v-.19s0-.09,0-.09v-.29s0-.09,0-.09v-.37s0-.1,0-.1v-.09s0-.1,0-.1v-.1s.01-.1.01-.1v-.11s.01-.1.01-.1v-.11s.02-.11.02-.11v-.1s.02-.1.02-.1v-.1s.02-.1.02-.1v-.09s.02-.09.02-.09v-.09s.02-.09.02-.09v-.08s.02-.08.02-.08v-.08s.02-.07.02-.07v-.07s.02-.07.02-.07v-.07s.02-.07.02-.07v-.06s.02-.06.02-.06v-.06s.02-.06.02-.06v-.06s.02-.06.02-.06v-.06s.02-.06.02-.06v-.06s.02-.05.02-.05l.02-.05v-.06s.03-.06.03-.06l.02-.06.02-.06.02-.07.02-.07.02-.07.02-.08.03-.08.03-.09.03-.09.03-.09.03-.09.03-.09.03-.1.03-.1.03-.1.03-.11.03-.11.02-.11.03-.11.02-.11.02-.11.02-.11.02-.11.02-.12.02-.12v-.12s.02-.12.02-.12v-.12s.02-.12.02-.12v-.12s.01-.11.01-.11v-.11s0-.11,0-.11v-.75s0-.11,0-.11v-.21s0-.11,0-.11v-.11s0-.11,0-.11v-.24s0-.12,0-.12v-.12s0-.12,0-.12v-.12s0-.12,0-.12v-.12s-.01-.13-.01-.13v-.12s-.02-.12-.02-.12v-.13s-.02-.12-.02-.12v-.13s-.02-.13-.02-.13l-.02-.13v-.13s-.03-.12-.03-.12l-.02-.12v-.12s-.03-.11-.03-.11l-.02-.11v-.1s-.02-.1-.02-.1v-.09s-.02-.09-.02-.09v-.09s-.02-.08-.02-.08v-.08s-.02-.08-.02-.08v-.07s-.02-.07-.02-.07v-.07s-.01-.07-.01-.07v-.06s-.01-.06-.01-.06v-.06s-.01-.06-.01-.06v-.06s-.01-.05-.01-.05v-.06s0-.06,0-.06v-.05s0-.06,0-.06v-.06s0-.05,0-.05v-.06s0-.06,0-.06v-.06s0-.06,0-.06v-.06s0-.06,0-.06v-.13s0-.06,0-.06v-.07s0-.07,0-.07v-.07s0-.07,0-.07v-.07s0-.07,0-.07v-.07s0-.07,0-.07v-.13s0-.07,0-.07v-.13s0-.07,0-.07v-.22s0-.08,0-.08v-.08s0-.08,0-.08v-.17s0-.09,0-.09v-.09s0-.09,0-.09v-.09s0-.09,0-.09v-.09s0-.1,0-.1v-.09s0-.09,0-.09v-.09s0-.09,0-.09v-.09s0-.09,0-.09v-.08s0-.08,0-.08v-.08s0-.08,0-.08v-.08s0-.08,0-.08v-.08s0-.08,0-.08v-.08s.01-.08.01-.08v-.09s.01-.08.01-.08v-.08s.01-.08.01-.08v-.08s.02-.08.02-.08v-.07s.02-.07.02-.07v-.07s.01-.07.01-.07v-.07s.01-.07.01-.07v-.07s.01-.07.01-.07v-.07s.01-.07.01-.07v-.07s0-.07,0-.07v-.07s.01-.07.01-.07v-.15s0-.07,0-.07v-.07s0-.08,0-.08v-.08s0-.09,0-.09v-.09s0-.09,0-.09v-.09s0-.1,0-.1v-.32s0-.11,0-.11v-.44s0-.1,0-.1v-.95s0-.05,0-.05v-.18s0-.04,0-.04v-.04s0-.04,0-.04v-.04s.01-.04.01-.04v-.04s.02-.04.02-.04v-.04s.02-.04.02-.04v-.03s.02-.03.02-.03v-.03s.02-.03.02-.03v-.03s.02-.03.02-.03v-.03s.02-.03.02-.03v-.03s.03-.03.03-.03v-.03s.02-.03.02-.03v-.03s.02-.03.02-.03v-.04s.02-.04.02-.04l.02-.04v-.04s.02-.04.02-.04v-.05s.03-.05.03-.05v-.05s.02-.06.02-.06v-.06s.02-.06.02-.06v-.06s.02-.07.02-.07v-.06s.02-.07.02-.07v-.06s0-.07,0-.07v-.06s0-.06,0-.06v-.24s0-.06,0-.06v-.06s-.01-.06-.01-.06v-.06s-.02-.06-.02-.06v-.06s-.02-.06-.02-.06l-.02-.06-.02-.07-.02-.06-.02-.06-.02-.07-.02-.07-.02-.07-.02-.07-.02-.07-.02-.08-.02-.08-.03-.08-.02-.08-.03-.09-.02-.09-.02-.09-.02-.09-.03-.09-.02-.09-.02-.09-.02-.09-.02-.09-.02-.08-.02-.08-.02-.08-.02-.07-.02-.07-.02-.07-.02-.06-.02-.06-.02-.05-.02-.05-.02-.05v-.05s-.03-.05-.03-.05v-.04s-.02-.04-.02-.04v-.04s-.02-.04-.02-.04v-.04s-.02-.04-.02-.04v-.03s-.02-.04-.02-.04v-.04s-.02-.04-.02-.04v-.04s-.02-.04-.02-.04v-.04s-.02-.04-.02-.04v-.04s-.02-.04-.02-.04v-.04s-.02-.04-.02-.04v-.04s-.02-.05-.02-.05v-.04s-.02-.04-.02-.04v-.04s-.03-.04-.03-.04v-.04s-.03-.04-.03-.04v-.04s-.03-.04-.03-.04v-.04s-.03-.04-.03-.04l-.02-.04-.02-.03-.02-.03-.02-.03-.02-.03-.02-.03-.02-.03-.02-.03-.02-.03-.02-.03-.02-.03-.02-.03-.03-.03-.03-.03-.03-.03-.03-.04-.04-.04-.04-.04-.04-.04-.04-.04-.04-.04-.04-.04-.04-.04-.04-.04-.04-.04-.04-.04-.05-.04-.05-.04-.05-.04-.05-.03-.05-.03-.05-.03-.05-.03-.06-.03-.06-.03-.07-.02-.07-.02-.07-.02-.07-.02h-.07s-.07-.02-.07-.02h-.07s-.07-.01-.07-.01h-.35s-.06,0-.06,0h-.06s-.06,0-.06,0h-.05s-.05,0-.05,0h-.05s-.05,0-.05,0h-.05s-.04,0-.04,0h-.04s-.04,0-.04,0h-.04s-.04,0-.04,0h-.04s-.04,0-.04,0h-.04s-.04,0-.04,0h-.03s-.03,0-.03,0h-.03s-.03,0-.03,0h-.03s-.03,0-.03,0h-.03s-.02,0-.02,0h-.03s-.03,0-.03,0h-.02s-.02,0-.02,0h-.05s-.03,0-.03,0h-.05s-.02,0-.02,0h-.03s-.03,0-.03,0h-.06s-.03,0-.03,0h-.06s-.03,0-.03,0h-.03s-.03,0-.03,0h-.03s-.03,0-.03,0h-.03s-.03,0-.03,0h-.03s-.04,0-.04,0h-.03s-.03-.01-.03-.01h-.04s-.03,0-.03,0h-.04s-.04-.01-.04-.01h-.04s-.04-.02-.04-.02h-.04s-.04-.02-.04-.02h-.04s-.04-.02-.04-.02h-.04s-.04-.02-.04-.02h-.04s-.04-.02-.04-.02h-.04s-.05-.02-.05-.02h-.05s-.05-.02-.05-.02h-.05s-.05-.02-.05-.02h-.06s-.06-.02-.06-.02h-.06s-.06-.02-.06-.02h-.07s-.07-.02-.07-.02h-.07s-.07-.03-.07-.03h-.07s-.07-.03-.07-.03l-.08-.02-.07-.02-.08-.02-.08-.02-.08-.02-.08-.02-.08-.02-.08-.02-.08-.02-.07-.02-.08-.02-.07-.02-.07-.02h-.07s-.07-.02-.07-.02h-.06s-.06-.02-.06-.02h-.06s-.06-.02-.06-.02h-.05s-.05-.02-.05-.02h-.05s-.05-.01-.05-.01h-.05s-.05-.01-.05-.01h-.04s-.05-.01-.05-.01h-.04s-.04,0-.04,0h-.04s-.04,0-.04,0h-.04s-.05,0-.05,0h-.04s-.04,0-.04,0h-.05s-.04,0-.04,0h-.09s-.04,0-.04,0h-.09s-.05,0-.05,0h-.04s-.04,0-.04,0h-.04s-.04,0-.04,0h-.04s-.04,0-.04,0h-.04s-.04,0-.04,0h-.04s-.04,0-.04,0h-.04s-.04,0-.04,0h-.09s-.04,0-.04,0h-.05s-.05,0-.05,0h-.05s-.05,0-.05,0h-.05s-.05,0-.05,0h-.05s-.05,0-.05,0h-.05s-.06-.01-.06-.01h-.05s-.06-.01-.06-.01h-.06s-.06-.01-.06-.01h-.06s-.07-.02-.07-.02h-.07s-.07-.01-.07-.01h-.07s-.07,0-.07,0h-.31s-.08.01-.08.01h-.08s-.08.02-.08.02h-.07s-.07.02-.07.02h-.07s-.07.02-.07.02h-.07s-.07.02-.07.02h-.07s-.07.02-.07.02h-.07s-.06.02-.06.02h-.06s-.06.02-.06.02h-.06s-.06.02-.06.02h-.06s-.06.02-.06.02h-.06s-.05.02-.05.02h-.06s-.05.01-.05.01h-.05s-.05,0-.05,0h-.05s-.05.01-.05.01h-.05s-.05,0-.05,0h-.06s-.06,0-.06,0h-.06s-.06,0-.06,0h-.06s-.06,0-.06,0h-.06s-.06,0-.06,0h-.12s-.06,0-.06,0h-.05s-.05,0-.05,0h-.27s-.05,0-.05,0h-.05s-.05-.02-.05-.02h-.05s-.05-.02-.05-.02h-.05s-.05-.02-.05-.02h-.05s-.05-.03-.05-.03h-.05s-.05-.03-.05-.03l-.04-.02-.04-.02-.04-.02-.04-.02-.04-.02-.04-.02-.04-.02-.04-.02-.04-.02-.04-.02-.04-.02-.04-.02-.04-.02-.04-.02-.04-.02-.05-.02-.05-.02-.05-.02-.05-.02-.05-.02-.05-.02-.05-.03-.05-.02-.05-.03-.05-.02-.05-.03-.05-.03-.05-.02-.06-.03-.05-.03-.06-.03-.06-.02-.07-.03-.07-.03-.07-.02-.07-.02-.07-.02-.08-.02-.08-.02-.08-.02-.09-.02h-.08s-.08-.02-.08-.02h-.08s-.08-.02-.08-.02h-.08s-.07-.01-.07-.01h-.07s-.07,0-.07,0h-.07s-.07,0-.07,0h-.07s-.06,0-.06,0h-.37s-.07,0-.07,0h-.07s-.07,0-.07,0h-.07s-.07.02-.07.02h-.07s-.07.02-.07.02h-.07s-.06.02-.06.02h-.06s-.06.02-.06.02h-.06s-.05.02-.05.02h-.05s-.05.02-.05.02h-.05s-.05.02-.05.02h-.05s-.04.02-.04.02h-.04s-.04.02-.04.02h-.04s-.04.01-.04.01h-.04s-.03.01-.03.01h-.04s-.04.01-.04.01h-.03s-.03.01-.03.01h-.04s-.03,0-.03,0h-.04s-.04.01-.04.01h-.04s-.04,0-.04,0h-.04s-.04,0-.04,0h-.09s-.05,0-.05,0h-.11s-.06,0-.06,0h-.06s-.06-.01-.06-.01h-.06s-.07-.02-.07-.02h-.07s-.07-.02-.07-.02h-.07s-.07-.02-.07-.02h-.07s-.07-.03-.07-.03h-.07s-.08-.03-.08-.03h-.07s-.07-.03-.07-.03h-.08s-.08-.02-.08-.02h-.09s-.09-.02-.09-.02h-.09s-.09-.01-.09-.01h-.1s-.1,0-.1,0h-.1s-.1,0-.1,0h-.1s-.1.02-.1.02h-.1s-.1.03-.1.03l-.1.02-.09.02-.09.02-.09.02-.08.02-.08.02-.08.02-.07.02-.07.02-.07.02-.07.02-.07.02-.07.02-.07.02-.07.02-.07.02-.07.02h-.07s-.07.03-.07.03h-.07s-.07.02-.07.02h-.06s-.06.02-.06.02h-.06s-.06.02-.06.02h-.06s-.06.02-.06.02h-.06s-.05.01-.05.01h-.05s-.05.01-.05.01h-.05s-.05,0-.05,0h-.05s-.05,0-.05,0h-.11s-.05,0-.05,0h-.11s-.05,0-.05,0h-.05s-.05-.01-.05-.01h-.05s-.05-.01-.05-.01h-.05s-.05-.02-.05-.02h-.05s-.05-.02-.05-.02h-.06s-.05-.02-.05-.02l-.06-.02h-.06s-.06-.03-.06-.03l-.07-.02h-.07s-.07-.03-.07-.03h-.07s-.07-.02-.07-.02h-.07s-.07-.02-.07-.02h-.07s-.07-.02-.07-.02h-.07s-.07-.02-.07-.02h-.07s-.07-.01-.07-.01h-.07s-.07-.01-.07-.01h-.07s-.07,0-.07,0h-.07s-.07,0-.07,0h-.14s-.07,0-.07,0h-.13s-.06,0-.06,0h-.12s-.06,0-.06,0h-.18s-.05,0-.05,0h-.73s-.03,0-.03,0h-.02s-.03,0-.03,0h-.02s-.02,0-.02,0h-.02s-.02,0-.02,0h-.02s-.02-.01-.02-.01h-.02s-.02-.01-.02-.01h-.02s-.02-.02-.02-.02h-.02s-.02-.02-.02-.02h-.02s-.02-.02-.02-.02h-.02s-.02-.02-.02-.02h-.02s-.02-.02-.02-.02h-.02s-.02-.02-.02-.02h-.02s-.02-.02-.02-.02h-.02s-.02-.02-.02-.02h-.02s-.02-.03-.02-.03h-.02s-.01-.02-.01-.02h-.02s-.02-.03-.02-.03h-.01s-.01-.03-.01-.03l-.02-.02v-.02s-.02-.02-.02-.02v-.02s-.02-.02-.02-.02v-.02s-.02-.02-.02-.02v-.02s-.02-.02-.02-.02v-.02s-.02-.02-.02-.02v-.02s-.02-.02-.02-.02v-.02s-.02-.02-.02-.02v-.02s-.02-.02-.02-.02v-.02s-.02-.02-.02-.02v-.03s-.02-.03-.02-.03v-.03s-.01-.03-.01-.03v-.04s-.01-.04-.01-.04v-.04s0-.04,0-.04v-.04s0-.04,0-.04v-.23s0-.05,0-.05v-.05s0-.05,0-.05v-.05s0-.05,0-.05v-.05s.02-.05.02-.05v-.05s.02-.05.02-.05v-.05s.02-.05.02-.05v-.05s.02-.05.02-.05v-.05s.02-.05.02-.05v-.05s.03-.06.03-.06v-.05s.03-.06.03-.06l.02-.06.02-.06.02-.06.02-.07.02-.07.02-.08.02-.08.02-.08.02-.08.02-.08.02-.08.02-.08.02-.08.02-.08.02-.07.02-.07.02-.07v-.07s.03-.07.03-.07l.02-.06.02-.06.02-.06.02-.06.02-.06.02-.06.02-.06.02-.05.02-.05.02-.05.02-.05.02-.05.02-.05.02-.05.02-.04.02-.04.02-.04.02-.04.02-.04.02-.04.02-.04.02-.04.02-.04.02-.04.03-.04.03-.03.03-.04.03-.03.03-.03.04-.03.03-.03.04-.03.04-.03.04-.03.04-.02.04-.03.04-.02.04-.02.04-.02.05-.02.04-.02.05-.02.05-.02.05-.02.05-.02.05-.02.05-.02.05-.02.05-.02.05-.02.05-.02.05-.02.05-.02.05-.02.05-.02.05-.02.05-.02.05-.02.05-.02.05-.02.05-.02.06-.02.06-.02.06-.02.06-.02.06-.03.06-.03.06-.03.06-.03.06-.04.06-.04.06-.04.05-.04.05-.04.05-.03.05-.04.05-.03.04-.03.05-.03.04-.03.04-.03.04-.03.04-.03.04-.03.04-.02.03-.03.03-.02.03-.02.03-.02.03-.02.03-.02.03-.02.03-.02.02-.02.03-.02.03-.02.02-.02.03-.02.03-.02.03-.02.03-.02.03-.03.04-.03.04-.03.04-.03.04-.03.04-.03.04-.03.04-.03.04-.03.03-.03.04-.03.04-.03.03-.03.04-.03.03-.03.03-.03.03-.03.03-.03.04-.03.04-.03.03-.03.04-.03.04-.03.04-.04.04-.04.04-.04.04-.04.05-.05.05-.05.05-.05.05-.05.05-.05.05-.05.05-.05.05-.05.05-.05.04-.05.04-.05.04-.05.04-.05.04-.05.04-.05.04-.05.04-.05.04-.05.04-.05.04-.05.04-.04.04-.05.04-.04.04-.04.04-.04.03-.04.03-.04.03-.04.03-.04.03-.04.03-.04.03-.04.03-.04.03-.04.03-.04.03-.04.03-.04.04-.04.03-.04.04-.04.04-.04.04-.05.04-.05.04-.05.04-.05.04-.05.04-.06.04-.06.04-.06.04-.05.03-.05.03-.05.03-.05.03-.05.02-.05.02-.04.02-.04.02-.04.02-.04.02-.04.02-.04.02-.04.02-.03v-.04s.03-.03.03-.03v-.04s.03-.03.03-.03v-.03s.02-.04.02-.04v-.03s.03-.03.03-.03v-.03s.02-.03.02-.03v-.04s.03-.03.03-.03v-.04s.03-.03.03-.03v-.03s.03-.04.03-.04v-.03s.03-.03.03-.03l.02-.03.02-.03v-.03s.03-.03.03-.03v-.03s.03-.03.03-.03v-.03s.03-.02.03-.02v-.03s.02-.02.02-.02l.02-.02v-.02s.02-.02.02-.02l.02-.02v-.02s.03-.02.03-.02v-.02s.03-.02.03-.02l.02-.03.02-.02.02-.03.02-.03.02-.03.02-.03.03-.03.03-.03.03-.04.04-.04.04-.04.04-.04.04-.04.04-.04.04-.04.04-.04.04-.04.04-.04.04-.04.04-.04.04-.04.03-.04.04-.03.04-.04.04-.04.04-.04.04-.04.04-.04.04-.04.04-.04.04-.04.04-.04.04-.04.04-.04.04-.04.04-.04.04-.04.04-.04.04-.04.04-.04.04-.04.04-.04.04-.04.04-.04.04-.04.04-.04.04-.04.04-.04.04-.04.04-.05.04-.05.04-.05.04-.05.04-.05.04-.05.03-.05.03-.05.03-.05.03-.04.03-.04.03-.04.02-.04.02-.04.02-.04.02-.04.02-.04.02-.03.02-.04.02-.03.02-.03.02-.03.02-.03.02-.03.02-.03v-.03s.03-.03.03-.03v-.02s.02-.02.02-.02l.02-.03v-.02s.02-.02.02-.02v-.02s.02-.02.02-.02v-.02s.02-.02.02-.02v-.02s.02-.02.02-.02v-.02s.02-.02.02-.02v-.02s.02-.02.02-.02v-.02s.02-.02.02-.02v-.02s.02-.02.02-.02v-.02s.02-.02.02-.02v-.02s.02-.02.02-.02v-.02s.02-.02.02-.02v-.02s.02-.02.02-.02v-.02s.02-.02.02-.02v-.02s.03-.02.03-.02l.02-.02v-.02s.03-.03.03-.03l.02-.03.02-.03.02-.04.02-.03.02-.04.02-.04v-.04s.02-.04.02-.04l.02-.04v-.04s.02-.03.02-.03v-.04s.02-.03.02-.03v-.03s.02-.03.02-.03v-.03s.02-.03.02-.03v-.03s.02-.03.02-.03v-.03s.01-.03.01-.03v-.03s.01-.03.01-.03v-.03s.01-.03.01-.03v-.03s.01-.03.01-.03v-.03s.01-.04.01-.04v-.04s.01-.04.01-.04v-.04s.02-.04.02-.04v-.04s.02-.04.02-.04v-.05s.02-.05.02-.05l.02-.05v-.04s.03-.05.03-.05l.02-.05.02-.05.02-.04.02-.04.02-.04.02-.04.02-.04.02-.04.02-.04.02-.04.03-.04.03-.04.03-.04.03-.04.03-.03.03-.03.03-.03.03-.04.03-.03.03-.03.04-.04.04-.04.04-.04.04-.04.04-.04.04-.04.04-.04.04-.03.03-.04.04-.04.04-.04.03-.03.04-.04.03-.03.03-.04.03-.03.04-.04.04-.04.04-.04.04-.04.04-.04.04-.04.04-.04.04-.04.04-.04.04-.04.04-.04.04-.04.04-.04.04-.04.04-.04.04-.04.04-.04.04-.04.04-.04.03-.04.04-.04.04-.04.04-.04.03-.04.04-.04.04-.04.04-.05.03-.04.04-.04.04-.05.04-.05.04-.05.04-.05.04-.05.04-.05.04-.05.04-.05.04-.05.04-.05.04-.05.04-.05.04-.05.04-.05.04-.05.04-.04.04-.05.04-.05.04-.05.03-.05.04-.05.03-.04.03-.05.03-.04.03-.05.03-.05.03-.05.03-.05.03-.05.04-.05.03-.05.04-.05.04-.05.04-.05.04-.05.04-.05.04-.05.04-.05.04-.05.04-.05.04-.05.04-.05.04-.05.04-.05.04-.05.04-.04.04-.04.04-.04.04-.04.04-.04.03-.04.04-.04.03-.04.03-.04.04-.03.03-.03.03-.03.03-.03.03-.03.03-.03.03-.04.03-.03.04-.04.03-.04.04-.04.03-.04.03-.04.03-.04.03-.04.03-.04.02-.04.03-.04.02-.04.02-.04.02-.03.02-.03.02-.03.02-.03.02-.03.02-.03.02-.03.02-.03.02-.03.02-.03v-.04s.03-.04.03-.04l.02-.04v-.04s.03-.04.03-.04v-.04s.02-.04.02-.04v-.04s.02-.04.02-.04v-.04s.02-.04.02-.04v-.04s.02-.04.02-.04v-.04s.02-.04.02-.04v-.04s.02-.04.02-.04v-.04s.01-.03.01-.03v-.03s.02-.03.02-.03v-.03s.01-.03.01-.03v-.03s.01-.03.01-.03v-.03s.01-.03.01-.03v-.02s.02-.03.02-.03v-.02s.01-.02.01-.02v-.03s.01-.02.01-.02v-.02s.02-.02.02-.02v-.02s.02-.03.02-.03v-.02s.02-.03.02-.03v-.03s.02-.03.02-.03v-.03s.02-.03.02-.03l.02-.04v-.04s.03-.04.03-.04l.02-.04.02-.04.02-.04.02-.04.02-.04.02-.04.02-.04.02-.04.02-.04.02-.03.02-.03.02-.03v-.03s.03-.03.03-.03l.02-.03.02-.03v-.03s.03-.03.03-.03l.02-.02v-.03s.03-.02.03-.02l.02-.02v-.02s.03-.02.03-.02l.02-.02v-.02s.03-.02.03-.02l.02-.02.02-.02.02-.02.02-.02.02-.02.02-.03.02-.02.02-.03.02-.03.02-.03.02-.03.02-.03.02-.03.02-.03.02-.03.02-.03.03-.04.02-.04.03-.04.03-.04.03-.05.03-.05.03-.05.03-.05.03-.05.03-.05.03-.05.03-.05.03-.05.03-.05.03-.05.02-.05.03-.05.02-.04.02-.05.02-.04.02-.04.02-.04.02-.04.02-.04.02-.04.02-.04.02-.04.02-.04.02-.04.02-.04.02-.04.02-.04.02-.04.02-.04.02-.04.02-.04.02-.04.02-.05.02-.05.02-.05.02-.05.02-.05.02-.05.02-.05.02-.05.02-.05.02-.05.02-.05.02-.05.02-.05.02-.05.02-.05.03-.05.02-.05.03-.04.03-.05.03-.04.03-.04.03-.04.03-.04.03-.04.04-.04.04-.04.03-.03.04-.04.03-.03.04-.03.04-.03.04-.03.03-.03.04-.02.03-.02.04-.02.03-.02.04-.02.03-.02.04-.02.03-.02.03-.02.03-.02.04-.02.03-.02.04-.02.03-.02.03-.02.03-.02.03-.02.03-.02.03-.02.04-.02.03-.02.03-.02.04-.02.03-.02.04-.02.04-.02.04-.02.04-.02.04-.02.04-.02.04-.02.04-.02.04-.03.04-.02.04-.03.04-.03.04-.03.04-.03.04-.03.04-.03.04-.03.04-.03.04-.03.04-.03.04-.04.04-.03.04-.04.04-.04.04-.04.04-.04.04-.04.04-.04.04-.04.04-.04.03-.04.04-.04.04-.04.04-.04.04-.04.04-.04.04-.04.04-.05.04-.05.04-.04.04-.05.04-.05.04-.05.04-.05.04-.05.03-.05.04-.05.03-.05.04-.05.03-.05.04-.05.03-.05.03-.05.03-.06.04-.06.03-.06.03-.06.03-.07.03-.06.03-.06.03-.06.02-.06.03-.06.02-.06.02-.05.02-.06.02-.05.02-.05.02-.05.02-.05.02-.05.02-.05.02-.04.02-.05.02-.05.02-.05.02-.05.02-.05.02-.05.02-.05.02-.06.02-.07.02-.07.02-.07.02-.07.02-.07.02-.07.02-.07.02-.07.02-.07.02-.07v-.06s.03-.06.03-.06v-.05s.02-.05.02-.05v-.05s.02-.05.02-.05v-.05s.02-.04.02-.04v-.04s.02-.04.02-.04v-.04s.02-.04.02-.04v-.04s.02-.04.02-.04v-.03s.02-.04.02-.04v-.03s.02-.04.02-.04v-.03s.02-.04.02-.04v-.04s.02-.03.02-.03l.02-.04.02-.04.02-.04.02-.04.02-.04.02-.03.02-.03.02-.03.02-.03.02-.03.02-.03.02-.03.02-.03.02-.03.02-.03.02-.03.02-.02.02-.03.02-.02.02-.03.02-.02.02-.03.02-.02.02-.03.02-.03.02-.03.03-.03.02-.03.03-.03.03-.03.03-.03.03-.03.03-.03.03-.03.03-.04.03-.03.03-.03.03-.03.03-.03.03-.03.03-.03.02-.03.03-.03.02-.03.03-.03.02-.03.02-.02.02-.03.02-.03.02-.02.02-.03.02-.03.02-.03.03-.03.02-.03.03-.03.03-.04.03-.04.03-.04.03-.04.04-.04.03-.04.03-.04.04-.04.03-.04.04-.04.03-.04.03-.04.04-.04.03-.04.03-.04.03-.04.03-.04.03-.04.03-.04.03-.04.02-.03.03-.04.02-.03.02-.04.02-.03.02-.03.02-.04.02-.04.03-.04.03-.04.03-.04.03-.04.03-.04.03-.04.03-.04.03-.04.03-.05.03-.05.04-.05.03-.05.04-.05.03-.05.04-.05.03-.05.03-.05.03-.04.03-.04.03-.04.03-.04.03-.04.03-.04.03-.04.03-.04.03-.04.03-.04.03-.03.03-.03.03-.03.03-.03.03-.03.03-.03.03-.02.03-.03.02-.02.03-.03.03-.02.03-.02.03-.02.02-.02.03-.02.03-.02.03-.02.02-.02.02-.02.03-.02.02-.02.02-.02.02-.02.02-.02.02-.02.02-.02.02-.02.02-.02.02-.02.02-.02.02-.02.02-.02.02-.02.02-.02.02-.02.02-.02.02-.02.02-.02.02-.02.02-.02.02-.03.02-.02.03-.03.03-.03.03-.03.03-.03.03-.03.03-.03.03-.03.04-.03.03-.03.03-.03.03-.03.03-.03.04-.03.03-.03.03-.03.04-.03.03-.03.03-.03.03-.03.03-.03.03-.03.03-.03.03-.03.03-.03.03-.03.03-.03.03-.03.03-.03.03-.03.03-.03.03-.02.03-.03.03-.03.03-.02.03-.03.03-.02.03-.03.03-.02.03-.02.03-.02.03-.03.03-.02.03-.02.03-.02.03-.02.03-.02.03-.02.03-.02.03-.02.03-.02.03-.02.03-.02.03-.02.03-.02.04-.02.04-.02.04-.02.03-.02.04-.02.04-.02.04-.02.04-.02.04-.02.04-.02.04-.02.03-.02.04-.02.04-.03.04-.03.04-.03.04-.03.04-.03.04-.03.04-.04.04-.04.04-.04.04-.04.04-.04.04-.04.04-.04.04-.04.04-.04.04-.04.04-.04.04-.04.04-.04.04-.05.05-.05.04-.05.05-.05.05-.05.05-.05.05-.05.05-.05.05-.05.05-.05.04-.05.05-.05.04-.05.04-.05.04-.05.04-.05.04-.05.04-.05.04-.05.04-.05.04-.05.04-.05.04-.06.04-.06.04-.06.04-.07.03-.07.03-.07.03-.07.03-.07.03-.07.02-.07.02-.07.02-.07.02-.07.02-.07.02-.07.02-.07v-.07s.03-.06.03-.06v-.06s.02-.06.02-.06v-.05s.02-.05.02-.05v-.05s.01-.05.01-.05v-.04s.02-.04.02-.04v-.04s0-.04,0-.04v-.04s.01-.04.01-.04v-.04s0-.04,0-.04v-.03s0-.03,0-.03v-.03s0-.03,0-.03v-.03s0-.03,0-.03v-.03s0-.03,0-.03v-.03s.01-.03.01-.03v-.03s.01-.03.01-.03v-.03s.02-.03.02-.03v-.03s.02-.03.02-.03v-.03s.02-.03.02-.03v-.03s.02-.03.02-.03v-.03s.02-.03.02-.03v-.03s.02-.03.02-.03v-.03s.02-.03.02-.03v-.02s.02-.03.02-.03v-.03s.02-.03.02-.03v-.03s.02-.03.02-.03v-.03s.02-.03.02-.03v-.03s.02-.03.02-.03v-.03s.02-.03.02-.03l.02-.04.02-.04.02-.04.02-.04.02-.04.02-.04.02-.04.02-.04.02-.04.02-.04.02-.05.02-.05.02-.05.02-.05.02-.06.02-.06.02-.07.02-.07.02-.07.02-.07v-.07s.03-.06.03-.06v-.07s.02-.06.02-.06v-.06s.02-.06.02-.06v-.06s.02-.05.02-.05v-.05s.02-.05.02-.05v-.05s.01-.05.01-.05v-.05s.01-.04.01-.04v-.04s.01-.04.01-.04v-.04s.01-.04.01-.04v-.04s.01-.04.01-.04v-.04s.01-.04.01-.04v-.04s.02-.04.02-.04v-.03s.01-.04.01-.04v-.03s.01-.03.01-.03v-.03s.02-.03.02-.03v-.04s.02-.03.02-.03v-.03s.02-.03.02-.03v-.03s.02-.04.02-.04v-.04s.02-.04.02-.04v-.04s.02-.05.02-.05l.02-.05v-.05s.03-.05.03-.05l.02-.05v-.05s.03-.05.03-.05v-.05s.02-.05.02-.05l.02-.04v-.04s.02-.04.02-.04v-.04s.02-.04.02-.04v-.04s.02-.04.02-.04v-.04s.02-.04.02-.04v-.04s.02-.03.02-.03v-.03s.02-.03.02-.03v-.04s.02-.03.02-.03v-.03s.02-.03.02-.03v-.03s.02-.03.02-.03v-.03s.02-.03.02-.03v-.03s.02-.02.02-.02v-.03s.03-.03.03-.03v-.02s.02-.02.02-.02v-.02s.03-.02.03-.02v-.02s.03-.02.03-.02l.02-.02.02-.02.02-.02.02-.02.02-.02.02-.02.02-.02.02-.02.02-.02.02-.02.02-.02.02-.02.02-.02.02-.02.02-.02.03-.02.03-.02.03-.02.03-.02.03-.02h.03s.04-.03.04-.03l.03-.02h.04s.04-.03.04-.03h.04s.04-.02.04-.02h.04s.04-.02.04-.02h.05s.05-.02.05-.02h.05s.05-.02.05-.02h.05s.06-.02.06-.02h.06s.07-.02.07-.02h.06s.07-.02.07-.02h.07s.07-.02.07-.02h.07s.07-.01.07-.01h.06s.06,0,.06,0h.06s.06-.01.06-.01h.06s.05,0,.05,0h.05s.05,0,.05,0h.05s.05,0,.05,0h.1s.05,0,.05,0h.05s.04,0,.04,0h.04s.04,0,.04,0h.04s.04,0,.04,0h.04s.04-.01.04-.01h.04s.04-.01.04-.01h.03s.03-.01.03-.01h.03s.03-.01.03-.01h.03s.03-.01.03-.01h.03s.03-.01.03-.01h.03s.03-.01.03-.01h.02s.03-.02.03-.02h.02s.02-.02.02-.02h.02s.02-.02.02-.02h.03s.02-.02.02-.02h.02s.02-.02.02-.02h.02s.02-.02.02-.02h.02s.02-.02.02-.02h.02s.02-.02.02-.02h.02s.02-.02.02-.02h.02s.02-.02.02-.02l.02-.02h.02s.02-.03.02-.03l.02-.02.02-.02.02-.02.02-.02.02-.02.02-.02.02-.02.02-.02.02-.02.02-.02.02-.02.02-.02.02-.02.02-.02v-.02s.03-.02.03-.02v-.02s.02-.02.02-.02l.02-.02v-.02s.02-.02.02-.02v-.02s.02-.02.02-.02v-.02s.02-.02.02-.02v-.02s.02-.02.02-.02v-.02s.02-.02.02-.02v-.02s.02-.02.02-.02v-.02s.02-.03.02-.03v-.02s.02-.02.02-.02v-.03s.02-.03.02-.03v-.03s.02-.03.02-.03v-.03s.02-.03.02-.03v-.04s.02-.03.02-.03v-.04s.02-.04.02-.04v-.04s.02-.04.02-.04v-.04s.02-.04.02-.04v-.04s.02-.04.02-.04v-.04s.02-.04.02-.04v-.04s.02-.04.02-.04v-.04s.02-.04.02-.04v-.04s.02-.04.02-.04v-.04s.02-.04.02-.04v-.04s.02-.04.02-.04v-.04s.02-.04.02-.04v-.04s.03-.05.03-.05l.02-.05v-.05s.03-.05.03-.05l.02-.06.02-.07.02-.07.02-.07.02-.07.02-.07v-.07s.02-.07.02-.07l.02-.07v-.07s.02-.07.02-.07v-.07s.02-.06.02-.06v-.06s.02-.06.02-.06v-.05s.02-.05.02-.05v-.05s.01-.05.01-.05v-.05s.02-.04.02-.04v-.04s.02-.04.02-.04v-.04s.02-.04.02-.04v-.04s.02-.04.02-.04v-.03s.02-.04.02-.04v-.03s.02-.04.02-.04v-.03s.02-.04.02-.04v-.03s.03-.04.03-.04v-.04s.03-.04.03-.04v-.04s.03-.04.03-.04l.02-.04.02-.04.02-.04.02-.04.02-.04.02-.03.02-.04v-.03s.03-.03.03-.03l.02-.03v-.03s.03-.03.03-.03l.02-.03v-.03s.03-.03.03-.03l.02-.03v-.02s.03-.03.03-.03l.02-.02.02-.03.02-.03.02-.03.02-.03.02-.03.03-.04.03-.04.03-.04.03-.04.03-.04.03-.04.03-.04.03-.04.03-.04.03-.04.03-.04.03-.04.03-.03.02-.03.03-.03.03-.03.03-.03.03-.03.03-.03.03-.03.03-.03.03-.03.03-.03.03-.03.03-.03.03-.03.03-.03.03-.03.03-.03.03-.03.03-.03.03-.03.03-.03.03-.03.03-.03.03-.02.03-.03.02-.03.03-.02.02-.02.03-.03.02-.02.02-.02.02-.02.02-.02.02-.02.02-.02.02-.02.02-.02.02-.02.02-.02.02-.02.02-.02.02-.02.02-.02.02-.03.03-.02.03-.03.03-.03.03-.03.03-.03.04-.04.03-.04.03-.04.03-.04.03-.04.03-.04.03-.04.03-.04.03-.04.03-.04.03-.04.03-.03.03-.04.03-.04.03-.03.03-.04.03-.04.03-.03.03-.04.03-.04.03-.04.03-.04.03-.04.03-.04.03-.04.03-.04.03-.04.03-.04.03-.04.03-.04.03-.04.03-.04.04-.04.03-.04.04-.04.04-.04.03-.04.04-.04.04-.04.04-.04.04-.04.04-.04.04-.04.04-.04.04-.04.04-.04.04-.03.05-.04.05-.03.05-.03.05-.03.05-.03.05-.03.05-.03.05-.03.05-.03.05-.03.05-.02.05-.03.05-.03.05-.02.05-.03.05-.02.05-.02.05-.02.05-.02.05-.02.05-.02.04-.02.05-.02.05-.02.04-.02.04-.02.04-.02.04-.02.04-.02.04-.02.04-.02.04-.02.04-.02.04-.02.04-.02.04-.02.04-.02.04-.02.04-.02.04-.02.04-.02.04-.02.04-.02.04-.02.04-.02.04-.02.03-.02.04-.02.04-.02.04-.02.04-.02.04-.02.04-.02.04-.02.03-.02.04-.02.04-.02.03-.02.03-.02.04-.02.03-.02.04-.02.03-.02.03-.02.04-.02.03-.02.03-.02.04-.03.03-.03.04-.02.03-.03.04-.03.04-.03.04-.03.04-.03.04-.03.04-.03.04-.03.04-.03.04-.03.04-.03.04-.03.04-.03.04-.03.04-.02.04-.03.04-.02.04-.02.04-.03.04-.02.04-.02.04-.02.04-.02.04-.02.04-.02.04-.02.04-.02.05-.02.04-.02.04-.02.04-.02.05-.02.04-.02.04-.02h.04s.04-.03.04-.03h.04s.04-.02.04-.02h.04s.04-.02.04-.02h.04s.04-.02.04-.02h.04s.04-.02.04-.02h.04s.04-.02.04-.02h.04s.04-.02.04-.02h.04s.04-.01.04-.01h.04s.04,0,.04,0h.04s.04-.01.04-.01h.04s.04,0,.04,0h.04s.04,0,.04,0h.04s.04,0,.04,0h.04s.04,0,.04,0h.07s.04,0,.04,0h.04s.03,0,.03,0h.03s.03,0,.03,0h.09s.03,0,.03,0h.11s.03,0,.03,0h.24s.03,0,.03,0h.06s.03,0,.03,0h.03s.03,0,.03,0h.03s.03,0,.03,0h.03s.03,0,.03,0h.05s.02,0,.02,0h.03s.02,0,.02,0h.03s.02-.01.02-.01h.03s.02-.02.02-.02h.03s.02-.02.02-.02h.02s.03-.02.03-.02l.02-.02.02-.02.02-.02.02-.02.02-.02.02-.02.02-.02.02-.02.02-.02.02-.03.02-.03.02-.03.02-.03.02-.03v-.03s.03-.04.03-.04v-.03s.02-.04.02-.04v-.03s.02-.04.02-.04v-.04s.02-.04.02-.04v-.04s.01-.04.01-.04v-.04s0-.04,0-.04v-.04s0-.04,0-.04v-.21s0-.03,0-.03v-.06s0-.03,0-.03v-.03s0-.03,0-.03v-.03s0-.03,0-.03v-.05s0-.02,0-.02v-.02s0-.02,0-.02v-.03s0-.02,0-.02v-.02s-.01-.02-.01-.02v-.02s0-.02,0-.02v-.02s-.01-.02-.01-.02v-.02s-.01-.02-.01-.02v-.02s0-.02,0-.02v-.02s-.01-.02-.01-.02v-.02s-.01-.02-.01-.02v-.02s-.01-.02-.01-.02v-.02s-.01-.02-.01-.02v-.02s-.01-.02-.01-.02v-.02s0-.02,0-.02v-.02s0-.02,0-.02v-.02s0-.02,0-.02v-.04s0-.02,0-.02v-.02s.01-.02.01-.02v-.02s.02-.02.02-.02l.02-.02v-.02s.03-.02.03-.02l.02-.02.02-.02.02-.02.02-.02.02-.02h.02s.02-.03.02-.03h.02s.02-.02.02-.02h.02s.02-.02.02-.02h.02s.02-.02.02-.02h.02s.02-.02.02-.02h.02s.02-.02.02-.02h.02s.02-.02.02-.02h.02s.02,0,.02,0h.02s.02-.01.02-.01h.02s.02,0,.02,0h.04s.02,0,.02,0h.05s.02,0,.02,0h.07s.02,0,.02,0h.02s.02,0,.02,0h.02s.02.01.02.01h.02s.02.02.02.02h.02s.02.02.02.02h.02s.02.02.02.02h.02s.02.02.02.02h.02s.02.02.02.02h.02s.02.02.02.02h.02s.02.02.02.02h.02s.02.02.02.02h.02s.02.02.02.02h.02s.02.02.02.02h.02s.02.02.02.02h.02s.02.02.02.02h.02s.02.02.02.02h.02s.02.02.02.02h.02s.02.02.02.02h.02s.02.02.02.02h.02s.02.02.02.02h.02s.02.02.02.02h.02s.02.02.02.02h.02s.02.02.02.02h.02s.02.02.02.02h.02s.02.02.02.02h.02s.02.02.02.02h.02s.02.02.02.02h.02s.02.02.02.02h.02s.02.02.02.02h.02s.02.02.02.02h.02s.02.02.02.02h.02s.02.02.02.02h.02s.02.02.02.02h.02s.02.02.02.02h.02s.02.02.02.02h.02s.02.02.02.02h.02s.02.02.02.02h.02s.02.02.02.02h.02s.02.02.02.02h.01s.02.02.02.02h.02s.02.02.02.02h.02s.02.02.02.02h.02s.02.02.02.02h.02s.02.01.02.01h.02s.02.02.02.02h.02s.02.02.02.02h.02s.02.02.02.02h.02s.02.02.02.02h.02s.03.02.03.02h.02s.03.02.03.02h.03s.02.02.02.02h.03s.02.02.02.02h.03s.02.02.02.02h.03s.02.02.02.02h.03s.02.02.02.02h.03s.02.02.02.02h.02s.03.02.03.02h.02s.03.02.03.02h.02s.03.03.03.03h.02s.03.03.03.03l.03.02h.03s.03.03.03.03l.03.02.03.02.03.02.03.02.03.02.03.02.03.02.03.02.03.02.03.02.02.02.03.02.03.02.02.02.02.02.02.02.02.02.02.02.02.02.02.02.02.02.02.02.02.02.02.02.02.02.02.02.02.02.02.02.02.02.02.02.02.02.02.02.02.02.02.02.02.02.02.02.02.02.02.02.02.02v.02s.03.02.03.02l.02.02v.02s.02.02.02.02l.02.02v.02s.03.02.03.02v.02s.03.02.03.02l.02.03.02.03.02.04.02.04.03.04.03.04.03.05.04.05.04.05.04.05.04.06.04.06.04.06.04.06.04.06.04.06.04.06.04.06.04.06.04.06.04.06.04.06.04.06.04.06.04.06.04.06.04.07.04.06.04.07.04.07.04.07.04.07.04.07.05.08.05.08.05.09.05.09.05.09.05.09.05.09.05.09.05.09.05.09.05.09.05.09.05.09.05.09.05.09.04.08.04.08.04.08.04.07.04.07.04.08.04.07.04.07.04.07.04.07.04.08.04.08.04.08.04.08.04.07.04.07.04.07.04.08.05.07.04.07.04.07.05.07.05.07.04.07.05.07.04.07.04.07.04.06.04.06.04.06.04.06.04.06.04.06.04.06.04.05.04.06.03.05.04.05.03.05.03.05.04.05.03.05.03.05.03.05.03.05.03.05.03.05.03.05.03.05.03.05.03.05.03.05.03.05.03.05.03.05.02.05.03.05.02.05.03.05.03.05.02.05.03.05.03.05.02.05.03.05.03.05.03.05.03.06.03.05.03.06.03.06.03.06.04.07.04.07.04.07.04.07.04.08.04.08.05.08.04.09.05.08.05.09.05.09.05.08.05.09.05.08.05.08.05.08.05.08.05.08.05.08.05.08.05.08.05.08.05.08.05.09.06.09.06.09.05.09.06.09.06.09.06.09.06.09.06.09.06.09.06.09.06.09.06.09.06.09.05.08.05.08.05.07.05.08.05.07.05.07.05.07.05.07.05.07.05.06.05.06.04.06.04.05.04.05.04.05.04.05.04.05.04.05.04.04.03.04.03.04.03.04.03.04.03.04.02.04.02.04.02.03.02.03.02.03.02.03.02.03.02.03.02.03.02.03.02.03.02.03.02.03.02.03.02.03.02.02.02.02.02.03.02.03.02.02.02.03.02.03.02.03.02.03.02.04.02.04.02.04.02.04.03.05.03.05.03.05.04.05.04.05.04.06.04.05.04.06.04.06.04.06.04.07.05.07.05.07.05.07.05.07.05.07.05.07.06.07.06.07.06.07.06.07.06.07.07.08.07.08.07.08.07.08.08.08.08.09.08.09.08.09.09.09.08.09.08.09.08.09.08.08.08.09.07.08.07.08.07.08.07.07.07.07.06.07.06.07.05.07.05.06.05.06.05.06.05.06.05.06.04.06.05.06.05.06.04.06.05.07.04.07.05.07.04.07.05.07.04.07.04.07.04.07.04.07.04.07.04.07.04.07.04.07.04.07.04.07.04.07.04.07.04.07.04.07.04.06.04.07.04.06.04.06.04.06.03.06.04.06.03.06.03.06.03.06.04.06.03.06.04.06.03.07.04.07.04.07.04.07.04.07.04.07.04.07.04.07.04.08.04.08.04.08.04.09.04.09.04.09.04.09.04.09.04.09.04.1.04.09.04.1.04.09.04.09.04.09.04.1.04.09.04.1.04.1.04.1.04.1.04.09.04.1.05.09.04.09.05.09.04.09.05.09.05.09.05.09.05.09.05.09.05.09.05.09.05.09.05.09.05.09.05.09.05.09.05.09.05.09.05.08.05.08.05.08.05.09.05.08.05.09.05.08.04.08.04.08.05.08.04.08.04.08.04.07.04.07.04.08.04.08.04.07.04.07.04.07.04.07.04.07.04.07.04.07.04.07.04.07.04.07.05.08.05.08.05.08.05.08.05.08.05.08.05.07.05.08.05.08.05.08.05.08.05.08.05.08.05.09.05.09.05.09.05.09.05.08.05.08.05.09.05.09.05.08.05.09.05.08.05.08.05.09.05.08.05.08.05.08.05.08.06.08.06.09.06.08.06.09.06.09.07.09.07.09.07.09.07.09.07.09.07.09.07.09.07.09.07.09.07.09.07.09.07.09.07.09.07.09.07.09.07.09.07.09.06.09.06.08.06.08.05.08.05.07.05.07.05.07.05.07.05.07.04.07.05.06.04.06.04.06.04.06.04.05.04.06.04.06.04.06.04.06.04.06.04.06.04.06.04.06.04.06.04.06.04.05.04.06.03.05.04.06.03.06.04.05.03.05.03.06.03.05.03.06.03.06.03.05.03.06.03.06.03.06.03.07.03.07.03.07.04.07.03.07.04.08.04.08.04.08.04.09.04.09.04.09.04.09.04.09.04.09.04.09.04.09.04.1.04.09.04.09.04.09.04.09.04.09.04.09.04.09.05.09.05.09.05.09.05.09.05.09.06.09.05.09.06.1.06.09.06.1.06.09.07.1.07.1.07.1.07.1.07.09.07.1.07.1.07.09.07.09.07.1.07.09.07.09.07.09.07.09.07.1.07.09.07.1.07.09.07.1.07.09.07.1.07.09.07.09.07.09.08.1.08.1.08.1.08.1.08.1.09.11.08.11.09.1.08.11.09.11.08.1.08.1.08.11.08.11.08.1.08.11.08.1.07.1.07.1.07.1.07.09.07.1.06.09.06.09.06.09.06.08.05.08.05.08.05.08.05.07.05.07.04.07.05.07.04.07.04.06.04.06.04.05.04.06.04.05.04.05.04.05.03.05.03.05.03.05.03.04.03.04.03.04.03.04.02.04.03.04.02.04.02.04.02.04.02.04.02.03.02.04.02.03.02.03.02.04.02.03.02.03.02.03.02.04.02.04.02.04.02.04.02.05.02.04.02.05.03.05.03.05.03.05.03.05.03.05.04.06.04.06.03.06.04.06.04.06.04.06.04.06.04.06.04.06.04.06.04.06.04.06.04.06.04.06.04.06.04.06.04.06.04.06.04.06.04.06.04.06.04.06.04.06.05.06.05.06.04.06.05.06.05.06.05.06.05.06.04.06.05.06.05.06.04.06.05.06.05.06.05.06.05.06.05.06.05.06.05.06.05.06.05.06.05.06.04.06.05.05.05.06.04.06.05.06.04.05.04.05.04.05.04.05.04.05.04.05.04.05.04.05.04.05.03.05.04.05.03.05.04.05.04.05.03.05.04.05.04.05.04.06.04.06.04.06.04.06.04.07.04.06.05.07.05.07.05.07.05.07.05.07.05.07.05.07.05.08.05.07.05.07.06.07.05.07.05.08.06.07.06.07.05.07.06.07.05.07.06.07.05.07.05.07.05.07.05.07.05.07.05.06.05.06.05.06.05.06.05.06.05.05.05.06.05.06.05.05.05.05.04.05.04.05.04.05.04.05.04.05.04.05.04.05.04.05.04.05.04.05.04.04.04.05.04.04.04.05.04.04.04.04.03.04.03.04.04.04.03.04.03.04.03.04.03.04.03.04.03.04.02.04.03.04.02.04.03.04.02.03.02.03.02.04.02.03.03.04.02.04.02.04.03.04.03.04.02.04.03.04.03.04.02.04.03.04.02.04.02.04.02.04.02.04.02.04.02.04.02.04.02.04.02.04.02.04.02.04.02.04.02.03.02.04.02.03.02.03.02.03.02.03v.03s.02.03.02.03l.02.03v.03s.02.03.02.03v.03s.02.02.02.02v.03s.02.02.02.02v.02s.02.03.02.03v.02s.02.02.02.02v.02s.02.02.02.02v.03s.02.02.02.02v.02s.02.03.02.03v.02s.02.02.02.02v.02s.02.02.02.02v.02s.02.02.02.02v.02s.02.02.02.02v.03s.02.02.02.02v.03s.02.02.02.02v.03s.02.03.02.03v.03s.02.03.02.03v.03s.01.03.01.03v.03s.02.03.02.03v.03s.01.02.01.02v.03s.01.02.01.02v.03s.01.02.01.02v.02s.01.02.01.02v.02s.01.02.01.02v.02s0,.02,0,.02v.02s.01.02.01.02v.02s.01.02.01.02v.02s.01.02.01.02v.02s0,.02,0,.02v.02s0,.02,0,.02v.02s0,.02,0,.02v.02s0,.02,0,.02v.02s0,.02,0,.02v.04s0,.02,0,.02v.06s0,.02,0,.02v.08Z"/>
    <path class="cls-1" d="M1,83.38c-2.81-1.01,1.1-4.03,1.9-5.34,3.14-3.75,6.33-7.47,9.33-11.34,10.91-14.22,20.67-29.11,29.97-44.4,1.45-2.26,4.91-.21,3.54,2.17-3.47,5.69-7.09,11.29-10.77,16.85-6.73,10.02-13.34,19.56-20.76,28.96-2.91,3.65-5.94,7.21-9.24,10.51-1.18.97-2.3,2.62-3.96,2.59Z"/>
    <path class="cls-1" d="M78.55,83.36c-4.04-3.88-6.63-9.05-10.04-13.46-6.66-9.14-12.94-17.97-17.7-28.14-2.61-5.25-5.07-10.61-7.02-16.14-.27-.9-.68-1.93-.23-2.83,1.66-2.03,3.14,1.24,3.77,2.59,3.62,7.51,7.23,15.03,11.29,22.31,3.9,6.66,8.35,13.09,12.61,19.49,2.52,3.71,4.83,7.54,7.46,11.16.75,1.43,3.15,3.27,1.82,4.9-.51.51-1.39.59-1.96.13Z"/>
    <path class="cls-1" d="M56.54,84.58c-1.66-.3-5.19.87-5.55-1.43-.07-.79.55-1.59,1.38-1.63,5.95-.1,11.88-.86,17.84-.97,2.66.06,7.7-.61,9.21,2.04.4,2.54-3.26,1.67-4.8,1.85-6.02.1-12.05.07-18.07.14Z"/>
    <path class="cls-1" d="M27.96,84.83c-5.59-.34-11.18-.79-16.79-.59-2.61.02-5.21-.05-7.82-.11-1.08.08-2.46-.3-2.55-1.58,0-2.54,3.22-1.72,4.9-1.98,4.16-.25,8.32.03,12.48.02,4.19,0,8.4-.23,12.57.23,1.57.09,7.55.95,5.54,3.43-2.6.95-5.59.55-8.33.58Z"/>
    <path class="cls-1" d="M31.83,130.17c-.78-.23-1.22-1.18-.88-1.92.28-7.1.3-14.21.38-21.31.3-6.61.04-13.26.44-19.86.05-.52.4-.97.93-1.09,2.69-.61,2.25,9.33,2.62,11.24.44,8.97.98,18.06-.45,26.96-.29,1.56-.61,3.12-1.15,4.62,0,.94-1,1.66-1.89,1.35Z"/>
    <path class="cls-1" d="M52.45,130.72c-.39-5.37.41-10.86.18-16.28.02-10.34.99-20.67.66-30.93.01-.88.78-1.62,1.63-1.69,3.01-.29,2.31,6.73,2.71,8.77.67,2.78.73,47.1-5.19,40.13Z"/>
    <path class="cls-1" d="M32.78,130.98c-.37,0-.74,0-1.11-.04-1.77.38-2.75-2.2-1.06-3.03,6.36-1,12.98-.49,19.41-.93,1.21-.1,2.9-.12,3.03,1.46.07.89-.61,1.68-1.49,1.75-6.26.6-12.52.8-18.78.79Z"/>
    <path class="cls-1" d="M77.48,84.6c-1.41-.24-1.46-2.26-.14-2.63,2.64-1.94,5.49-3.58,8.16-5.49,1.38-.63,3.26-3.39,4.7-1.71.41.61.21,1.36-.35,1.78-2.91,2.11-5.7,4.38-8.68,6.4-1.14.64-2.34,1.64-3.69,1.65Z"/>
    <path class="cls-1" d="M43.55,24.01c-1.2-.88-.02-2.21.77-2.91-.04-.43.31-.94.83-.78,1.28-1.16,2.65-2.2,4.05-3.21,1.13-.81,2.36-1.98,3.86-1.75,1.96.3,2.68,2.95,1.17,4.22-1.74,1.39-8.72,5.53-10.68,4.43Z"/>
    <path class="cls-1" d="M54.07,129.55c-2.88-1.05,6.78-8.02,7.86-9.05.97-.79,1.91-1.61,2.84-2.44,1.74-1.5,4.06,1.11,2.33,2.64-3.04,2.54-5.96,5.27-9.35,7.36-1.14.6-2.34,1.68-3.69,1.5Z"/>
    <path class="cls-1" d="M64.47,120.38c-.07-10.46-.3-20.83-.07-31.29.28-2.01-.89-7.08,1.85-7.37.79-.06,1.61.43,1.85,1.21,1.13,9.57,1.59,19.34,1.18,29-.35,2.7-.23,7.96-2.86,9.39-.77.25-1.7-.13-1.96-.94Z"/>
    <path class="cls-1" d="M89.94,76.94c-12.56-17.48-24.27-35.9-34.94-54.68-.68-1.27-1.68-2.42-1.96-3.86-.3-1.49,1.73-2.45,2.7-1.27,4.66,7.27,9.23,14.69,13.9,21.98,4.66,7.52,9.39,15.01,14.11,22.49.97,1.86,10.77,15.54,6.19,15.33Z"/>
    <path class="cls-1" d="M74.92,75.23c-.4-.27-.55-.8-.34-1.24.23-.51.79-.51,1.19-.81,1.53-.85,2.97-1.78,4.38-2.83,1.16-.86,2.29-1.75,3.48-2.58.33-.23.8-.16,1.07.14.28.32.27.87-.07,1.15-2.13,1.69-4.45,3.11-6.63,4.74-.94.49-1.91,2.02-3.06,1.43Z"/>
    <path class="cls-1" d="M70.02,69.16c-.23-.35-.04-.87.35-.97,3.09-2.07,6.04-4.34,9.14-6.41.33-.22.79-.16,1.04.14,1.16,1.17-3.74,3.76-4.61,4.48-1.62,1.01-3.26,2.01-4.96,2.88-.28.25-.75.22-.96-.11Z"/>
    <path class="cls-1" d="M66.6,62.27c.29-.72,1.47-1.05,2.05-1.59,2.98-1.86,5.73-3.91,8.39-6.12.38-.2.88-.09,1.16.23.66.79-.18,1.59-.85,2-1.1.81-2.17,1.66-3.3,2.42-2.09,1.41-4.33,2.43-6.39,3.79-.48.33-1.16-.15-1.05-.72Z"/>
    <path class="cls-1" d="M63.07,57.1c-1.57-1.43,7.92-6.45,9.17-7.49.36-.23.83-.18,1.11.14,1.15,1.45-3.74,3.65-4.71,4.53-1.5.96-2.89,2.13-4.48,2.94-.34.24-.82.19-1.1-.13Z"/>
    <path class="cls-1" d="M59.04,50.14c-1.65-1.2,4.5-4.31,5.39-5.08,1.22-.81,2.36-1.72,3.48-2.65.23-.19.56-.2.8,0,.66.69-.45,1.28-.89,1.72-2.39,2.15-5.19,3.78-7.74,5.72-.17.37-.7.52-1.04.29Z"/>
    <path class="cls-1" d="M55.22,43.38c-.46-.38-.26-1.2.33-1.33,1.27-1.15,2.78-2.03,4.19-2.99,1.55-1.03,3.04-2.17,4.62-3.16.28-.17.64-.14.86.11,1.23,1.34-7.56,5.99-8.77,7.07-.17.49-.85.66-1.23.31Z"/>
    <path class="cls-1" d="M51.77,37.42c-.64-.21-.88-1.03-.43-1.55,1.23-1.07,2.6-1.98,3.91-2.94,1.32-.94,2.77-1.71,4.07-2.68.39-.3,1-.19,1.31.17.36.41.32,1.05-.09,1.41-2.12,2.12-4.63,3.75-7.26,5.17-.46.25-.98.6-1.52.42Z"/>
    <path class="cls-1" d="M47.95,30.16c-.62-.13-.54-1.14.12-1.12.9-.51,1.73-1.15,2.59-1.72,1.81-1.28,3.68-2.48,5.58-3.61.63-.34,1.6-.94,2.06-.07.46,1.05-.99,1.37-1.57,1.93-2.24,1.95-5.02,3.06-7.64,4.38-.33.13-.76.35-1.14.22Z"/>
    <path class="cls-1" d="M55.94,118.28c-.19-.3-.03-.74.31-.84,2.58-1.54,4.89-3.62,7.27-5.27.89-.46,2.14-2.12,3.05-.91.27.45.11.98-.31,1.27-2.45,1.49-4.83,3.07-7.25,4.62-.74.46-1.5.89-2.27,1.31-.25.18-.65.09-.8-.18Z"/>
    <path class="cls-1" d="M56.05,109.67c-.25-.56.27-.94.73-1.08,1.01-.55,1.99-1.16,2.97-1.77,1.63-1.01,2.99-1.96,4.46-3.05,1.01-.59,2.38-2.33,3.52-1.12.39.48.34,1.26-.17,1.64-1.77,1.26-3.81,2.34-5.68,3.33-1.6.83-3.15,1.62-4.8,2.34-.35.23-.86.11-1.04-.3Z"/>
    <path class="cls-1" d="M56.07,101.26c-.18-.28-.05-.69.26-.8,3.58-2.1,6.84-4.66,10.28-6.93.43-.26.99-.16,1.3.23,1.34,1.7-4.66,4.23-5.83,5.02-1.73.9-3.44,1.77-5.18,2.63-.25.22-.67.15-.83-.14Z"/>
    <path class="cls-1" d="M55.29,93.09c-.19-.31-.05-.7.27-.86,3.61-1.8,6.8-4.3,10.24-6.38.29-.18.68-.08.86.21.55.98-2.14,1.9-2.76,2.53-2.5,1.73-5.1,3.29-7.79,4.7-.28.16-.65.08-.82-.2Z"/>
    <path class="cls-1" d="M88.54,63.16c-1.7-4.62-4.6-8.67-7.32-12.73-4.85-7.34-9.62-14.69-13.48-22.59-.38-.7.71-1.31,1.1-.59,3.71,6.62,8.12,12.88,12.01,19.28,0,0-.01-.02-.02-.03,0,0,0,0,0,0,1.05,2,10.92,16.25,8.67,17.1-.37.14-.82-.05-.95-.43Z"/>
    <path class="cls-1" d="M3.88,70.73c-.78-.5.24-1.39.48-1.96,3.11-4.89,6.41-9.68,10.19-14.09,1.95-2.28,3.73-4.68,5.73-6.92.28-.33.76-.41,1.11-.14.34.26.41.78.14,1.11-2.57,3.35-5.25,6.6-7.86,9.91-2.9,3.63-5.58,7.42-8.46,11.06-.4.37-.68,1.21-1.34,1.02Z"/>
    <path class="cls-1" d="M23.43,43.67c-.08-.96.73-1.83,1.13-2.67,1.71-2.7,3.61-5.29,5.57-7.8.21-.27.61-.35.91-.18,1.07.69-.96,2.73-1.37,3.53-1.49,1.96-2.99,3.92-4.49,5.87-.41.41-1.1,2.09-1.75,1.25Z"/>
  </g>
</svg>