<?xml version="1.0" standalone="no"?>
<!DOCTYPE svg PUBLIC "-//W3C//DTD SVG 20010904//EN"
 "http://www.w3.org/TR/2001/REC-SVG-20010904/DTD/svg10.dtd">
<svg version="1.0" xmlns="http://www.w3.org/2000/svg"
 width="700.000000pt" height="700.000000pt" viewBox="0 0 700.000000 700.000000"
 preserveAspectRatio="xMidYMid meet">
<metadata>
Created by potrace 1.14, written by Peter Selinger 2001-2017
</metadata>
<g transform="translate(0.000000,700.000000) scale(0.100000,-0.100000)"
fill="#000000" stroke="none">
<path d="M4025 5978 c-55 -32 -88 -96 -82 -161 5 -54 28 -91 77 -124 l33 -23
991 0 c802 -1 998 -3 1029 -14 55 -20 103 -61 134 -114 l28 -47 5 -250 c6
-276 9 -291 72 -337 47 -33 139 -33 186 0 65 47 67 59 67 342 0 218 -3 264
-19 315 -36 120 -103 222 -196 298 -52 44 -165 100 -230 115 -29 7 -413 13
-1050 17 l-1005 6 -40 -23z"/>
<path d="M1285 5980 l-400 -5 -67 -26 c-174 -68 -305 -207 -361 -384 -21 -68
-22 -82 -22 -575 0 -491 1 -506 20 -540 29 -49 91 -89 138 -90 49 0 109 31
139 72 l23 33 5 510 5 510 28 47 c29 49 88 97 146 116 25 9 170 10 545 5 281
-3 537 -3 568 1 96 12 158 69 165 153 6 67 -27 129 -87 160 -49 26 8 25 -845
13z"/>
<path d="M1744 5023 c-151 -35 -275 -148 -336 -309 l-23 -59 3 -1130 c2 -731
7 -1149 13 -1185 24 -123 119 -254 228 -314 102 -55 115 -56 751 -56 l586 0
-163 -323 c-171 -340 -178 -361 -149 -431 28 -67 115 -108 185 -88 21 7 50 21
64 32 16 13 100 166 227 415 l201 395 164 0 164 0 197 -391 c215 -425 227
-442 311 -455 91 -13 183 69 183 164 0 24 -48 129 -164 358 l-165 324 605 0
c586 0 606 1 644 20 75 38 104 151 58 220 -13 18 -36 43 -51 54 l-28 21 -1722
5 -1722 5 -31 22 c-67 48 -64 -12 -64 1186 l0 1083 23 44 c13 27 35 50 57 62
33 17 108 18 1710 18 1602 0 1677 -1 1710 -18 22 -12 44 -35 58 -62 22 -44 22
-50 22 -410 0 -412 0 -414 76 -457 76 -44 163 -24 218 50 20 27 21 41 24 405
2 253 -1 397 -8 437 -34 177 -182 330 -353 364 -80 17 -3431 20 -3503 4z"/>
<path d="M2300 4429 c-110 -22 -216 -104 -273 -213 l-32 -61 0 -655 0 -655 32
-61 c59 -113 163 -192 284 -214 36 -7 368 -9 950 -8 l894 3 37 23 c52 32 82
98 73 158 -9 62 -59 118 -120 133 -30 8 -309 11 -924 11 l-880 0 -15 22 c-14
20 -16 92 -16 589 0 525 1 568 18 588 17 21 22 21 592 23 560 3 576 4 610 24
53 31 80 77 80 139 0 66 -29 112 -90 143 l-44 22 -566 -1 c-311 -1 -585 -5
-610 -10z"/>
<path d="M522 3294 c-42 -22 -69 -56 -82 -106 -8 -26 -10 -292 -8 -811 l3
-772 28 -80 c64 -184 192 -311 377 -376 59 -20 88 -23 295 -26 225 -4 231 -4
275 19 25 13 55 38 67 57 44 66 22 171 -45 217 -30 20 -47 22 -254 26 -245 5
-264 9 -332 68 -20 18 -47 52 -59 74 -22 41 -22 42 -27 826 -6 871 -1 821 -71
871 -42 30 -122 36 -167 13z"/>
<path d="M6334 2371 c-25 -12 -50 -33 -65 -57 -24 -39 -24 -42 -29 -364 -5
-310 -6 -327 -27 -366 -12 -22 -39 -56 -59 -74 -74 -65 -72 -64 -474 -68 -234
-2 -375 -7 -393 -14 -64 -25 -106 -116 -87 -187 13 -48 76 -107 123 -116 18
-4 200 -5 403 -3 353 4 372 5 434 27 186 65 313 192 377 376 l27 80 1 335 c0
332 0 335 -23 372 -25 41 -91 78 -138 78 -16 0 -47 -9 -70 -19z"/>
</g>
</svg>
