<?xml version="1.0" standalone="no"?>
<!DOCTYPE svg PUBLIC "-//W3C//DTD SVG 20010904//EN"
 "http://www.w3.org/TR/2001/REC-SVG-20010904/DTD/svg10.dtd">
<svg version="1.0" xmlns="http://www.w3.org/2000/svg"
 width="512.000000pt" height="512.000000pt" viewBox="0 0 512.000000 512.000000"
 preserveAspectRatio="xMidYMid meet">
<metadata>
Created by potrace 1.14, written by Peter Selinger 2001-2017
</metadata>
<g transform="translate(0.000000,512.000000) scale(0.100000,-0.100000)"
fill="#000000" stroke="none">
<path d="M2505 4692 c-109 -17 -213 -82 -282 -174 -30 -41 -1741 -3449 -1773
-3533 -16 -40 -23 -82 -22 -130 2 -78 2 -160 -1 -195 -2 -19 3 -62 10 -94 36
-162 168 -297 331 -340 37 -10 429 -13 1812 -12 l1765 2 67 28 c86 36 183 123
226 204 35 66 60 160 55 212 -2 31 -3 70 -1 200 0 45 -7 87 -22 125 -6 17
-404 815 -883 1774 -859 1718 -873 1744 -933 1805 -79 80 -153 116 -253 125
-42 3 -85 5 -96 3z"/>
</g>
</svg>
