<svg id="Layer_1" xmlns="http://www.w3.org/2000/svg" xmlns:xlink="http://www.w3.org/1999/xlink"
  viewBox="0 0 170.08 170.08">
  <defs>
    <radialGradient id="radial-gradient" cx="83.28" cy="12.33" fx="83.28" fy="12.33" r="77.48"
      gradientTransform="translate(31.76 12.14) rotate(45) scale(1.07 1.13)"
      gradientUnits="userSpaceOnUse">
      <stop offset="0" stop-color="#fff9ae" />
      <stop offset=".48" stop-color="#ffde17" />
      <stop offset=".59" stop-color="#fed817" />
      <stop offset=".72" stop-color="#fcc918" />
      <stop offset=".87" stop-color="#f9af1a" />
      <stop offset="1" stop-color="#f7941d" />
    </radialGradient>
  </defs>
  <circle cx="85.04" cy="85.04" r="85.04" transform="translate(-35.22 85.04) rotate(-45)"
    style="fill:url(#radial-gradient);" />
  <g>
    <path
      d="m145.93,99.58c.08.08.12.2.12.36v.27c-.06.16-.16.27-.29.33-.13.07-.27.1-.43.1-.07,0-.15,0-.23-.02-.08-.01-.15-.03-.2-.05-.57-.5-1.2-.84-1.89-1.03-.69-.19-1.37-.31-2.05-.38-.42-.06-.82-.13-1.22-.2-8.99-1.77-18.03-3.13-27.11-4.1-4.62-.44-9.25-.82-13.9-1.15-3.58-.24-7.17-.39-10.76-.47-2.36-.02-4.72-.09-7.06-.2-1.73-.06-3.47-.06-5.23,0-.56.02-1.1.04-1.63.04-1.6.02-3.2.05-4.8.07-4.36.06-8.7.17-13.04.32-3.74.13-7.46.36-11.17.67s-7.41.8-11.08,1.46c-2.49.39-4.94,1.01-7.32,1.84-.08.02-.18.07-.29.12-.26.11-.53.19-.81.26-.27.07-.57.07-.88,0-.35-.05-.56-.23-.64-.55-.02-.1-.01-.2.03-.32.04-.12.1-.22.17-.3.48-.39.97-.76,1.47-1.09,4.54-3.21,8.97-6.56,13.3-10.04,7.62-5.99,14.9-12.35,21.86-19.07,4.33-4.18,8.72-8.28,13.16-12.3,2.84-2.57,5.66-5.16,8.47-7.79,1.37-1.29,2.73-2.6,4.06-3.94.18-.19.35-.36.5-.52.08-.05.15-.1.2-.16.13-.13.26-.27.38-.41s.18-.32.18-.52c-.26-.21-.54-.35-.82-.4s-.59-.08-.91-.08h-.43c-3.31-.24-6.61-.4-9.92-.47-3.31-.08-6.63-.04-9.97.12-2.81.11-5.61.28-8.42.52-2.81.24-5.61.61-8.39,1.11-.13.02-.26.05-.39.07-.5.08-.99.2-1.46.34s-.92.37-1.33.68c.07.53.27.95.58,1.28.32.33.68.62,1.1.89.21.16.42.32.63.48,1.18.94,2.47,1.73,3.87,2.36.05.02.09.07.13.15.04.08.07.14.1.19,0,.17-.04.27-.13.32-.09.05-.19.09-.3.13-.63.13-1.22.07-1.77-.2-1.07-.53-2.1-1.11-3.09-1.75s-1.9-1.39-2.75-2.24c-1.36-1.36-1.15-2.39.64-3.1.97-.39,1.98-.7,3.03-.91,1.53-.35,3.06-.61,4.61-.79,1.55-.18,3.09-.35,4.65-.52.15,0,.31-.01.47-.04,4-.37,8-.57,12.01-.59,4-.02,8,.02,11.99.13,2.21.07,4.42.23,6.63.46.55.06,1.07.04,1.58-.07s.96-.37,1.38-.79c.11-.13.26-.23.46-.29s.38-.13.56-.19c.08-.02.15-.05.2-.07.24-.05.44,0,.61.12.17.13.23.34.18.63-.02.29,0,.51.06.66.07.16.24.25.53.29.13.02.26.04.39.04.55.05,1.1.14,1.65.27.32.08.47.31.45.68-.04.13-.1.24-.19.31-.09.08-.19.12-.3.12-.6.05-1.2.08-1.81.11h-1.58c-.48-.02-.84-.01-1.08.03s-.47.14-.66.29c-.2.16-.47.42-.81.79-.26.26-.6.6-1.02,1.02-3.34,3.26-6.74,6.46-10.21,9.62-1.16,1.07-2.32,2.14-3.47,3.19-5.06,4.73-10.12,9.48-15.17,14.27-6.57,6.17-13.39,12.02-20.48,17.53-1.6,1.25-3.21,2.5-4.83,3.74-.98.75-1.96,1.5-2.95,2.24-.06.05-.12.1-.2.16-.15.11-.3.23-.43.36-.13.13-.2.31-.2.54.55-.07,1.1-.15,1.65-.23,1.31-.2,2.64-.41,3.98-.63,4.2-.63,8.45-1.08,12.73-1.34,5.38-.31,10.78-.53,16.19-.64,5.41-.12,10.82-.17,16.22-.14,8.25.06,16.47.45,24.67,1.18,12.24,1.11,24.34,2.99,36.31,5.64.11.02.21.05.32.07.73.13,1.43.3,2.11.52.37.13.69.34.95.63Z"
      style="fill:#2d2d2d;" />
    <path
      d="m68.57,80.91h-.05c-1.73-.02-2.87-.41-3.42-1.15-.55-.75-.52-1.74.07-2.98.5-.94,1.13-1.77,1.9-2.47.26-.24.53-.43.81-.57.27-.14.58-.21.93-.21.2-.04.44,0,.7.11.08.02.17.05.25.09.2-.04.4-.1.59-.2.05-.04.11-.07.2-.09.39-.16.81-.22,1.25-.2h.56c.7.11,1.24.4,1.59.89.36.48.48,1.07.38,1.76-.06.42-.19.81-.39,1.18-1.37,2.46-3.12,3.74-5.25,3.85h-.11Zm2.83-6.41c-.94-.04-1.78.24-2.52.81-.73.58-1.28,1.25-1.64,2-.36.75-.46,1.37-.3,1.85s.66.62,1.5.4c.94-.29,1.78-.82,2.5-1.61.72-.79,1.16-1.54,1.33-2.25.16-.71-.13-1.11-.87-1.21Z"
      style="fill:#2d2d2d;" />
    <path
      d="m88.7,77.52c-.67.63-1.38,1.16-2.13,1.59s-1.62.86-2.61,1.29c-.66.29-1.35.38-2.09.29-.74-.09-1.11-.54-1.11-1.34s.19-1.59.56-2.38c.37-.81.45-1.23.24-1.25-.21-.02-.64.17-1.3.59-1.71,1.12-3.29,2.41-4.76,3.85-.39.48-.9.74-1.5.79-.31,0-.55-.1-.73-.29-.17-.2-.19-.41-.06-.64,1.05-1.95,2.11-3.87,3.19-5.77.24-.39.6-.64,1.07-.73.2-.04.39.03.56.19.17.16.26.34.26.55-.02.19-.1.42-.23.68-.06.16-.12.3-.17.45-.05.14-.07.26-.05.36.02.1.09.13.22.09.18-.1.36-.2.54-.3.45-.26.89-.51,1.31-.75.37-.21.76-.41,1.16-.57.41-.17.83-.28,1.27-.34.72-.05,1.22.11,1.52.48s.33.88.11,1.54c-.24.6-.49,1.19-.75,1.77-.32.55-.38.97-.16,1.25.21.29,1.21-.04,2.99-.99l1.34-.79c1.27-.81,1.95-1.12,2.04-.91.19.24-.05.67-.72,1.31Z"
      style="fill:#2d2d2d;" />
    <path
      d="m101.82,77.52c-.67.63-1.38,1.16-2.13,1.59s-1.62.86-2.61,1.29c-.66.29-1.35.38-2.09.29-.74-.09-1.11-.54-1.11-1.34s.19-1.59.56-2.38c.37-.81.45-1.23.24-1.25-.21-.02-.64.17-1.3.59-1.71,1.12-3.29,2.41-4.76,3.85-.39.48-.9.74-1.5.79-.31,0-.55-.1-.73-.29-.17-.2-.19-.41-.06-.64,1.05-1.95,2.11-3.87,3.19-5.77.24-.39.6-.64,1.07-.73.2-.04.39.03.56.19.17.16.26.34.26.55-.02.19-.1.42-.23.68-.06.16-.12.3-.17.45-.05.14-.07.26-.05.36.02.1.09.13.22.09.18-.1.36-.2.54-.3.45-.26.89-.51,1.31-.75.37-.21.76-.41,1.16-.57.41-.17.83-.28,1.27-.34.72-.05,1.22.11,1.52.48s.33.88.11,1.54c-.24.6-.49,1.19-.75,1.77-.32.55-.38.97-.16,1.25.21.29,1.21-.04,2.99-.99l1.34-.79c1.27-.81,1.95-1.12,2.04-.91.19.24-.05.67-.72,1.31Z"
      style="fill:#2d2d2d;" />
    <path
      d="m111.69,78.28c-.69.68-1.5,1.26-2.42,1.75-.92.48-1.69.8-2.31.95-.62.15-1.26.24-1.92.26-1.05.05-2.02-.09-2.9-.43-1.44-.58-1.95-1.7-1.5-3.35.42-1.42,1.27-2.53,2.54-3.33s2.6-1.19,3.96-1.16h.04c.35-.02.67,0,.98.07.52.19.86.5,1,.93.14.43.05.91-.29,1.43-.76,1.16-1.8,1.8-3.12,1.93-.87.08-1.71.04-2.52-.12-.16-.02-.29.02-.41.12s-.19.24-.21.39c-.24,1.03.08,1.68.95,1.97,1.07.37,2.19.37,3.35,0,1.34-.42,2.61-1.21,3.81-2.36,1.21-1.16,1.9-1.7,2.09-1.62.19.08.24.3.17.67-.17.58-.6,1.22-1.29,1.9Zm-7.63-2.88c-.07.08-.12.18-.15.28s0,.19.12.28c.42.24.87.33,1.36.26.49-.07.9-.25,1.24-.55s.49-.68.44-1.12c-.04-.16-.12-.25-.25-.3-.13-.04-.26-.05-.39-.03-.88.16-1.67.55-2.36,1.18Z"
      style="fill:#2d2d2d;" />
  </g>
  <g>
    <path
      d="m50.29,113.78l.25.88h.05l.25-.88,2.86-8.32h1.62l-4.11,11.07h-1.29l-4.11-11.07h1.63l2.86,8.32Z"
      style="fill:#2d2d2d;" />
    <path d="m64.59,111.4h-5.07v3.95h5.85v1.18h-7.35v-11.07h7.26v1.18h-5.76v3.58h5.07v1.18Z"
      style="fill:#2d2d2d;" />
    <path
      d="m69.78,111.74v4.8h-1.5v-11.06h4.01c1.21,0,2.14.27,2.77.81.64.54.96,1.32.96,2.34,0,.57-.15,1.06-.44,1.48-.3.42-.73.75-1.3,1,.61.2,1.05.52,1.31.96s.4.99.4,1.65v1.04c0,.34.04.65.11.93.08.27.21.5.4.67v.18h-1.54c-.2-.17-.32-.43-.38-.76-.06-.33-.08-.68-.08-1.03v-1.01c0-.6-.17-1.08-.52-1.44-.35-.37-.82-.55-1.41-.55h-2.78Zm0-1.18h2.36c.85,0,1.46-.16,1.83-.48s.56-.81.56-1.47c0-.62-.18-1.1-.54-1.45-.36-.34-.93-.51-1.69-.51h-2.51v3.91Z"
      style="fill:#2d2d2d;" />
    <path
      d="m85.77,113.68h-4.64l-1.05,2.85h-1.53l4.28-11.07h1.28l4.21,11.07h-1.53l-1.03-2.85Zm-4.17-1.25h3.73l-1.83-5.04h-.05l-1.86,5.04Z"
      style="fill:#2d2d2d;" />
    <path
      d="m99.39,116.54h-1.5l-5.33-8.56h-.05v8.56h-1.5v-11.07h1.5l5.33,8.55.05-.02v-8.53h1.5v11.07Z"
      style="fill:#2d2d2d;" />
    <path
      d="m103.3,116.54v-11.07h3.4c1.45,0,2.61.45,3.49,1.33.88.89,1.32,2.04,1.32,3.45v1.51c0,1.42-.44,2.56-1.32,3.45-.88.88-2.04,1.33-3.49,1.33h-3.4Zm1.5-9.89v8.71h1.9c1.02,0,1.83-.34,2.42-1.01.59-.67.89-1.54.89-2.59v-1.53c0-1.04-.3-1.9-.89-2.58-.59-.67-1.4-1.01-2.42-1.01h-1.9Z"
      style="fill:#2d2d2d;" />
    <path
      d="m120.56,113.68h-4.64l-1.05,2.85h-1.53l4.28-11.07h1.28l4.21,11.07h-1.53l-1.03-2.85Zm-4.17-1.25h3.73l-1.83-5.04h-.05l-1.86,5.04Z"
      style="fill:#2d2d2d;" />
  </g>
</svg>