<?xml version="1.0" encoding="UTF-8"?><svg id="Layer_1" xmlns="http://www.w3.org/2000/svg" viewBox="0 0 512 512"><g><path d="m41.52,163.23l12.93-16.58c7.08,6.62,16.27,11.17,24.46,11.17,9.4,0,14-3.97,14-10.32,0-6.73-5.66-8.89-14.36-12.73l-12.94-5.92c-10.32-4.51-20.1-13.61-20.1-29.14,0-17.72,14.74-31.86,35.47-31.86,11.47,0,23.46,4.85,32.04,14.01l-11.37,15.23c-6.56-5.4-12.8-8.37-20.67-8.37s-12.7,3.47-12.7,9.59c0,6.56,6.51,8.94,15.21,12.65l12.69,5.52c12.16,5.28,19.76,13.97,19.76,29.08,0,17.75-13.79,33.14-37.52,33.14-12.96,0-26.73-5.27-36.89-15.46Z" style="fill:#645d78;"/><path d="m120.85,159.35l15.3-12.22c3.68,7.35,8.79,10.69,13.87,10.69,8.05,0,12.4-4.42,12.4-18.68v-69.33h22.52v71.34c0,20.57-9.94,37.54-31.95,37.54-15.23,0-25.24-6.39-32.15-19.34Z" style="fill:#645d78;"/><path d="m203.22,122.8c0-34.93,18.37-54.96,45.23-54.96s45.23,20.17,45.23,54.96-18.37,55.89-45.23,55.89-45.23-20.96-45.23-55.89Zm67.39,0c0-21.43-8.57-34.09-22.16-34.09s-22.16,12.66-22.16,34.09,8.57,35.02,22.16,35.02,22.16-13.58,22.16-35.02Z" style="fill:#645d78;"/><path d="m312.45,69.81h35.87c21.12,0,38.44,7.87,38.44,33.29s-17.31,35.14-38.44,35.14h-13.35v38.47h-22.52v-106.91Zm34.03,49.25c11.84,0,18.21-5.44,18.21-15.96s-6.36-14.1-18.21-14.1h-11.52v30.06h11.52Zm-2.28,12.82l15.57-15.47,31.78,60.31h-25.2l-22.16-44.84Z" style="fill:#645d78;"/><path d="m397.54,163.23l12.93-16.58c7.08,6.62,16.27,11.17,24.46,11.17,9.4,0,14-3.97,14-10.32,0-6.73-5.66-8.89-14.36-12.73l-12.94-5.92c-10.32-4.51-20.1-13.61-20.1-29.14,0-17.72,14.74-31.86,35.47-31.86,11.47,0,23.46,4.85,32.04,14.01l-11.37,15.23c-6.56-5.4-12.8-8.37-20.67-8.37s-12.7,3.47-12.7,9.59c0,6.56,6.51,8.94,15.21,12.65l12.69,5.52c12.16,5.28,19.76,13.97,19.76,29.08,0,17.75-13.79,33.14-37.52,33.14-12.96,0-26.73-5.27-36.89-15.46Z" style="fill:#645d78;"/></g><g><path d="m37.52,158.92l12.93-16.58c7.08,6.62,16.27,11.17,24.46,11.17,9.4,0,14-3.97,14-10.32,0-6.73-5.66-8.89-14.36-12.73l-12.94-5.92c-10.32-4.51-20.1-13.61-20.1-29.14,0-17.72,14.74-31.86,35.47-31.86,11.47,0,23.46,4.85,32.04,14.01l-11.37,15.23c-6.56-5.4-12.8-8.37-20.67-8.37s-12.7,3.47-12.7,9.59c0,6.56,6.51,8.94,15.21,12.65l12.69,5.52c12.16,5.28,19.76,13.97,19.76,29.08,0,17.75-13.79,33.14-37.52,33.14-12.96,0-26.73-5.27-36.89-15.46Z" style="fill:#202046;"/><path d="m116.85,155.04l15.3-12.22c3.68,7.35,8.79,10.69,13.87,10.69,8.05,0,12.4-4.42,12.4-18.68v-69.33h22.52v71.34c0,20.57-9.94,37.54-31.95,37.54-15.23,0-25.24-6.39-32.15-19.34Z" style="fill:#202046;"/><path d="m199.22,118.49c0-34.93,18.37-54.96,45.23-54.96s45.23,20.17,45.23,54.96-18.37,55.89-45.23,55.89-45.23-20.96-45.23-55.89Zm67.39,0c0-21.43-8.57-34.09-22.16-34.09s-22.16,12.66-22.16,34.09,8.57,35.02,22.16,35.02,22.16-13.58,22.16-35.02Z" style="fill:#202046;"/><path d="m308.45,65.5h35.87c21.12,0,38.44,7.87,38.44,33.29s-17.31,35.14-38.44,35.14h-13.35v38.47h-22.52v-106.91Zm34.03,49.25c11.84,0,18.21-5.44,18.21-15.96s-6.36-14.1-18.21-14.1h-11.52v30.06h11.52Zm-2.28,12.82l15.57-15.47,31.78,60.31h-25.2l-22.16-44.84Z" style="fill:#202046;"/><path d="m393.54,158.92l12.93-16.58c7.08,6.62,16.27,11.17,24.46,11.17,9.4,0,14-3.97,14-10.32,0-6.73-5.66-8.89-14.36-12.73l-12.94-5.92c-10.32-4.51-20.1-13.61-20.1-29.14,0-17.72,14.74-31.86,35.47-31.86,11.47,0,23.46,4.85,32.04,14.01l-11.37,15.23c-6.56-5.4-12.8-8.37-20.67-8.37s-12.7,3.47-12.7,9.59c0,6.56,6.51,8.94,15.21,12.65l12.69,5.52c12.16,5.28,19.76,13.97,19.76,29.08,0,17.75-13.79,33.14-37.52,33.14-12.96,0-26.73-5.27-36.89-15.46Z" style="fill:#202046;"/></g><g><g><path d="m42.89,206.17h23.83l12,49.82c2.97,11.69,4.96,22.48,7.98,34.28h.61c3.02-11.8,5.14-22.59,7.98-34.28l11.75-49.82h23.02l-30.04,106.91h-27.05l-30.09-106.91Z" style="fill:#89acda;"/><path d="m156.48,206.17h26.94l31.28,106.91h-23.83l-13.03-54.14c-2.77-10.69-5.43-23.33-8.09-34.48h-.61c-2.41,11.29-5.07,23.79-7.84,34.48l-13.08,54.14h-23.02l31.28-106.91Zm-10.66,62.66h47.92v18.78h-47.92v-18.78Z" style="fill:#89acda;"/><path d="m224.28,206.17h23.07l25.98,53.17,9.85,23.49h.61c-1.06-11.31-2.88-26.29-2.88-38.89v-37.77h21.45v106.91h-23.07l-25.98-53.31-9.85-23.35h-.61c1.06,11.79,2.88,26.11,2.88,38.72v37.94h-21.45v-106.91Z" style="fill:#89acda;"/></g><g><path d="m37.52,201.6h23.83l12,49.82c2.97,11.69,4.96,22.48,7.98,34.28h.61c3.02-11.8,5.14-22.59,7.98-34.28l11.75-49.82h23.02l-30.04,106.91h-27.05l-30.09-106.91Z" style="fill:#3c86c6;"/><path d="m151.11,201.6h26.94l31.28,106.91h-23.83l-13.03-54.14c-2.77-10.69-5.43-23.33-8.09-34.48h-.61c-2.41,11.29-5.07,23.79-7.84,34.48l-13.08,54.14h-23.02l31.28-106.91Zm-10.66,62.66h47.92v18.78h-47.92v-18.78Z" style="fill:#3c86c6;"/><path d="m218.91,201.6h23.07l25.98,53.17,9.85,23.49h.61c-1.06-11.31-2.88-26.29-2.88-38.89v-37.77h21.45v106.91h-23.07l-25.98-53.31-9.85-23.35h-.61c1.06,11.79,2.88,26.11,2.88,38.72v37.94h-21.45v-106.91Z" style="fill:#3c86c6;"/></g></g><g><path d="m41.8,340.59h22.52v41.2h34.38v-41.2h22.52v106.91h-22.52v-44.63h-34.38v44.63h-22.52v-106.91Z" style="fill:#f89f7f;"/><path d="m140.07,393.59c0-34.93,18.37-54.96,45.23-54.96s45.23,20.17,45.23,54.96-18.37,55.89-45.23,55.89-45.23-20.96-45.23-55.89Zm67.39,0c0-21.43-8.57-34.09-22.16-34.09s-22.16,12.66-22.16,34.09,8.57,35.02,22.16,35.02,22.16-13.58,22.16-35.02Z" style="fill:#f89f7f;"/><path d="m249.3,340.59h22.52v86.64h39.31v20.27h-61.83v-106.91Z" style="fill:#f89f7f;"/><path d="m317.73,434.01l12.93-16.58c7.08,6.62,16.27,11.17,24.46,11.17,9.4,0,14-3.97,14-10.32,0-6.73-5.66-8.89-14.36-12.73l-12.94-5.92c-10.32-4.51-20.1-13.61-20.1-29.14,0-17.72,14.74-31.86,35.47-31.86,11.47,0,23.46,4.85,32.04,14.01l-11.37,15.23c-6.56-5.4-12.8-8.37-20.67-8.37s-12.7,3.47-12.7,9.59c0,6.56,6.51,8.94,15.21,12.65l12.69,5.52c12.16,5.28,19.76,13.97,19.76,29.08,0,17.75-13.79,33.14-37.52,33.14-12.96,0-26.73-5.27-36.89-15.46Z" style="fill:#f89f7f;"/><path d="m425.56,360.86h-27.41v-20.27h77.34v20.27h-27.41v86.64h-22.52v-86.64Z" style="fill:#f89f7f;"/></g><g><path d="m37.52,336.31h22.52v41.2h34.38v-41.2h22.52v106.91h-22.52v-44.63h-34.38v44.63h-22.52v-106.91Z" style="fill:#f26440;"/><path d="m135.79,389.3c0-34.93,18.37-54.96,45.23-54.96s45.23,20.17,45.23,54.96-18.37,55.89-45.23,55.89-45.23-20.96-45.23-55.89Zm67.39,0c0-21.43-8.57-34.09-22.16-34.09s-22.16,12.66-22.16,34.09,8.57,35.02,22.16,35.02,22.16-13.58,22.16-35.02Z" style="fill:#f26440;"/><path d="m245.02,336.31h22.52v86.64h39.31v20.27h-61.83v-106.91Z" style="fill:#f26440;"/><path d="m313.45,429.73l12.93-16.58c7.08,6.62,16.27,11.17,24.46,11.17,9.4,0,14-3.97,14-10.32,0-6.73-5.66-8.89-14.36-12.73l-12.94-5.92c-10.32-4.51-20.1-13.61-20.1-29.14,0-17.72,14.74-31.86,35.47-31.86,11.47,0,23.46,4.85,32.04,14.01l-11.37,15.23c-6.56-5.4-12.8-8.37-20.67-8.37s-12.7,3.47-12.7,9.59c0,6.56,6.51,8.94,15.21,12.65l12.69,5.52c12.16,5.28,19.76,13.97,19.76,29.08,0,17.75-13.79,33.14-37.52,33.14-12.96,0-26.73-5.27-36.89-15.46Z" style="fill:#f26440;"/><path d="m421.28,356.58h-27.41v-20.27h77.34v20.27h-27.41v86.64h-22.52v-86.64Z" style="fill:#f26440;"/></g></svg>