<?xml version="1.0" standalone="no"?>
<!DOCTYPE svg PUBLIC "-//W3C//DTD SVG 20010904//EN"
 "http://www.w3.org/TR/2001/REC-SVG-20010904/DTD/svg10.dtd">
<svg version="1.0" xmlns="http://www.w3.org/2000/svg"
 width="700.000000pt" height="700.000000pt" viewBox="0 0 700.000000 700.000000"
 preserveAspectRatio="xMidYMid meet">
<metadata>
Created by potrace 1.14, written by Peter Selinger 2001-2017
</metadata>
<g transform="translate(0.000000,700.000000) scale(0.100000,-0.100000)"
fill="#000000" stroke="none">
<path d="M945 6123 c-11 -2 -47 -13 -80 -25 -115 -40 -205 -120 -258 -228 -30
-61 -32 -72 -32 -175 0 -104 2 -114 33 -179 24 -51 54 -90 115 -151 83 -84 98
-93 310 -189 149 -68 168 -78 172 -89 23 -64 1 -125 -57 -157 -30 -17 -59 -23
-112 -25 -101 -3 -189 29 -294 107 l-54 40 -18 -23 c-91 -114 -150 -194 -150
-200 0 -14 104 -114 154 -148 110 -76 262 -122 401 -122 296 0 507 187 508
450 1 141 -40 230 -160 346 -67 66 -119 95 -333 186 -68 29 -132 61 -141 70
-11 11 -16 29 -14 53 5 48 19 71 57 94 88 53 244 29 356 -55 18 -13 37 -23 42
-21 10 3 150 188 150 198 0 3 -24 30 -53 60 -90 94 -205 157 -327 180 -51 10
-167 11 -215 3z"/>
<path d="M3186 6114 c-80 -19 -183 -75 -243 -132 -153 -145 -223 -352 -217
-636 6 -247 70 -417 217 -580 131 -145 279 -211 467 -209 323 4 558 252 597
629 11 112 6 267 -12 354 -3 14 -7 34 -9 45 -27 131 -117 278 -236 389 -119
110 -213 146 -390 151 -75 2 -135 -2 -174 -11z m323 -354 c49 -24 74 -59 99
-135 51 -152 47 -370 -8 -519 -28 -73 -81 -140 -138 -173 -39 -23 -58 -28
-117 -27 -129 0 -183 49 -225 208 -59 216 -13 491 100 601 72 71 200 91 289
45z"/>
<path d="M5760 6106 c-41 -12 -95 -35 -120 -50 -61 -39 -133 -117 -164 -182
-67 -137 -46 -332 48 -439 98 -110 143 -148 231 -190 131 -63 267 -126 292
-136 43 -16 47 -106 6 -152 -58 -65 -201 -72 -324 -15 -41 19 -96 52 -123 72
-26 21 -52 34 -56 29 -4 -4 -44 -55 -89 -112 l-81 -104 47 -49 c189 -194 472
-268 717 -187 193 65 306 222 306 429 0 143 -42 227 -180 358 -35 33 -169 103
-315 164 -147 61 -161 74 -150 139 22 125 239 141 397 30 37 -26 57 -34 64
-27 5 6 40 53 78 104 l69 93 -62 63 c-161 162 -382 223 -591 162z"/>
<path d="M2172 6100 c-4 -3 -7 -230 -7 -505 -1 -275 -4 -519 -8 -543 -17 -108
-85 -162 -185 -147 -41 6 -55 16 -109 72 l-63 65 -99 -79 c-55 -43 -100 -81
-101 -84 -1 -15 71 -109 129 -169 111 -114 198 -150 361 -150 110 0 204 30
281 92 26 22 89 108 105 147 47 109 49 131 49 711 l0 535 -27 -1 c-24 0 -27 3
-24 28 2 15 -2 29 -8 29 -37 4 -289 3 -294 -1z"/>
<path d="M4219 6085 c0 -11 -1 -341 -2 -733 -2 -628 0 -712 13 -711 33 3 40
-2 40 -26 0 -30 -10 -28 168 -29 l142 -1 0 262 0 263 73 0 72 0 114 -235 c63
-129 120 -235 128 -235 7 0 19 -12 27 -27 l14 -28 171 -1 c94 0 171 2 171 4 0
2 -20 41 -44 86 -24 44 -71 135 -106 201 -34 66 -83 158 -108 204 -42 79 -44
85 -27 95 144 85 216 216 220 399 3 162 -32 256 -133 362 -71 74 -85 85 -142
112 -106 49 -161 56 -502 57 -283 2 -288 1 -289 -19z m641 -318 c53 -15 70
-41 70 -111 0 -96 -37 -163 -112 -202 -18 -9 -70 -18 -134 -21 l-104 -6 0 179
0 179 118 -2 c64 -1 137 -8 162 -16z"/>
<path d="M521 4242 c-5 -2 -5 -14 0 -30 8 -24 64 -222 305 -1082 83 -298 85
-303 95 -328 6 -17 16 -22 32 -20 17 2 25 -4 33 -27 l11 -30 185 -3 185 -2 46
162 c25 90 87 309 137 488 51 179 93 332 95 340 2 8 20 71 40 140 20 69 38
132 40 140 2 8 15 54 29 103 l24 87 -44 0 -45 0 6 33 6 32 -151 0 c-127 0
-153 -3 -160 -16 -5 -9 -25 -85 -44 -170 -20 -85 -54 -230 -76 -324 -22 -93
-42 -179 -45 -190 -3 -11 -12 -51 -21 -90 -8 -38 -17 -77 -19 -85 -2 -8 -11
-46 -19 -83 -8 -38 -16 -71 -19 -73 -2 -2 -11 31 -21 74 -10 42 -42 178 -72
301 -30 123 -57 236 -59 250 -3 14 -22 96 -43 181 l-37 155 -31 3 c-24 2 -32
9 -40 35 l-9 31 -152 1 c-84 0 -157 -1 -162 -3z"/>
<path d="M2070 4240 c-4 -3 -51 -156 -105 -340 -53 -184 -149 -509 -211 -722
-63 -213 -114 -390 -114 -392 0 -3 15 -5 33 -4 56 1 57 0 47 -28 -6 -14 -10
-27 -10 -30 0 -2 71 -4 159 -4 l158 0 42 174 42 174 178 1 177 1 35 -143 35
-142 32 -3 c19 -2 33 -9 33 -18 1 -8 2 -20 3 -26 1 -17 326 -24 326 -8 0 5
-45 162 -99 347 -55 186 -147 502 -206 703 -58 201 -108 373 -111 383 -4 11
-15 17 -34 17 -23 0 -30 5 -35 30 -4 17 -10 30 -13 31 -26 4 -355 3 -362 -1z
m234 -493 c8 -35 41 -179 51 -217 14 -52 34 -136 35 -140 0 -5 -191 -2 -197 3
-1 2 9 50 23 108 30 123 26 102 49 217 19 92 25 96 39 29z"/>
<path d="M3000 4240 c-4 -3 -8 -332 -7 -732 l0 -727 36 -3 c31 -3 36 -7 36
-28 l0 -25 149 -3 148 -3 -5 388 c-3 214 -8 406 -12 428 -3 22 -8 53 -10 70
-7 40 7 22 35 -45 12 -30 82 -176 154 -325 73 -148 152 -312 176 -362 37 -76
49 -93 67 -93 15 0 28 -10 38 -30 l16 -30 157 0 157 0 0 728 0 727 -37 3 c-33
3 -37 6 -40 35 l-3 32 -144 0 -145 0 2 -315 c1 -173 4 -344 6 -380 9 -127 18
-205 23 -215 4 -7 3 -7 -4 0 -5 6 -19 33 -31 61 -21 51 -312 650 -356 734 -13
26 -32 47 -45 50 -12 3 -29 18 -39 35 l-18 30 -148 0 c-81 0 -151 -2 -156 -5z"/>
<path d="M2303 2404 c-97 -28 -158 -62 -228 -125 -96 -89 -180 -253 -200 -394
-4 -22 -8 -48 -11 -57 -3 -9 -5 -68 -5 -130 -1 -298 68 -488 240 -656 138
-136 258 -186 442 -185 186 1 349 81 456 226 69 93 108 189 138 332 4 17 9 86
12 154 9 196 -21 353 -95 496 -52 100 -202 250 -298 298 -135 68 -305 83 -451
41z m322 -336 c95 -36 147 -164 149 -372 1 -129 -5 -177 -33 -265 -59 -189
-225 -281 -373 -206 -83 42 -132 184 -132 385 -1 169 11 227 66 330 63 119
202 174 323 128z"/>
<path d="M4662 2404 c-136 -44 -229 -123 -283 -238 -52 -112 -48 -260 10 -374
24 -48 152 -180 206 -213 43 -27 47 -29 235 -114 69 -31 133 -65 142 -76 20
-24 18 -88 -6 -123 -30 -46 -72 -61 -171 -61 -83 0 -96 3 -165 36 -41 20 -96
52 -122 72 l-47 36 -83 -105 c-46 -58 -84 -109 -86 -114 -6 -16 123 -129 197
-173 236 -141 543 -132 720 20 105 90 158 222 148 369 -8 115 -43 189 -128
276 -74 75 -128 113 -219 152 -62 27 -87 38 -228 101 -68 30 -79 48 -68 109
24 128 260 133 422 10 l30 -23 55 72 c29 39 64 86 77 104 l23 33 -67 64 c-129
124 -253 177 -419 181 -82 2 -113 -2 -173 -21z"/>
<path d="M516 2390 c-3 -8 -4 -338 -4 -732 l1 -718 28 0 c23 0 28 -5 31 -27
l3 -28 153 -1 152 -1 0 303 0 304 205 0 205 0 0 -275 0 -275 30 0 c26 0 30 -3
30 -29 l0 -29 153 1 152 2 0 730 0 730 -25 0 c-20 0 -26 6 -28 28 -3 24 -8 27
-40 28 -40 1 -226 1 -254 0 -17 -1 -18 -21 -18 -281 l0 -280 -205 0 -205 0 -2
253 -3 252 -25 0 c-20 0 -26 6 -28 28 -3 22 -9 27 -30 28 -207 6 -272 3 -276
-11z"/>
<path d="M3354 2401 c-2 -2 -4 -332 -4 -733 l0 -728 30 0 c26 0 30 -3 30 -29
l0 -29 420 0 420 0 1 27 c1 14 2 76 3 136 l1 110 -30 5 c-24 4 -30 10 -30 30
l0 25 -200 2 c-110 1 -218 2 -240 2 l-40 1 1 547 c1 302 0 556 -3 566 -3 13
-11 15 -29 11 -22 -6 -24 -3 -24 25 0 17 -3 31 -7 31 -48 4 -296 4 -299 1z"/>
<path d="M5391 2395 c-6 -8 -8 -209 -2 -262 0 -6 10 -10 21 -8 22 4 34 -10 35
-39 0 -19 9 -20 155 -20 l155 -1 3 -562 2 -563 30 0 c27 0 30 -3 30 -30 l0
-29 153 2 152 2 2 565 c0 311 2 577 2 591 l1 25 183 0 182 0 0 139 0 140 -25
0 c-21 0 -25 5 -25 28 1 20 -4 27 -20 28 -160 7 -1028 2 -1034 -6z"/>
</g>
</svg>
