<?xml version="1.0" encoding="UTF-8"?>
<svg id="Layer_2" data-name="Layer 2" xmlns="http://www.w3.org/2000/svg" viewBox="0 0 1764.88 996.15">
  <defs>
    <style>
      .cls-1 {
        fill: #000;
        stroke-width: 0px;
      }
    </style>
  </defs>
  <g id="Layer_1-2" data-name="Layer 1">
    <path class="cls-1" d="M104.09,296.23C183.77,143.8,120.7,43.05,182.57,7.77c74.64-42.56,164.98,104.9,324.51,78.48,89.22-14.78,91.22-65.91,178.16-67.87,102.52-2.31,134.29,68.01,233.31,59.39,76.14-6.63,67.85-49.12,150.59-67.87,142.83-32.37,213.8,83.78,335.12,38.18,53.66-20.17,80.25-58.11,110.29-44.54,28.63,12.93,7.9,59.99,36.06,106.05,43.21,70.68,135.31,38.86,167.56,93.32,39.9,67.4-84.28,144.61-59.39,263,19.45,92.49,108.59,108.85,106.05,195.13-1.16,39.61-21.54,90.05-61.51,116.65-103.11,68.63-241.76-84.49-366.93-21.21-66.22,33.48-42.67,84.05-125.14,152.71-103.13,85.87-272.14,116.85-335.12,53.02-59.35-60.15,6.19-173.4-46.66-207.86-50.52-32.94-119,64.95-252.4,63.63-96.64-.96-206.4-53.78-220.58-123.02-14.61-71.32,79.21-125.81,61.51-161.2-17.84-35.66-154.28,68.51-303.3,27.57-22.61-6.21-97.66-26.83-112.41-78.48-15.45-54.04,50.51-88.5,101.8-186.62Z"/>
  </g>
</svg>